<svg xmlns="http://www.w3.org/2000/svg" viewBox="0 0 50 50"><defs><style>.cls-1{fill:#f4f0e9;}.cls-2{fill:#070707;}</style></defs><g id="レイヤー_2" data-name="レイヤー 2"><g id="レイヤー_1-2" data-name="レイヤー 1"><path id="長方形_173" data-name="長方形 173" class="cls-1" d="M25,0h0A25,25,0,0,1,50,25h0A25,25,0,0,1,25,50h0A25,25,0,0,1,0,25H0A25,25,0,0,1,25,0Z"/><g id="グループ_255" data-name="グループ 255"><path class="cls-2" d="M32.5,33.5a1,1,0,0,1-.71-.29l-15-15a1,1,0,0,1,1.42-1.42l15,15a1,1,0,0,1,0,1.42A1,1,0,0,1,32.5,33.5Z"/><path class="cls-2" d="M17.5,33.5a1,1,0,0,1-.71-.29,1,1,0,0,1,0-1.42l15-15a1,1,0,0,1,1.42,1.42l-15,15A1,1,0,0,1,17.5,33.5Z"/></g></g></g></svg>