<?xml version="1.0" encoding="utf-8"?>
<!-- Generator: Adobe Illustrator 25.2.0, SVG Export Plug-In . SVG Version: 6.00 Build 0)  -->
<svg version="1.1" id="レイヤー_1" xmlns="http://www.w3.org/2000/svg" xmlns:xlink="http://www.w3.org/1999/xlink" x="0px"
	 y="0px" viewBox="0 0 147.9 86.2" style="enable-background:new 0 0 147.9 86.2;" xml:space="preserve">
<style type="text/css">
	.st0{fill:#44403F;}
	.st1{fill:#33302F;}
</style>
<g>
	<g>
		<path d="M0.5,29.3C-2.7,46.5,8.7,63.2,26,66.4c5.2,1,10.3,0.6,15-0.8L19,6C9.7,10,2.5,18.5,0.5,29.3z"/>
	</g>
	<g>
		<path d="M147.3,56.6c3.2-17.3-8.2-33.9-25.5-37.1c-5.2-1-10.4-0.6-15.1,0.9l22,59.6C138,75.9,145.3,67.4,147.3,56.6z"/>
	</g>
	<path class="st0" d="M98.9,29.4L98.9,29.4l-2.3-6.1c-3.8-0.2-8,1.9-11.6,4.4c-3.1,2.1-6.6,4.1-8,9.3l8.8,24.7c0,0,0,0,0-0.1
		C89.5,71.9,98.4,80,110,82.2c2.9,0.5,5.8,0.6,8.5,0.4L98.9,29.4z"/>
	<path class="st0" d="M69.8,46.7l-8-22.5c0,0,0,0,0,0.1C58,14,49.2,5.9,37.6,3.8C32.7,2.9,29,3.4,29,3.4l21.4,57.7l0,0l0.3,0.7
		c3.5-0.3,6.6-2.2,10.1-4.8C63.9,54.6,67.3,51.6,69.8,46.7z"/>
	<path class="st1" d="M75.5,62.9L75.5,62.9l-5.8-16.1c-6.2,7.4-13.5,12.2-19.2,15l2.6,7c4.3,11.5,15.8,18.6,28,17.2l13.1-1.5
		C85.4,79.9,78.8,72.1,75.5,62.9z"/>
	<path class="st1" d="M96.7,23.3l-2.2-5.9C90.2,5.8,78.5-1.3,66.3,0.2L53.8,1.7c9,4.8,15.7,12.9,18.7,22.5l0,0L77,36.9
		C83.2,29.9,90.8,25.7,96.7,23.3z"/>
</g>
</svg>
