<svg xmlns="http://www.w3.org/2000/svg" viewBox="0 0 282.94 260.64"><defs><style>.cls-1{fill:#fdfcfb;}</style></defs><g id="レイヤー_2" data-name="レイヤー 2"><g id="レイヤー_1-2" data-name="レイヤー 1"><path class="cls-1" d="M141.57.23c-2.42,0-4.81.08-7.19.18s-4.78.49-7.16.69S122.34.65,120,1s-4.82.47-7.17.86-4.75.93-7.09,1.42-4.71,1.1-7,1.69-4.66,1.29-6.94,2S87.1,8.23,84.85,9s-4.23,2.45-6.44,3.35-4.66,1.35-6.83,2.35S67.31,17,65.2,18.08s-4.08,2.58-6.14,3.79-4,2.6-6,3.91-4.41,2.08-6.33,3.49-4,2.81-5.79,4.32S37.8,37.36,36,39s-4,2.75-5.71,4.46S27,46.94,25.44,48.75s-3.09,3.72-4.54,5.62-2.87,3.9-4.18,5.89-2.08,4.37-3.27,6.45-2.24,4.23-3.28,6.39S8,77.37,7.1,79.6s-2,4.39-2.74,6.68-1.1,4.68-1.65,7S1.65,98,1.28,100.37.22,105.09,0,107.49s.37,4.82.37,7.24.23,4.85.42,7.25.12,4.88.49,7.27.8,4.8,1.35,7.16,1.79,4.53,2.52,6.84,1.59,4.55,2.49,6.8,1.46,4.63,2.52,6.82,2.52,4.13,3.73,6.24,2,4.47,3.33,6.49,3.18,3.67,4.66,5.61,2.9,3.86,4.5,5.7,3.39,3.43,5.11,5.16,3.49,3.31,5.3,5,3.3,3.56,5.2,5.09,3.67,3.18,5.65,4.6,4.22,2.4,6.27,3.72,4.25,2.3,6.36,3.51,4.09,2.58,6.26,3.69,4.16,2.49,6.39,3.5,4.65,1.39,6.92,2.29,4.51,1.68,6.82,2.47,4.44,2,6.78,2.65,4.65,1.34,7,1.92,4.77.79,7.17,1.27,4.69,1.18,7.1,1.55,4.44,1.1,6.87,1.37c2.18,2.46,1.72,2.69,3.23,5.62s1.41,3,2.91,5.91,1.28,3,2.79,6,1.68,2.84,3.19,5.77,1.29,3.05,2.8,6a6,6,0,0,0,5,3,5.73,5.73,0,0,0,4.76-3.09c1.5-2.93,1.23-3.07,2.74-6s2-2.68,3.5-5.6.85-3.27,2.36-6.2,2-2.65,3.56-5.59.47-3.58,2.66-6c2.43-.28,4.83-.64,7.22-1s4.85-.51,7.22-1,4.7-1.29,7-1.87,4.62-1.54,6.93-2.23,4.86-.76,7.15-1.55,4.48-1.92,6.72-2.81,4.62-1.59,6.82-2.58,4.25-2.41,6.4-3.51,4.11-2.6,6.2-3.8,4.37-2.15,6.39-3.46,4.28-2.37,6.24-3.78,3.57-3.34,5.45-4.86,4-2.75,5.83-4.37,3.73-3.17,5.42-4.89,3.41-3.51,5-5.32,2.87-3.95,4.35-5.87,2.79-4,4.14-6,2.83-4,4-6,2.57-4.16,3.63-6.34,2.21-4.37,3.11-6.62,1.57-4.63,2.3-6.94.57-4.87,1.12-7.23,1.28-4.67,1.65-7.07,1.09-4.75,1.27-7.18.14-4.85.14-7.29-.33-4.81-.51-7.19-.81-4.72-1.18-7.08-.26-4.83-.8-7.16-1-4.72-1.73-7-1.86-4.44-2.74-6.67-2.13-4.28-3.17-6.45-1.65-4.53-2.84-6.63-3-3.79-4.29-5.8-2-4.41-3.5-6.34-3-3.75-4.58-5.57-3.3-3.49-5-5.22-3.3-3.49-5.08-5.12-3.88-2.84-5.74-4.37-3.63-3.12-5.58-4.55-4.12-2.44-6.14-3.76-3.72-3.06-5.8-4.29-4.29-2.14-6.43-3.25-4.43-1.8-6.63-2.82-4.35-1.92-6.59-2.83-4.16-2.5-6.43-3.31-4.5-1.69-6.81-2.4-4.65-1.21-7-1.81-4.77-.61-7.13-1.11-4.7-.85-7.08-1.24-4.61-1.54-7-1.84S158.38.5,156,.3s-4.81.25-7.23.15S144,.23,141.57.23Zm-2.31,169.7a10,10,0,0,1-6.88-2.86,10.24,10.24,0,0,1-3.14-6.88c0-3,2.07-5.35,4.14-7.11a9.31,9.31,0,0,1,15,5.46,8.74,8.74,0,0,1-2,7.52C144.59,168.13,142.25,169.94,139.26,169.93Zm7-47c0,2.56,0,2.56,0,5.11a3.29,3.29,0,0,1-3.16,3.27c-3.73,0-3.73-.89-7.46-.89-1.37,0-2.06-.73-2.06-2.24,0-2.9-.07-2.9-.07-5.8a13.57,13.57,0,0,1,1.7-6.92,20.91,20.91,0,0,1,4.63-5.57c1.85-1.65,4-3,5.86-4.54s3.34-3.88,4.74-5.77,2.88-4,2.88-6.73a10.44,10.44,0,0,0-2-5.81,10.72,10.72,0,0,0-4.88-3.48,14.85,14.85,0,0,0-5.87-1c-2.45,0-4.67-.35-6.51.24a20.79,20.79,0,0,0-5.91,3c-2.14,1.59-3.1,4-4.3,5s-2.19.39-3.29-.57c-2.3-2.19-2.25-2.24-4.55-4.43-1.1-1-.78-2,0-3,2.19-3,1.7-2.39,5.25-5.11,1.72-1.31,3.52-3.17,6.06-4.34a33.68,33.68,0,0,1,7.11-2.42A36.77,36.77,0,0,1,142,70.3a31,31,0,0,1,7.4,1.22,26.84,26.84,0,0,1,7,2.51,22.29,22.29,0,0,1,5.76,4.77,20.11,20.11,0,0,1,3.41,6.56c.83,2.27,1.89,4.56,1.89,7.2a18.78,18.78,0,0,1-1.43,7.63,22,22,0,0,1-4.7,6.15,51.88,51.88,0,0,1-5.88,5,68.1,68.1,0,0,0-5.62,5.29C147.78,118.64,146.26,120.39,146.26,122.92Z" transform="translate(0 -0.23)"/></g></g></svg>