<svg xmlns="http://www.w3.org/2000/svg" viewBox="0 0 78.3 52.27"><defs><style>.cls-1{fill:#fdfcfb;}</style></defs><g id="レイヤー_2" data-name="レイヤー 2"><g id="レイヤー_1-2" data-name="レイヤー 1"><path class="cls-1" d="M0,26.1C0,8.92,9.37,0,19.35,0S38.7,8.92,38.7,26.17s-9.38,26.1-19.35,26.1S0,43.35,0,26.1Zm9.75,0c0,13,5.32,17.77,9.6,17.77S29,39.15,29,26.1s-5.4-17.7-9.6-17.7S9.75,13.12,9.75,26.1Z"/><path class="cls-1" d="M44.47,14.17C45.37,5.1,52.2,0,60.75,0c9.6,0,15.67,5.4,15.67,13.8,0,2.62-.52,7.57-5.77,10.5,2,.82,7.65,3.67,7.65,11.92,0,10.28-8,16.05-17.85,16.05-9.6,0-17.18-5.92-18-15.52H52.2a7.91,7.91,0,0,0,8.32,7.12c5.63,0,8-4.12,8-7.95,0-3.67-2.25-7.8-8.33-7.8H59v-7H60.3c4.8,0,6.82-3.37,6.82-6.82a6.21,6.21,0,0,0-6.6-6.6,6.64,6.64,0,0,0-6.9,6.52Z"/></g></g></svg>