<svg xmlns="http://www.w3.org/2000/svg" viewBox="0 0 78.3 52.27"><defs><style>.cls-1{fill:#fdfcfb;}</style></defs><g id="レイヤー_2" data-name="レイヤー 2"><g id="レイヤー_1-2" data-name="レイヤー 1"><path class="cls-1" d="M0,26.1C0,8.92,9.37,0,19.35,0S38.7,8.92,38.7,26.17s-9.38,26.1-19.35,26.1S0,43.35,0,26.1Zm9.75,0c0,13,5.32,17.77,9.6,17.77S29,39.15,29,26.1s-5.4-17.7-9.6-17.7S9.75,13.12,9.75,26.1Z"/><path class="cls-1" d="M56.7,34.42c.9-1.05,6.75-7.72,8.55-10.42,1.35-2,2.92-5.1,2.92-8A7.24,7.24,0,0,0,60.75,8.4c-5.1,0-7.8,4-8,8.32h-10C43.2,6.52,50.4,0,60.3,0,71.92,0,77.92,8,77.92,15.9c0,7.72-5.17,13.27-9.07,17.47l-8.63,9.38H78.3v8.4H42Z"/></g></g></svg>