<svg xmlns="http://www.w3.org/2000/svg" viewBox="0 0 1025.31 168.49"><defs><style>.cls-1,.cls-2{fill:#fcfbfb;}.cls-1{stroke:#fcfbfb;stroke-miterlimit:10;}</style></defs><g id="レイヤー_2" data-name="レイヤー 2"><g id="レイヤー_1-2" data-name="レイヤー 1"><g id="グループ_221" data-name="グループ 221"><g id="グループ_270" data-name="グループ 270"><g id="グループ_62" data-name="グループ 62"><g id="グループ_60" data-name="グループ 60"><path class="cls-1" d="M772.59,129.34h0Zm-4.88-6.06Zm0,0h0ZM787.21,113h0Zm30.52-20.77h0Zm31.39-17.94h0Zm8.57-21.3h0Zm18.74-12.86h0ZM985.75,29.34h0ZM911.9,26.68h0Zm-3.34-.85Zm-22.49-1.34h0Z"/></g></g><path class="cls-1" d="M1024.5,168H.5V145.86c.4-.27,1.37.13,4.09.26.86,0,1.86.15,2.29.22a14.8,14.8,0,0,0,1.59.16,6.84,6.84,0,0,1,3.11,1.15l.34.22.8,0a18.77,18.77,0,0,1,2.28,0,6.75,6.75,0,0,0,.92,0,14.94,14.94,0,0,1,2.41-.09c.58,0,1.15.1,1.74.16s1,.12,1.58.15a14.79,14.79,0,0,1,2.15.36,9.92,9.92,0,0,0,1.11.2,8.52,8.52,0,0,0,1-.05,16.58,16.58,0,0,1,2.3-.06,7,7,0,0,0,.74-.11,11.69,11.69,0,0,1,2.6-.19,12.11,12.11,0,0,1,2.37.44,6.8,6.8,0,0,0,.91.21l1.67.1,1.63.08a7,7,0,0,0,.81-.1,12.53,12.53,0,0,1,2.54-.18,8,8,0,0,1,3,.88c.15.07.32.15.44.19l3.12.2a14.88,14.88,0,0,1,2.15.32c.34.06.68.13.94.16l.42-.13a8.24,8.24,0,0,1,3.14-.52c.54,0,1.09.09,1.64.12s1.1.09,1.65.12a13.7,13.7,0,0,1,2.27.36,7,7,0,0,0,1,.19,10.55,10.55,0,0,1,2.45.47,7.71,7.71,0,0,0,.82.2l3.31.18a6.59,6.59,0,0,0,.93-.09,12.74,12.74,0,0,1,2.1-.16,2.79,2.79,0,0,0,.37-.14,7.88,7.88,0,0,1,3.32-.66,8.06,8.06,0,0,1,3.12.94,1.45,1.45,0,0,0,.25.12l.4-.09a9.6,9.6,0,0,1,2.83-.36,8.65,8.65,0,0,1,2.86.73l.52.19c.39,0,.81,0,1.27,0s1.24,0,1.93,0c.11,0,.47-.07.74-.13a10.4,10.4,0,0,1,2.61-.24,13.94,13.94,0,0,1,2.32.37,5.75,5.75,0,0,0,1,.19,8.55,8.55,0,0,0,1-.08,12.1,12.1,0,0,1,2.38-.15,7,7,0,0,1,3.12,1,6.76,6.76,0,0,1,3.52-.93,19.11,19.11,0,0,1,2.13.28,11.59,11.59,0,0,0,1.16.18c.5,0,1,0,1.5,0s1.22,0,1.82,0a7.67,7.67,0,0,1,3.24,1l.32.17,1.24,0,1.77,0c.37,0,.83,0,1.32,0s1.28-.06,2,0c.08,0,.42-.07.66-.12a10.06,10.06,0,0,1,2.68-.3,13.43,13.43,0,0,1,2.32.35,6.46,6.46,0,0,0,1,.18,10.21,10.21,0,0,1,2.65.55l.32.1.1,0a7.21,7.21,0,0,1,3.59-.94,10.63,10.63,0,0,1,2.57.5,6.7,6.7,0,0,0,.73.19,9.9,9.9,0,0,0,1.08-.07,14,14,0,0,1,2.23-.11,10.07,10.07,0,0,0,1.16,0,18.22,18.22,0,0,1,2.17-.09,9.86,9.86,0,0,1,2.61.53l.7.19a8.93,8.93,0,0,1,2.77.63l.49.17.54-.13a9.62,9.62,0,0,1,2.79-.38c.73,0,1.39.11,2,.19s.93.12,1.32.14l.62-.15a10.09,10.09,0,0,1,2.72-.34l1.8.12c.5,0,1,.08,1.51.1a7.8,7.8,0,0,1,3.14.89l.32.15.65-.1a10.81,10.81,0,0,1,2.39-.24c.12,0,.37-.09.55-.15A9.07,9.07,0,0,1,174,155a7,7,0,0,1,3.53,1.26l.19.11h1.09l1.44,0,.33-.14a7.89,7.89,0,0,1,3.35-.76l1.62,0,1.7,0,1.6,0,1.71,0a11.69,11.69,0,0,1,2.46.4,6.89,6.89,0,0,0,.84.19,13.8,13.8,0,0,1,2.33.32,6,6,0,0,0,.66.14l.24-.12a7.71,7.71,0,0,1,3.42-.83,10.17,10.17,0,0,1,2.7.54c.23.07.54.17.66.19h3.25c.48,0,.95,0,1.43,0s1.22,0,1.89,0a12.88,12.88,0,0,0,1.36,0c.59,0,1.26,0,2,0a12.17,12.17,0,0,0,1.28-.06c.61,0,1.29-.08,2-.06s1.48.13,2.1.21a11.47,11.47,0,0,0,1.2.15c.68,0,1.31.07,1.91.13s1,.09,1.41.11,1,0,1.44,0,1.24,0,1.87,0a12.39,12.39,0,0,1,2.45.38,6.27,6.27,0,0,0,.85.17l1.69.07,1.63,0a7.31,7.31,0,0,0,1.12-.09,16.08,16.08,0,0,1,2.2-.13c.42,0,.89,0,1.38,0s1.25-.06,1.94,0a8.09,8.09,0,0,1,3.18.87l.37.16,1.44.06,1.62.06a5.09,5.09,0,0,0,.78-.15,10.78,10.78,0,0,1,2.55-.28,11.92,11.92,0,0,1,2.45.36,6.58,6.58,0,0,0,.85.17,12.42,12.42,0,0,0,1.3-.06c.6,0,1.29-.08,2-.07a13.64,13.64,0,0,1,2.27.28,9.93,9.93,0,0,0,1,.15l1.64,0,1.32,0,.29-.15a7.53,7.53,0,0,1,3.42-.87,7.9,7.9,0,0,1,3.09.78l.4.17c.33,0,.69,0,1.09-.07.6,0,1.29-.09,2-.08l3.31.07a5,5,0,0,0,.74-.15,12,12,0,0,1,2.59-.32,11.71,11.71,0,0,0,1.24-.07,18.3,18.3,0,0,1,2.09-.12c.68,0,1.34.07,1.92.12s1,.09,1.39.1a7.86,7.86,0,0,1,3.17.83l.37.16,1.23,0c.61,0,1.23,0,1.84,0a8.47,8.47,0,0,0,1-.11,14.45,14.45,0,0,1,2.29-.2c.61,0,1.21,0,1.82.08s1,.06,1.5.07h3.31a5.75,5.75,0,0,0,1-.11,11.77,11.77,0,0,1,4.58.09,7.72,7.72,0,0,0,1,.15c.59,0,1.19,0,1.78.07l1.35,0,.44-.16a8.63,8.63,0,0,1,3.08-.65,14.35,14.35,0,0,1,2.14.21,10.15,10.15,0,0,0,1.16.12c.48,0,1,0,1.44,0s1.27-.05,1.89-.05,1.37.08,2,.13,1,.09,1.36.09a8.56,8.56,0,0,0,1.1-.1,15.72,15.72,0,0,1,2.22-.19c.72,0,1.41.08,2,.14s.94.09,1.32.09a7.91,7.91,0,0,1,3.2.84l.13.05a.49.49,0,0,0,.17-.06,8,8,0,0,1,3.11-.69,10.31,10.31,0,0,1,2.57.39,6.52,6.52,0,0,0,.75.16,5.3,5.3,0,0,0,.9-.13,10.71,10.71,0,0,1,2.41-.28,14,14,0,0,1,2.31.26,7.63,7.63,0,0,0,1,.14c.27,0,.69-.05,1.12-.11a19.19,19.19,0,0,1,2.19-.18,17.52,17.52,0,0,1,2,.14c.47.05.92.09,1.28.1h1.65c.55,0,1.11,0,1.66,0a8.09,8.09,0,0,0,1.15-.11,15.16,15.16,0,0,1,2.16-.17c.29,0,.67-.06,1.1-.12a15.47,15.47,0,0,1,2.21-.2,12.08,12.08,0,0,1,2.42.3,8.29,8.29,0,0,0,.9.15c.61,0,1.23,0,1.84.06l1.47.06a15.5,15.5,0,0,1,2.23.2,8.09,8.09,0,0,0,1.08.13c.34,0,.77,0,1.24-.1a18,18,0,0,1,2.08-.15h1.58q.87,0,1.74,0a10.18,10.18,0,0,1,2.62.4l.72.17h2.79l.2-.12a7,7,0,0,1,3.61-1.16h0a7.37,7.37,0,0,1,3.33.9l.31.14,1.17,0c.61,0,1.22,0,1.83,0a17.77,17.77,0,0,1,2.07.15c.3,0,.59.06.86.07l.2-.1a7.1,7.1,0,0,1,3.49-1,9.65,9.65,0,0,1,2.76.47,5.5,5.5,0,0,0,.61.17,14.52,14.52,0,0,1,2.14.18c.44.06.84.1,1.12.11s.8-.05,1.26-.09a17.57,17.57,0,0,1,2.05-.15c.69,0,1.35,0,1.93.08s1,.05,1.38.05a14.09,14.09,0,0,1,2.18.17c.43.05.85.1,1.14.1.08,0,.42-.1.66-.17a10.45,10.45,0,0,1,2.66-.45,15.09,15.09,0,0,1,2.35.24,8.23,8.23,0,0,0,1,.13,8.07,8.07,0,0,0,1-.14,13.74,13.74,0,0,1,2.26-.24,9.7,9.7,0,0,0,1-.15,13.9,13.9,0,0,1,2.31-.28,13.37,13.37,0,0,1,2.49.31l.76.13c.13,0,.36-.11.53-.17a9.2,9.2,0,0,1,2.85-.58c.62,0,1.23,0,1.84,0l1.47,0a13.48,13.48,0,0,1,2.3.2,9.35,9.35,0,0,0,1,.12l1.74,0c.53,0,1,0,1.57,0s1.3,0,1.91,0,1,.05,1.41.05a8.78,8.78,0,0,1,2.84.48l.13,0a6.85,6.85,0,0,1,3.66-1.3,7.4,7.4,0,0,1,3.34.83.75.75,0,0,0,.13.06l.23-.08a8.52,8.52,0,0,1,2.93-.66,9,9,0,0,1,2.93.52c.17.06.38.13.51.16s.54-.09.84-.15a13.9,13.9,0,0,1,2.36-.32,12.36,12.36,0,0,1,2.53.3,8,8,0,0,0,.8.13,5,5,0,0,0,.68-.17,9.88,9.88,0,0,1,2.61-.46c.69,0,1.35,0,1.93,0s1,0,1.4,0a10.15,10.15,0,0,1,2.62.33c.17,0,.38.09.54.11l.32-.13a8.14,8.14,0,0,1,3.13-.84,10.55,10.55,0,0,0,1.16-.14,15.75,15.75,0,0,1,2.15-.23c.57,0,1.15,0,1.73,0l1.58,0a7.39,7.39,0,0,1,3.32.79,7.39,7.39,0,0,1,3.31-1,8,8,0,0,1,3.33.78l.13.06.17-.08a8.54,8.54,0,0,1,3-.74,8.63,8.63,0,0,1,2.95.5l.48.14.6-.17a10.56,10.56,0,0,1,2.6-.49c.49,0,1,0,1.49-.09s1.21-.1,1.82-.12a6.68,6.68,0,0,0,1.06-.16,14.26,14.26,0,0,1,2.24-.29l1.57-.08,1.74-.08a13.65,13.65,0,0,1,2.2.11,8.36,8.36,0,0,0,1.13.07,18.9,18.9,0,0,1,2,.06c.47,0,.92,0,1.27,0l1.59-.09c.56,0,1.15-.07,1.72-.09.33,0,.76-.08,1.22-.15a16.55,16.55,0,0,1,2.09-.24c.48,0,1-.06,1.45-.11s1.23-.12,1.85-.14c.47,0,.95-.07,1.42-.11s1.22-.13,1.88-.15a10.66,10.66,0,0,1,2.59.26,7.57,7.57,0,0,0,.76.13,7.05,7.05,0,0,0,.86-.19,11.33,11.33,0,0,1,2.42-.41,7.38,7.38,0,0,1,3.33.75,7.3,7.3,0,0,1,3.29-1.1c.67,0,1.29,0,1.89,0s1,0,1.44,0a11.93,11.93,0,0,1,2.36.16,6.78,6.78,0,0,0,1,.08,15.49,15.49,0,0,1,2.26.12,9.74,9.74,0,0,0,1.07.07,17.57,17.57,0,0,1,2.1.05,10.16,10.16,0,0,0,1,0l.42-.18a8.15,8.15,0,0,1,3-.84c.58,0,1.16-.05,1.74-.06s1.05,0,1.58-.06,1.07-.06,1.6-.1,1.13-.09,1.71-.12a8.12,8.12,0,0,1,3.11.54l.44.13c.32,0,.69-.08,1.07-.14a16.59,16.59,0,0,1,2-.24,19.21,19.21,0,0,1,2,0c.48,0,.94,0,1.31,0s.77-.1,1.23-.17a16.5,16.5,0,0,1,2.06-.26c.33,0,.74-.1,1.19-.18a15,15,0,0,1,2.12-.28,10.19,10.19,0,0,1,2.76.31,5.89,5.89,0,0,0,.64.14c.48,0,1-.08,1.47-.13l1.77-.15a6.65,6.65,0,0,0,.71-.19,9.9,9.9,0,0,1,2.56-.55c.51,0,1-.08,1.53-.14l1.77-.15c.67,0,1.29,0,1.88,0s1,0,1.43,0c.73-.05,1.41,0,2,0s.94,0,1.32,0l.67-.21a10.52,10.52,0,0,1,2.6-.57,10.38,10.38,0,0,1,2.57.2l.78.1a13.07,13.07,0,0,1,2.45.13,8.15,8.15,0,0,0,.84.1l.57-.21a9.67,9.67,0,0,1,2.73-.68,7.12,7.12,0,0,0,.95-.21,13.68,13.68,0,0,1,2.32-.42c.5,0,1-.09,1.51-.15l1.8-.17a18.72,18.72,0,0,1,2.14,0,9.93,9.93,0,0,0,1.18,0l1.63-.11,1.67-.11c.52,0,1.06-.09,1.58-.15s1.14-.12,1.72-.16l1.64-.15,1.66-.14a15.7,15.7,0,0,1,2.18,0c.44,0,.86,0,1.15,0,.6-.05,1.19-.08,1.78-.11s1,0,1.53-.08l.66-.21a9.82,9.82,0,0,1,2.58-.63,7.37,7.37,0,0,1,3.42.66,7.33,7.33,0,0,1,3.18-1.16c.29,0,.69-.12,1.12-.21a14.18,14.18,0,0,1,2.15-.38l1.72-.13c.53,0,1-.06,1.58-.11a10.89,10.89,0,0,1,2.5.1,5.32,5.32,0,0,0,.85.08c.61-.06,1.22-.09,1.84-.11l1.47-.09c.72-.07,1.4-.07,2-.07.43,0,.84,0,1.19,0l.47-.21a9,9,0,0,1,2.87-.87c.6-.06,1.22-.09,1.84-.11s1,0,1.46-.09.8-.12,1.26-.21,1.27-.25,2-.33a12.52,12.52,0,0,1,2.42.05,7,7,0,0,0,.93,0,8.15,8.15,0,0,1,3.23.43l.39.12.81-.2a12.67,12.67,0,0,1,2.23-.45l.62-.23a9.59,9.59,0,0,1,2.59-.7,10.85,10.85,0,0,0,1.21-.23,20.55,20.55,0,0,1,2-.38,8.86,8.86,0,0,1,3,.3l.47.1a5.27,5.27,0,0,0,.58-.21,10.5,10.5,0,0,1,2.54-.68c.71-.08,1.37-.1,2-.11s1,0,1.36-.09a11.41,11.41,0,0,1,2.54.07c.24,0,.55.06.72.06s.31-.14.45-.2a8.7,8.7,0,0,1,2.82-.92c.7-.08,1.37-.11,2-.12s1,0,1.36-.09c.11,0,.45-.15.69-.25a10.61,10.61,0,0,1,2.51-.68,7.15,7.15,0,0,1,3.81.77l.12-.06a9.25,9.25,0,0,1,2.72-.87c.76-.09,1.46-.11,2.08-.13a11.24,11.24,0,0,0,1.25-.06l.56-.24a8.45,8.45,0,0,1,5.36-.7l.7.08a19.25,19.25,0,0,1,1.94-.14c.49,0,.94,0,1.32-.09l2-.27,1.3-.18a19.26,19.26,0,0,1,2-.15c.47,0,.93,0,1.29-.09s.77-.15,1.22-.26a17.71,17.71,0,0,1,2-.43c.33,0,.75-.16,1.2-.26a17.15,17.15,0,0,1,2-.44l1.67-.22,1.61-.21a11.74,11.74,0,0,1,2.39-.08,7.38,7.38,0,0,0,.95,0,6.73,6.73,0,0,0,1-.27,13,13,0,0,1,2.21-.57,15.85,15.85,0,0,1,2.18-.14c.37,0,.73,0,1,0L783,136a8.52,8.52,0,0,1,2.82-1,8.09,8.09,0,0,0,.83-.28A12,12,0,0,1,789,134c.57-.09,1.14-.17,1.72-.24s1-.13,1.55-.21l1.72-.25c.52-.06,1-.13,1.55-.22a20.12,20.12,0,0,1,2-.19c.46,0,.91-.06,1.25-.12a8.63,8.63,0,0,1,3,.12l.53.08c.91-.14,1.83-.3,2.74-.46l.22-.17a7.31,7.31,0,0,1,3.17-1.52,9,9,0,0,1,2.81,0c.22,0,.51.05.64.05a10.71,10.71,0,0,1,2.56-.06c.27,0,.64,0,.77,0l1.38-.31c.6-.14,1.21-.28,1.82-.4l1.6-.26c.55-.09,1.09-.17,1.64-.28l.52-.26a10,10,0,0,1,2.56-1c.67-.13,1.28-.21,1.88-.29s.94-.12,1.4-.21a10,10,0,0,1,2.61-.12H831a7,7,0,0,1,3.32-1.89,10.69,10.69,0,0,1,2.49-.16,5.19,5.19,0,0,0,.85,0,13.93,13.93,0,0,1,2.33-.21,9.88,9.88,0,0,0,1-.07c.73-.15,1.42-.22,2-.29.44,0,.86-.08,1.19-.14l.53-.29a9.5,9.5,0,0,1,2.58-1,9.84,9.84,0,0,1,2.67-.16,6.37,6.37,0,0,0,.74,0c.26-.06.67-.2,1.1-.35a18.69,18.69,0,0,1,2-.6,13.15,13.15,0,0,1,2.29-.27,7.36,7.36,0,0,0,1-.09,8,8,0,0,0,.91-.34,12.71,12.71,0,0,1,2.2-.76,10.27,10.27,0,0,1,2.5-.24l.63,0,.25-.18a7,7,0,0,1,6.19-1.46l.06,0a7.34,7.34,0,0,1,3-1.67,10,10,0,0,1,2.7-.24c.25,0,.59,0,.72,0l1.33-.34,1.58-.4.33-.25a8.17,8.17,0,0,1,2.78-1.47,10,10,0,0,1,2.77-.25,4.81,4.81,0,0,0,.66,0,12.37,12.37,0,0,1,2.32-.34,7.49,7.49,0,0,0,.9-.09,17,17,0,0,1,1.92-.43c.48-.09.94-.18,1.3-.28s.92-.3,1.37-.45,1-.36,1.55-.52l.36-.26a8.37,8.37,0,0,1,2.68-1.48l1.18-.35,1.95-.58c.49-.15,1-.32,1.48-.5l1.61-.53a8.6,8.6,0,0,1,3-.28,4.18,4.18,0,0,1,.51,0l.94-.41a17.31,17.31,0,0,1,1.92-.78c.32-.11.71-.29,1.13-.48s1.17-.52,1.87-.76a12.65,12.65,0,0,1,2.29-.49,7.55,7.55,0,0,0,1-.17c.4-.15.84-.32,1.31-.52s1.09-.47,1.71-.68a10.36,10.36,0,0,0,1.11-.49c.54-.26,1.15-.55,1.85-.81a6.45,6.45,0,0,0,.91-.46,13,13,0,0,1,2-1,17.06,17.06,0,0,1,2.07-.58,8.23,8.23,0,0,0,1.1-.28,9.33,9.33,0,0,1,2.91-.48,6.38,6.38,0,0,1,2.84-2.42,15.2,15.2,0,0,1,2.09-.62,8.15,8.15,0,0,0,1.06-.3,10.86,10.86,0,0,1,2.5-.61l.62-.1.27-.26a8.73,8.73,0,0,1,2.45-1.71,9.84,9.84,0,0,1,2.69-.63,6.25,6.25,0,0,0,.64-.1,9.93,9.93,0,0,1,2.59-.63l.35,0,0-.07a7.18,7.18,0,0,1,2.61-2.2c.36-.17.76-.39,1.18-.64s1-.59,1.61-.87a7.66,7.66,0,0,1,3.36-.64h.18l.16-.15a9.19,9.19,0,0,1,2.22-1.71,6.29,6.29,0,0,0,.67-.5,12.52,12.52,0,0,1,1.93-1.33,12.88,12.88,0,0,1,2.1-.84,7.34,7.34,0,0,0,.91-.34,8.86,8.86,0,0,1,2.79-.87,3.23,3.23,0,0,1,.33-.06l.1-.14a7.85,7.85,0,0,1,2.25-2.1c.51-.3,1-.63,1.54-1l1.15-.71a17.26,17.26,0,0,1,1.75-.9c.41-.2.8-.39,1.07-.56.48-.3,1-.57,1.47-.85l1.19-.69c.08-.09.24-.27.35-.41A9.1,9.1,0,0,1,983,73.29a7.27,7.27,0,0,1,3.53-1.08l.27,0,.55-.39,1-.73a6.49,6.49,0,0,1,2.1-3.28c.41-.32.81-.67,1.21-1s.75-.65,1.14-1a7.27,7.27,0,0,1,3.08-1.35A6.89,6.89,0,0,1,997.57,62c.4-.36.81-.7,1.21-1s.8-.65,1.12-1l.27-.26c.63-.61,1.28-1.22,1.9-1.84a10.16,10.16,0,0,1,2.14-1.55,4,4,0,0,0,.41-.24,3.13,3.13,0,0,0,.15-.32,8.7,8.7,0,0,1,1.38-2.27,12.4,12.4,0,0,1,1.55-1.45c.26-.22.57-.48.69-.61a11.08,11.08,0,0,1,1.68-1.6l.24-.19c.09-.79,1.69-.9,2.52-2.08a13.83,13.83,0,0,1,1.38-1.59,6.93,6.93,0,0,0,.58-.63,16,16,0,0,1,1.37-2.42,3.83,3.83,0,0,0,.4-.35c.31-.5,1.35-2.56,1.63-3a7.88,7.88,0,0,0,.67-1c1-1.9,2.34-2.3,2.92-2.87,1.07-1,1.6-3.88,2.72-3.87C1024.47,32,1024.5,168,1024.5,168Z"/></g></g><path class="cls-2" d="M724,127.92a5.51,5.51,0,0,1-1.74-10.72,13.09,13.09,0,0,1,2.25-.53,8.11,8.11,0,0,1,3-2.07c.71-.26,1.38-.44,1.92-.58.34-.09.7-.18.89-.25l.44-.17,2.28-.89a4.62,4.62,0,0,0,.41-.27,13,13,0,0,1,2.17-1.17,8.52,8.52,0,0,1,3.86-.54,15.76,15.76,0,0,1,1.65-.43l.15,0A9.67,9.67,0,0,1,744,108.4a8.45,8.45,0,0,1,3.06-.7,9.21,9.21,0,0,1,2.33-1.65c.1-.06.26-.19.41-.3a14,14,0,0,1,2.07-1.3,10.75,10.75,0,0,1,2.5-.84,8.71,8.71,0,0,1,2.58-2.11c.61-.32,1.18-.56,1.69-.78s.73-.31,1-.44a11.76,11.76,0,0,1,2.54-1l.39-.1.83-.53c.49-.32,1-.63,1.48-.91.13-.1.25-.21.37-.32A12.5,12.5,0,0,1,767.27,96c.45-.26.91-.5,1.37-.75s.81-.42,1.2-.66a10.27,10.27,0,0,1,3.07-1.1l.18,0a13.52,13.52,0,0,1,1.94-.84l.47-.17,1.56-1,.12-.07a8.31,8.31,0,0,1,2.67-2.94,16.44,16.44,0,0,1,2-1l.65-.31a8.85,8.85,0,0,1,3.41-1.25l.35-.28c.44-.35.93-.75,1.52-1.15a15.44,15.44,0,0,1,2-1.12h0a8,8,0,0,1,2.4-2.8c.13-.11.26-.27.41-.41a13.05,13.05,0,0,1,1.78-1.58c.56-.41,1.1-.74,1.57-1,.3-.19.61-.37.89-.58s.77-.59,1.15-.89.77-.62,1.17-.91a7.91,7.91,0,0,1,3.19-1.41,10.8,10.8,0,0,1,1.76-1.81c.09-.08.35-.34.53-.53a15.94,15.94,0,0,1,1.59-1.51,13.77,13.77,0,0,1,2.13-1.35h0a8.93,8.93,0,0,1,2.1-2.72,8.32,8.32,0,0,1,2.72-1.48A8.86,8.86,0,0,1,815,62a9,9,0,0,1,3.37-1.75c.48-.37.93-.66,1.32-.91.19-.12.45-.29.53-.36.38-.34.79-.69,1.2-1l.41-.36a8.28,8.28,0,0,1,2-3.27,11.24,11.24,0,0,1,2.26-1.62,3.37,3.37,0,0,0,.32-.19,14.31,14.31,0,0,1,1.79-1.38l.4-.28.24-.35a11.81,11.81,0,0,1,1.57-2c.39-.39.79-.77,1.2-1.15s.62-.57.91-.88.77-.76,1.16-1.14l.39-.37a8.18,8.18,0,0,1,1.8-3.38c.38-.42.79-.82,1.19-1.22s.58-.57.85-.87a8.21,8.21,0,0,1,3.29-2.14,3.15,3.15,0,0,0,.22-.29c.35-.45.7-.9,1.06-1.34s.56-.69.83-1l.38-.5a8.18,8.18,0,0,1,1.59-3.72c.36-.45.75-.88,1.14-1.31s.53-.58.77-.89A7.58,7.58,0,0,1,850,26a9.27,9.27,0,0,1,1.14-2.11l.27-.37,1.45-2c.14-.2.33-.53.52-.87.28-.49.59-1,1-1.62a13.65,13.65,0,0,1,1.69-1.93,3.55,3.55,0,0,0,.34-.33,10,10,0,0,1,2.17-2.22l0,0,.13-.3a13.49,13.49,0,0,1,1-2.08l.23-.56a14.36,14.36,0,0,1,1-2.1c.37-.63.76-1.17,1.08-1.61s.43-.6.54-.79a15.15,15.15,0,0,1,1.26-1.84c.15-.2.35-.46.41-.56,2-3.65,5.45-5.41,8.87-4.46.37.11.74.18,1.12.26.59.12,1.17.24,1.75.4a8.93,8.93,0,0,1,2.86,1.42,10,10,0,0,1,2.8.27c.58.15,1.16.34,1.74.53.36.12.71.24,1.08.33s.62.12,1,.19c.56.08,1.19.18,1.89.35a10,10,0,0,1,2.92,1.31l.18.11a11.39,11.39,0,0,1,2.27,1l.24.13.44,0a13.66,13.66,0,0,1,2.39.29c.51.11,1,.24,1.53.37s.89.23,1.35.33l1.18.26,1.41.31.24,0a10.24,10.24,0,0,1,2.92.09h.42a11.9,11.9,0,0,1,2.71.17,8.32,8.32,0,0,1,3.57,1.77c.34.09.66.19.94.28a7.35,7.35,0,0,1,4.2-.56A7.68,7.68,0,0,1,919.11,11a7.44,7.44,0,0,1,3-.14l1.59.3c.44.09.87.18,1.31.25a11.71,11.71,0,0,1,2.58.76l.4.15a7.92,7.92,0,0,1,2.69,1,8.1,8.1,0,0,1,2.72-.23l.28-.05a10.74,10.74,0,0,1,3-.09,7.3,7.3,0,0,1,3.88,1.83c.51,0,1.08,0,1.72.07.15,0,.31,0,.46,0a12.68,12.68,0,0,1,2.24-.08l.21,0a10.13,10.13,0,0,1,3.16-.25A7.74,7.74,0,0,1,952.28,16l.59.05A7.49,7.49,0,0,1,957.13,15a7.14,7.14,0,0,1,3.7,1.41,8.58,8.58,0,0,1,2.11-.15,9.07,9.07,0,0,1,2.18.39,7.19,7.19,0,0,1,3.71-.93,13.75,13.75,0,0,1,2.32.3l.63.11h0c.1,0,.46-.05.72-.08a18.15,18.15,0,0,1,2.17-.15,8.4,8.4,0,0,1,3.33.78,10.67,10.67,0,0,1,2.51-.36,8.93,8.93,0,0,1,3.14.62,8.75,8.75,0,0,1,2.7-.56,17.64,17.64,0,0,1,2,.05l.73,0,.27-.09a11.34,11.34,0,0,1,2.68-.6l.42-.12a11.88,11.88,0,0,1,2.57-.52,18.25,18.25,0,0,1,1.9-.05c.39,0,.76,0,1,0a12.46,12.46,0,0,1,2.5,0c.17,0,.33,0,.5,0A5.5,5.5,0,0,1,1002,26.08a11.77,11.77,0,0,1-2.63,0l-.54,0c-.71.07-1.43.07-2,.07H996l-.41.12a12.49,12.49,0,0,1-2.49.53l-.31.1a11.15,11.15,0,0,1-2.93.62,20.9,20.9,0,0,1-2.16,0l-.54,0-.06,0a9.67,9.67,0,0,1-3.35.77,8.27,8.27,0,0,1-3.45-.71,11.59,11.59,0,0,1-2.68.38A8.56,8.56,0,0,1,974,27l-.18,0a16.28,16.28,0,0,1-2.3.15,14.17,14.17,0,0,1-2.09-.23,7.46,7.46,0,0,1-4,1.07,10.36,10.36,0,0,1-3-.64,9.89,9.89,0,0,1-3.09.35,6.75,6.75,0,0,1-3.08-1,7,7,0,0,1-3,.44l-3-.25a7.32,7.32,0,0,1-3.53-1.33,8.79,8.79,0,0,1-2.36.11c-.15,0-.31,0-.46,0a11.61,11.61,0,0,1-2.69,0c-.15,0-.5,0-.79,0a15.42,15.42,0,0,1-2.26-.09A7.08,7.08,0,0,1,934.39,24a9.33,9.33,0,0,1-1.34.05A7.78,7.78,0,0,1,925.4,23a15.14,15.14,0,0,1-1.83-.6l-.39-.16c-.56-.09-1.1-.2-1.65-.3l-.38-.08a8.21,8.21,0,0,1-4,.4,7.52,7.52,0,0,1-2.56-1,7,7,0,0,1-3.47.26,14.88,14.88,0,0,1-2.2-.61c-.26-.08-.6-.2-.72-.22a8,8,0,0,1-3.32-1.54,11.3,11.3,0,0,1-2.21-.14l-.27,0a10.74,10.74,0,0,1-3.11-.13l-1.81-.39-1.14-.26c-.58-.12-1.15-.27-1.72-.41-.41-.11-.81-.21-1.22-.3a4.78,4.78,0,0,0-.57,0,13.64,13.64,0,0,1-2.46-.3,11.15,11.15,0,0,1-2.7-1.07l-.32-.16a10.29,10.29,0,0,1-2.78-1.27l-.13-.08-.67-.11c-.59-.09-1.25-.2-2-.38s-1.31-.38-1.85-.55c-.26-.09-.51-.18-.77-.25H879a10.36,10.36,0,0,1-3.12-.28,8.88,8.88,0,0,1-3-1.48l-.29.37c-.15.2-.35.47-.41.57a17.74,17.74,0,0,1-1.2,1.81c-.18.26-.37.5-.53.77l-.23.56a13.11,13.11,0,0,1-1.08,2.26c-.09.17-.16.37-.24.56a13.84,13.84,0,0,1-1.13,2.25,9.64,9.64,0,0,1-2.29,2.42l-.16.13A13.62,13.62,0,0,1,863.77,25c-.12.11-.24.22-.35.34s-.3.5-.45.76a19.75,19.75,0,0,1-1.12,1.81c-.51.71-1,1.42-1.55,2.12l-.1.14c0,.07-.05.15-.08.23a10.61,10.61,0,0,1-1.45,2.81,8,8,0,0,1-3.42,2.5l-.64.73-.17.18a8,8,0,0,1-1.64,3.72q-.37.46-.72.93c-.39.5-.77,1-1.18,1.48-.24.29-.47.59-.69.89-.4.51-.8,1-1.22,1.52a8.21,8.21,0,0,1-3.48,2.25c-.23.24-.47.47-.71.7l-.27.28a8.38,8.38,0,0,1-1.87,3.46c-.42.45-.87.88-1.32,1.32-.29.27-.58.55-.85.84-.44.45-.9.88-1.36,1.31-.27.25-.54.5-.8.76-.09.12-.18.26-.27.4a12,12,0,0,1-1.65,2.11,13.82,13.82,0,0,1-2,1.58,5.22,5.22,0,0,0-.48.34,10.8,10.8,0,0,1-2,1.5,8.1,8.1,0,0,1-2,3.07c-.44.41-.91.81-1.38,1.21-.31.26-.62.52-.92.79a13.8,13.8,0,0,1-2,1.46l-.54.36a8.13,8.13,0,0,1-2.8,1.59,8.42,8.42,0,0,1-1.86,2.32,8.3,8.3,0,0,1-2.74,1.52,8.3,8.3,0,0,1-2,2.39,13,13,0,0,1-2.19,1.4c-.17.09-.34.17-.49.27l-.47.49a15.86,15.86,0,0,1-1.53,1.45c-.07.09-.14.19-.22.28a10.87,10.87,0,0,1-2,2.13,8.46,8.46,0,0,1-3.62,1.52l-.37.29c-.48.38-1,.76-1.44,1.12s-1.18.8-1.68,1.11c-.3.18-.59.36-.87.56s-.27.26-.42.41c-.3.31-.69.7-1.17,1.11a8.51,8.51,0,0,1-2.6,3.11,15.76,15.76,0,0,1-2.09,1.17c-.22.11-.52.25-.61.31-.27.19-.53.41-.8.62a18.12,18.12,0,0,1-1.63,1.23,8.84,8.84,0,0,1-3.62,1.31h0c-.54.31-1,.54-1.48.74h0a8,8,0,0,1-2.64,2.84l-.85.53-1.74,1.09a13.06,13.06,0,0,1-2.4,1.09,4.34,4.34,0,0,0-.5.2,9.76,9.76,0,0,1-3,1.09l-.17,0c-.42.24-.84.46-1.26.69l-1,.55c-.13.1-.25.21-.37.32a12.67,12.67,0,0,1-2.14,1.56c-.31.17-.61.37-.91.57-.49.32-1.05.68-1.69,1a11.53,11.53,0,0,1-2.61,1l-.4.11c-.62.33-1.21.57-1.72.79l-.45.19a9,9,0,0,1-2.82,2.37,11.74,11.74,0,0,1-2.75.91l-.29.07-.35.25a14.28,14.28,0,0,1-1.76,1.14l-.12.12a9.58,9.58,0,0,1-2.74,2,8.63,8.63,0,0,1-3.19.74A8.87,8.87,0,0,1,746,120.3a12.41,12.41,0,0,1-2.53.76,4,4,0,0,0-.5.11,8.18,8.18,0,0,1-3.58.56,13.79,13.79,0,0,1-2.23,1.2l-2.42.94-.43.16a17.86,17.86,0,0,1-2.07.64l-.17,0a8.07,8.07,0,0,1-3.21,2.22,12.83,12.83,0,0,1-2.5.59,5.21,5.21,0,0,0-.57.1A5.54,5.54,0,0,1,724,127.92Zm19-6.78h0ZM754.13,116h0Zm10.78-18.22h0Zm8.36-4.39Zm4.67-2.49h0Zm33-10.41h0Zm6.87-19.77Zm8.53-8.1h0Zm19.82-5.85h0ZM987.41,27.28ZM932.21,24h0Zm-6-.86h0ZM865.53,23h0Zm57.75-.74h0ZM902.39,19h0ZM887.55,16h0Zm104.6-.24h0Zm8.68-.62Zm-55.48-.43h0Zm-.53,0Zm-11.14-1.64h0ZM890.12,5.32Z"/></g></g></svg>