<svg xmlns="http://www.w3.org/2000/svg" viewBox="0 0 1025.31 164.47"><defs><style>.cls-1,.cls-2{fill:#fcfbfb;}.cls-1{stroke:#fcfbfb;stroke-miterlimit:10;}</style></defs><g id="レイヤー_2" data-name="レイヤー 2"><g id="レイヤー_1-2" data-name="レイヤー 1"><g id="グループ_221" data-name="グループ 221"><g id="グループ_270" data-name="グループ 270"><g id="グループ_62" data-name="グループ 62"><g id="グループ_60" data-name="グループ 60"><path class="cls-1" d="M772.59,125.32h0Zm-4.88-6.06Zm0,0h0Zm19.49-10.32h0Zm30.52-20.77h0Zm31.39-17.94h0Zm8.57-21.3h0Zm18.74-12.86h0ZM985.75,25.32h0ZM911.9,22.66h0Zm-3.34-.85Zm-22.49-1.34h0Z"/></g></g><path class="cls-1" d="M1024.5,164H.5V141.84c.4-.28,1.37.13,4.09.26.86,0,1.86.15,2.29.22s.58.09,1.59.16a6.84,6.84,0,0,1,3.11,1.15l.34.22.8,0a18.77,18.77,0,0,1,2.28,0,6.75,6.75,0,0,0,.92-.05,13.87,13.87,0,0,1,2.41-.09c.58,0,1.15.1,1.74.16s1,.12,1.58.15a16.38,16.38,0,0,1,2.15.35,8.3,8.3,0,0,0,1.11.21c.24,0,.63,0,1-.05a16.58,16.58,0,0,1,2.3-.06c.11,0,.47-.07.74-.11a12.25,12.25,0,0,1,2.6-.2,12.84,12.84,0,0,1,2.37.45,8.86,8.86,0,0,0,.91.21l1.67.1,1.63.08a7,7,0,0,0,.81-.1,12.53,12.53,0,0,1,2.54-.18,8,8,0,0,1,3,.88c.15.07.32.15.44.19l3.12.2a14.88,14.88,0,0,1,2.15.32c.34.06.68.13.94.16l.42-.13a8.24,8.24,0,0,1,3.14-.52l1.64.12q.83.08,1.65.12a12.72,12.72,0,0,1,2.27.36,8.68,8.68,0,0,0,1,.19,10.55,10.55,0,0,1,2.45.47,7.71,7.71,0,0,0,.82.2l3.31.18a6.59,6.59,0,0,0,.93-.09,12.74,12.74,0,0,1,2.1-.16l.37-.14a7.72,7.72,0,0,1,3.32-.66,8.06,8.06,0,0,1,3.12.94l.25.12a3.34,3.34,0,0,0,.4-.1,10,10,0,0,1,2.83-.35,8.65,8.65,0,0,1,2.86.73l.52.19c.39,0,.81,0,1.27,0s1.24,0,1.93,0c.11,0,.47-.07.74-.13a10.4,10.4,0,0,1,2.61-.24,13,13,0,0,1,2.32.37,5.75,5.75,0,0,0,1,.19,8.55,8.55,0,0,0,1-.08,12.1,12.1,0,0,1,2.38-.15,7,7,0,0,1,3.12,1,6.76,6.76,0,0,1,3.52-.93,17,17,0,0,1,2.13.28,9,9,0,0,0,1.16.17l1.5,0c.6,0,1.22,0,1.82,0a7.67,7.67,0,0,1,3.24,1l.32.16c.41,0,.83,0,1.24,0l1.77.06c.37,0,.83,0,1.32,0s1.28-.06,2,0c.08,0,.42-.07.66-.12a10.06,10.06,0,0,1,2.68-.3,13.43,13.43,0,0,1,2.32.35,6.46,6.46,0,0,0,1,.18,10.21,10.21,0,0,1,2.65.55l.32.1.1,0a7.21,7.21,0,0,1,3.59-.94,10.63,10.63,0,0,1,2.57.5,6.7,6.7,0,0,0,.73.19,9.9,9.9,0,0,0,1.08-.07,14,14,0,0,1,2.23-.11,10.07,10.07,0,0,0,1.16-.05,16.33,16.33,0,0,1,2.17-.09,9.86,9.86,0,0,1,2.61.53l.7.19a8.93,8.93,0,0,1,2.77.63l.49.16a4.47,4.47,0,0,0,.54-.12,9.62,9.62,0,0,1,2.79-.38c.73,0,1.39.11,2,.19s.93.12,1.32.13L158,151a10.09,10.09,0,0,1,2.72-.34l1.8.12c.5,0,1,.08,1.51.1a7.8,7.8,0,0,1,3.14.89l.32.15.65-.1a10.81,10.81,0,0,1,2.39-.24c.12,0,.37-.09.55-.15A9.07,9.07,0,0,1,174,151a6.92,6.92,0,0,1,3.53,1.26l.19.11h1.09l1.44,0,.33-.14a7.89,7.89,0,0,1,3.35-.76l1.62,0,1.7,0,1.6.05,1.71,0a11.69,11.69,0,0,1,2.46.4,6.89,6.89,0,0,0,.84.19,13.8,13.8,0,0,1,2.33.32,6,6,0,0,0,.66.14l.24-.12a7.71,7.71,0,0,1,3.42-.83,9.79,9.79,0,0,1,2.7.54c.23.07.54.17.66.19h1.45c.6,0,1.2,0,1.8,0s.95,0,1.43,0,1.22,0,1.89,0a12.88,12.88,0,0,0,1.36,0c.59,0,1.26-.05,2,0a12.17,12.17,0,0,0,1.28-.06c.61,0,1.29-.08,2-.06s1.48.13,2.1.21a9.06,9.06,0,0,0,1.2.14c.68,0,1.31.08,1.91.14s1,.09,1.41.11,1,0,1.44,0,1.24,0,1.87,0a12.33,12.33,0,0,1,2.45.39,6.27,6.27,0,0,0,.85.17l1.69.06c.54,0,1.09,0,1.63.06a7.31,7.31,0,0,0,1.12-.09,16.08,16.08,0,0,1,2.2-.13c.42,0,.89,0,1.38,0s1.25-.06,1.94,0a7.93,7.93,0,0,1,3.18.87l.37.16,1.44.06,1.62.06a5.09,5.09,0,0,0,.78-.15,10.78,10.78,0,0,1,2.55-.28,11.92,11.92,0,0,1,2.45.36,6.58,6.58,0,0,0,.85.17,12.42,12.42,0,0,0,1.3-.06c.6,0,1.29-.09,2-.07a13.64,13.64,0,0,1,2.27.28,9.5,9.5,0,0,0,1,.14l1.64,0,1.32,0,.29-.15a7.53,7.53,0,0,1,3.42-.87,7.9,7.9,0,0,1,3.09.78l.4.16c.33,0,.69,0,1.09-.06.6,0,1.29-.09,2-.08l3.31.07a5,5,0,0,0,.74-.15,12,12,0,0,1,2.59-.32,9.71,9.71,0,0,0,1.24-.08c.61-.05,1.31-.12,2.09-.11s1.34.07,1.92.12,1,.09,1.39.1a7.86,7.86,0,0,1,3.17.83l.37.16,1.23,0c.61,0,1.23,0,1.84,0a8.47,8.47,0,0,0,1-.11,13.35,13.35,0,0,1,2.29-.2c.61,0,1.21,0,1.82.08s1,.06,1.5.07,1.1,0,1.64,0h1.67a5.75,5.75,0,0,0,1-.11,13.73,13.73,0,0,1,2.29-.18,12.86,12.86,0,0,1,2.29.27,7.72,7.72,0,0,0,1,.15c.59,0,1.19,0,1.78.07l1.35.05.44-.16a8.63,8.63,0,0,1,3.08-.65,14.35,14.35,0,0,1,2.14.21,9.84,9.84,0,0,0,1.16.11c.48,0,1,0,1.44,0s1.27-.05,1.89-.05,1.37.07,2,.13,1,.09,1.36.09a8.56,8.56,0,0,0,1.1-.1,15.72,15.72,0,0,1,2.22-.19c.72,0,1.41.08,2,.13a11.15,11.15,0,0,0,1.32.1,7.91,7.91,0,0,1,3.2.84l.13.05a.49.49,0,0,0,.17-.06,7.85,7.85,0,0,1,3.11-.7,11.34,11.34,0,0,1,2.57.39,5.17,5.17,0,0,0,.75.17,5.3,5.3,0,0,0,.9-.13,10.71,10.71,0,0,1,2.41-.28,14,14,0,0,1,2.31.26,7.63,7.63,0,0,0,1,.14c.27,0,.69,0,1.12-.12.64-.08,1.38-.15,2.19-.17a20.21,20.21,0,0,1,2,.13c.47.06.92.1,1.28.11h1.65c.55,0,1.11,0,1.66,0a8.09,8.09,0,0,0,1.15-.11,15.16,15.16,0,0,1,2.16-.17c.29,0,.67-.06,1.1-.12a15.47,15.47,0,0,1,2.21-.2,12.08,12.08,0,0,1,2.42.3,8.29,8.29,0,0,0,.9.15c.61,0,1.23,0,1.84.06l1.47.06a14.19,14.19,0,0,1,2.23.2,7.8,7.8,0,0,0,1.08.12c.34,0,.77,0,1.24-.09a18,18,0,0,1,2.08-.15h1.58l1.74,0a10.18,10.18,0,0,1,2.62.4l.72.17h2.79l.2-.12a7,7,0,0,1,3.61-1.16h0a7.37,7.37,0,0,1,3.33.9l.31.14c.39,0,.78,0,1.17,0,.61,0,1.22,0,1.83,0a17.77,17.77,0,0,1,2.07.15c.3,0,.59.06.86.07l.2-.1a7.1,7.1,0,0,1,3.49-1.05,9.65,9.65,0,0,1,2.76.47c.21.06.49.15.61.17a14.52,14.52,0,0,1,2.14.18c.44.06.84.1,1.12.11s.8-.05,1.26-.09a15.63,15.63,0,0,1,2.05-.15c.69,0,1.35,0,1.93.07s1,.06,1.38.06a15.55,15.55,0,0,1,2.18.16,9.37,9.37,0,0,0,1.14.11c.08,0,.42-.11.66-.17a10.45,10.45,0,0,1,2.66-.45,15.09,15.09,0,0,1,2.35.24,8.23,8.23,0,0,0,1,.13,8.07,8.07,0,0,0,1-.14,13.74,13.74,0,0,1,2.26-.24,9.7,9.7,0,0,0,1-.15,13.9,13.9,0,0,1,2.31-.28,14.37,14.37,0,0,1,2.49.3c.25,0,.59.12.76.14s.36-.12.53-.17a9.2,9.2,0,0,1,2.85-.58c.62,0,1.23,0,1.84,0s1,0,1.47,0a13.48,13.48,0,0,1,2.3.2,9.35,9.35,0,0,0,1,.12l1.74,0c.53,0,1,0,1.57,0s1.3,0,1.91,0,1,.05,1.41.05a8.78,8.78,0,0,1,2.84.48l.13,0a6.76,6.76,0,0,1,3.66-1.3,7.4,7.4,0,0,1,3.34.83.75.75,0,0,0,.13.06l.23-.09a8.78,8.78,0,0,1,2.93-.65,9,9,0,0,1,2.93.52c.17.06.38.13.51.16l.84-.15a13,13,0,0,1,2.36-.32,11.7,11.7,0,0,1,2.53.3,8,8,0,0,0,.8.13c.1,0,.43-.1.68-.17a10.27,10.27,0,0,1,2.61-.47c.69,0,1.35,0,1.93,0s1,0,1.4,0a10.15,10.15,0,0,1,2.62.33c.17,0,.38.09.54.11s.22-.1.32-.13a8.14,8.14,0,0,1,3.13-.84,10.55,10.55,0,0,0,1.16-.14,15.75,15.75,0,0,1,2.15-.23c.57,0,1.15,0,1.73,0h1.58a7.39,7.39,0,0,1,3.32.79,7.26,7.26,0,0,1,3.31-1,7.8,7.8,0,0,1,3.33.78l.13.06.17-.08a8.74,8.74,0,0,1,3-.75,8.85,8.85,0,0,1,2.95.51l.48.14.6-.17a10.56,10.56,0,0,1,2.6-.49c.49,0,1-.05,1.49-.09s1.21-.1,1.82-.12a6.68,6.68,0,0,0,1.06-.16,14.26,14.26,0,0,1,2.24-.29l1.57-.08,1.74-.09a14.8,14.8,0,0,1,2.2.12,8.36,8.36,0,0,0,1.13.07,18.9,18.9,0,0,1,2,.06c.47,0,.92.05,1.27.05l1.59-.09c.56,0,1.15-.07,1.72-.09.33,0,.76-.08,1.22-.15a16.55,16.55,0,0,1,2.09-.24c.48,0,1-.06,1.45-.11s1.23-.12,1.85-.14c.47,0,.95-.07,1.42-.12s1.22-.12,1.88-.14a10.66,10.66,0,0,1,2.59.26,7.57,7.57,0,0,0,.76.13,7.05,7.05,0,0,0,.86-.19,11.33,11.33,0,0,1,2.42-.41,7.38,7.38,0,0,1,3.33.75,7.3,7.3,0,0,1,3.29-1.1c.67,0,1.29,0,1.89,0s1,0,1.44,0a11.93,11.93,0,0,1,2.36.16,6.78,6.78,0,0,0,1,.08,14.21,14.21,0,0,1,2.26.12,9.74,9.74,0,0,0,1.07.07,17.57,17.57,0,0,1,2.1.05c.38,0,.75.05,1,0l.42-.17a8.15,8.15,0,0,1,3-.84l1.74-.07c.53,0,1.05,0,1.58-.05s1.07-.06,1.6-.1,1.13-.09,1.71-.12a7.93,7.93,0,0,1,3.11.54l.44.13c.32,0,.69-.08,1.07-.14a18.66,18.66,0,0,1,2-.25c.73,0,1.41,0,2,0s.94,0,1.31,0,.77-.1,1.23-.17a16.5,16.5,0,0,1,2.06-.26c.33,0,.74-.1,1.19-.18a15,15,0,0,1,2.12-.28,10.19,10.19,0,0,1,2.76.31,4,4,0,0,0,.64.13l1.47-.12,1.77-.15a6.65,6.65,0,0,0,.71-.19,9.9,9.9,0,0,1,2.56-.55c.51,0,1-.09,1.53-.14s1.18-.11,1.77-.15,1.29,0,1.88,0,1,0,1.43,0c.73,0,1.41,0,2,0s.94,0,1.32,0l.67-.21a10.52,10.52,0,0,1,2.6-.57,10.38,10.38,0,0,1,2.57.2l.78.1a12.27,12.27,0,0,1,2.45.13,8.15,8.15,0,0,0,.84.1l.57-.21a9.67,9.67,0,0,1,2.73-.68,9.17,9.17,0,0,0,.95-.21,13.68,13.68,0,0,1,2.32-.42c.5,0,1-.09,1.51-.15l1.8-.17a18.72,18.72,0,0,1,2.14,0,9.93,9.93,0,0,0,1.18,0l1.63-.11,1.67-.11c.52,0,1.06-.09,1.58-.15s1.14-.12,1.72-.16l1.64-.15,1.66-.15a17.42,17.42,0,0,1,2.18,0,9.49,9.49,0,0,0,1.15,0c.6,0,1.19-.08,1.78-.11s1,0,1.53-.08l.66-.21a9.82,9.82,0,0,1,2.58-.63,7.25,7.25,0,0,1,3.42.66,7.33,7.33,0,0,1,3.18-1.16,10.32,10.32,0,0,0,1.12-.22,15.64,15.64,0,0,1,2.15-.37c.57-.06,1.16-.09,1.72-.13s1-.06,1.58-.11a10.89,10.89,0,0,1,2.5.1,6.85,6.85,0,0,0,.85.08c.61-.06,1.22-.09,1.84-.11l1.47-.09c.72-.07,1.4-.07,2-.07.43,0,.84,0,1.19,0l.47-.21a8.8,8.8,0,0,1,2.87-.87c.6-.06,1.22-.09,1.84-.11s1,0,1.46-.09.8-.13,1.26-.21,1.27-.25,2-.33a11.77,11.77,0,0,1,2.42,0,7,7,0,0,0,.93.05,8.15,8.15,0,0,1,3.23.43l.39.12.81-.2a13.58,13.58,0,0,1,2.23-.46c.07,0,.39-.14.62-.23a10,10,0,0,1,2.59-.69c.34,0,.75-.14,1.21-.23a20.55,20.55,0,0,1,2-.38,8.86,8.86,0,0,1,3,.3l.47.1c.15,0,.39-.14.58-.21a10.5,10.5,0,0,1,2.54-.68c.71-.08,1.37-.1,2-.12s1,0,1.36-.08a11.41,11.41,0,0,1,2.54.07c.24,0,.55.06.72.06l.45-.2a8.7,8.7,0,0,1,2.82-.92c.7-.08,1.37-.11,2-.12s1,0,1.36-.09c.11,0,.45-.15.69-.25a10.61,10.61,0,0,1,2.51-.68,7.15,7.15,0,0,1,3.81.77l.12-.06a9.25,9.25,0,0,1,2.72-.87c.76-.09,1.46-.11,2.08-.13a11.24,11.24,0,0,0,1.25-.06l.56-.24a8.45,8.45,0,0,1,5.36-.7l.7.08a19.25,19.25,0,0,1,1.94-.14c.49,0,.94,0,1.32-.09l2-.27,1.3-.18c.73-.1,1.41-.13,2-.16a11.88,11.88,0,0,0,1.29-.08c.35-.05.77-.16,1.22-.26a17.71,17.71,0,0,1,2-.43c.33,0,.75-.16,1.2-.26a19.29,19.29,0,0,1,2-.45l1.67-.22,1.61-.21a12.42,12.42,0,0,1,2.39-.07,7.38,7.38,0,0,0,.95,0,8.25,8.25,0,0,0,1-.27,13,13,0,0,1,2.21-.57,15.85,15.85,0,0,1,2.18-.14c.37,0,.73,0,1,0l.44-.23a8.52,8.52,0,0,1,2.82-1,8.09,8.09,0,0,0,.83-.28A12,12,0,0,1,789,130c.57-.09,1.14-.17,1.72-.24s1-.13,1.55-.21l1.72-.25c.52-.06,1-.13,1.55-.22a20.12,20.12,0,0,1,2-.19c.46,0,.91-.06,1.25-.12a8.63,8.63,0,0,1,3,.12l.53.08,2.74-.46.22-.17a7.31,7.31,0,0,1,3.17-1.52,9,9,0,0,1,2.81,0c.22,0,.51,0,.64,0a10.21,10.21,0,0,1,2.56-.06c.27,0,.64,0,.77,0l1.38-.31c.6-.14,1.21-.29,1.82-.4l1.6-.26c.55-.09,1.09-.17,1.64-.28l.52-.26a10,10,0,0,1,2.56-1c.67-.13,1.28-.21,1.88-.29s.94-.12,1.4-.21a10,10,0,0,1,2.61-.12H831a7,7,0,0,1,3.32-1.89,10.69,10.69,0,0,1,2.49-.16,5.19,5.19,0,0,0,.85,0,13.93,13.93,0,0,1,2.33-.21,9.88,9.88,0,0,0,1-.07c.73-.15,1.42-.22,2-.29.44,0,.86-.08,1.19-.14l.53-.29a9.19,9.19,0,0,1,2.58-1,9.84,9.84,0,0,1,2.67-.16,6.37,6.37,0,0,0,.74,0c.26-.07.67-.2,1.1-.35a18.69,18.69,0,0,1,2-.6,13.15,13.15,0,0,1,2.29-.27,7.36,7.36,0,0,0,1-.09,8,8,0,0,0,.91-.34,13.56,13.56,0,0,1,2.2-.77,10.72,10.72,0,0,1,2.5-.23l.63,0,.25-.18a6.89,6.89,0,0,1,6.19-1.46h.06a7.46,7.46,0,0,1,3-1.66,9.26,9.26,0,0,1,2.7-.24c.25,0,.59,0,.72,0,.4-.11.86-.23,1.33-.34l1.58-.4.33-.25a8.17,8.17,0,0,1,2.78-1.47,10,10,0,0,1,2.77-.25,4.81,4.81,0,0,0,.66,0,12.37,12.37,0,0,1,2.32-.34,7.49,7.49,0,0,0,.9-.09,17,17,0,0,1,1.92-.43,12.91,12.91,0,0,0,1.3-.29c.46-.12.92-.29,1.37-.44s1-.36,1.55-.52l.36-.26a8,8,0,0,1,2.68-1.48l1.18-.35,1.95-.58c.49-.15,1-.32,1.48-.5s1.07-.37,1.61-.53a8.6,8.6,0,0,1,3-.28h.51c.27-.1.6-.25.94-.41a19.61,19.61,0,0,1,1.92-.77c.32-.11.71-.29,1.13-.48s1.17-.52,1.87-.76a12.65,12.65,0,0,1,2.29-.49c.36-.06.78-.11,1-.17l1.31-.52c.53-.23,1.09-.47,1.71-.68a10.36,10.36,0,0,0,1.11-.49,18.5,18.5,0,0,1,1.85-.81,6.45,6.45,0,0,0,.91-.46,13,13,0,0,1,2-1,17.06,17.06,0,0,1,2.07-.58,8.23,8.23,0,0,0,1.1-.28A9,9,0,0,1,932,96.1a6.38,6.38,0,0,1,2.84-2.42,15.2,15.2,0,0,1,2.09-.62,8.15,8.15,0,0,0,1.06-.3,10.86,10.86,0,0,1,2.5-.61l.62-.1.27-.26a8.73,8.73,0,0,1,2.45-1.71,9.49,9.49,0,0,1,2.69-.63,6.25,6.25,0,0,0,.64-.1,9.93,9.93,0,0,1,2.59-.63c.11,0,.24,0,.35-.06l0-.06a7.18,7.18,0,0,1,2.61-2.2c.36-.17.76-.39,1.18-.64s1-.59,1.61-.87a7.66,7.66,0,0,1,3.36-.64h.18a1.1,1.1,0,0,1,.16-.15,9,9,0,0,1,2.22-1.71,8.08,8.08,0,0,0,.67-.5,11.86,11.86,0,0,1,1.93-1.33,14,14,0,0,1,2.1-.85,6.19,6.19,0,0,0,.91-.33,8.86,8.86,0,0,1,2.79-.87l.33-.07.1-.13a7.85,7.85,0,0,1,2.25-2.1c.51-.3,1-.63,1.54-1s.76-.48,1.15-.71a17.26,17.26,0,0,1,1.75-.9c.41-.2.8-.39,1.07-.56.48-.3,1-.57,1.47-.86l1.19-.68c.08-.09.24-.27.35-.41A9.1,9.1,0,0,1,983,69.27a7.17,7.17,0,0,1,3.53-1.08l.27,0,.55-.39c.34-.23.69-.48,1-.72a6.49,6.49,0,0,1,2.1-3.28c.41-.32.81-.67,1.21-1s.75-.65,1.14-1a7.27,7.27,0,0,1,3.08-1.35A6.89,6.89,0,0,1,997.57,58c.4-.36.81-.7,1.21-1s.8-.65,1.12-1l.27-.26c.63-.61,1.28-1.22,1.9-1.84a10.16,10.16,0,0,1,2.14-1.55,4,4,0,0,0,.41-.24c0-.1.11-.22.15-.32a8.7,8.7,0,0,1,1.38-2.27A12.4,12.4,0,0,1,1007.7,48c.26-.22.57-.48.69-.61a11.08,11.08,0,0,1,1.68-1.6l.24-.19c.09-.79,1.69-.9,2.52-2.08a13.83,13.83,0,0,1,1.38-1.59,6.93,6.93,0,0,0,.58-.63,16,16,0,0,1,1.37-2.42,3.83,3.83,0,0,0,.4-.35c.31-.5,1.35-2.56,1.63-3a7.88,7.88,0,0,0,.67-1c1-1.9,2.34-2.3,2.92-2.87,1.07-1,1.6-3.88,2.72-3.87C1024.47,28,1024.5,164,1024.5,164Z"/></g></g><path class="cls-2" d="M729.63,127.92a5.51,5.51,0,0,1-1.74-10.72,13,13,0,0,1,2.26-.53,8,8,0,0,1,3-2.07c.71-.26,1.38-.44,1.92-.58.34-.09.7-.18.89-.25l.44-.17,2.28-.89a4.62,4.62,0,0,0,.41-.27,13,13,0,0,1,2.17-1.17,8.52,8.52,0,0,1,3.86-.54,15.76,15.76,0,0,1,1.65-.43l.15,0a9.67,9.67,0,0,1,2.66-1.87,8.45,8.45,0,0,1,3.07-.7,9,9,0,0,1,2.32-1.65c.1-.06.26-.19.42-.3a13.36,13.36,0,0,1,2.06-1.3,10.75,10.75,0,0,1,2.5-.84,8.71,8.71,0,0,1,2.58-2.11c.61-.32,1.19-.56,1.69-.78s.73-.31,1-.44a11.52,11.52,0,0,1,2.53-1l.39-.1.83-.53c.49-.32,1-.63,1.48-.91.13-.1.25-.21.37-.32A12.5,12.5,0,0,1,772.88,96c.45-.26.91-.5,1.37-.75s.81-.42,1.2-.66a10.36,10.36,0,0,1,3.07-1.1l.18,0a13.52,13.52,0,0,1,1.94-.84l.47-.17,1.56-1,.13-.07a8.17,8.17,0,0,1,2.66-2.94,17.23,17.23,0,0,1,2-1c.23-.1.55-.25.65-.31a8.91,8.91,0,0,1,3.41-1.25l.35-.28c.44-.35.93-.75,1.52-1.15a15.44,15.44,0,0,1,2-1.12h0a8,8,0,0,1,2.4-2.8c.13-.11.27-.27.41-.41A13.69,13.69,0,0,1,800,78.45c.56-.41,1.1-.74,1.57-1,.3-.19.61-.37.89-.58s.78-.59,1.15-.89.78-.62,1.17-.91A8,8,0,0,1,808,73.63a10.8,10.8,0,0,1,1.76-1.81c.09-.08.35-.34.53-.53a15.12,15.12,0,0,1,1.6-1.51A13.29,13.29,0,0,1,814,68.43h0a8.71,8.71,0,0,1,2.09-2.72,8.32,8.32,0,0,1,2.72-1.48A8.86,8.86,0,0,1,820.6,62,9,9,0,0,1,824,60.21c.48-.37.94-.66,1.32-.91l.54-.36c.37-.34.78-.69,1.19-1l.42-.36a8.13,8.13,0,0,1,2-3.27,11.53,11.53,0,0,1,2.26-1.62,3.37,3.37,0,0,0,.32-.19,15.08,15.08,0,0,1,1.79-1.38l.4-.28.24-.35a12.92,12.92,0,0,1,1.57-2c.39-.39.8-.77,1.2-1.15s.63-.57.92-.88.76-.76,1.15-1.14l.39-.37a8.3,8.3,0,0,1,1.8-3.38c.38-.42.79-.82,1.19-1.22s.58-.57.85-.87a8.21,8.21,0,0,1,3.29-2.14c.08-.09.15-.19.23-.29.34-.45.69-.9,1.06-1.34s.55-.69.82-1l.38-.5a8.18,8.18,0,0,1,1.59-3.72c.37-.45.75-.88,1.14-1.31s.53-.58.77-.89A7.66,7.66,0,0,1,855.64,26a9,9,0,0,1,1.15-2.11l.26-.37c.49-.66,1-1.32,1.45-2,.14-.2.33-.53.52-.87.28-.49.59-1,1-1.62a13,13,0,0,1,1.7-1.93c.11-.11.23-.21.33-.33a10.18,10.18,0,0,1,2.17-2.22l0,0,.13-.3a13.49,13.49,0,0,1,1-2.08l.23-.56a14.36,14.36,0,0,1,1-2.1c.37-.63.77-1.17,1.08-1.61s.43-.6.54-.79a15.15,15.15,0,0,1,1.26-1.84c.15-.2.35-.46.41-.56,2-3.65,5.45-5.41,8.87-4.46.37.11.75.18,1.12.26.59.12,1.17.24,1.75.4a8.93,8.93,0,0,1,2.86,1.42,10,10,0,0,1,2.8.27c.58.15,1.16.34,1.74.53.36.12.71.24,1.08.33s.62.12,1,.19c.56.08,1.19.18,1.89.35a10,10,0,0,1,2.92,1.31l.18.11a11.14,11.14,0,0,1,2.27,1l.24.13.44,0a13.76,13.76,0,0,1,2.4.29c.51.11,1,.24,1.52.37s.9.23,1.35.33l1.18.26,1.42.31.23,0a10.31,10.31,0,0,1,2.93.09h.41a11.87,11.87,0,0,1,2.71.17,8.37,8.37,0,0,1,3.58,1.77c.34.09.65.19.93.28a7.39,7.39,0,0,1,4.21-.56,7.62,7.62,0,0,1,2.8,1.15,7.46,7.46,0,0,1,3-.14q.81.13,1.59.3c.44.09.87.18,1.31.25a11.71,11.71,0,0,1,2.58.76l.4.15a7.92,7.92,0,0,1,2.69,1,8.1,8.1,0,0,1,2.72-.23l.29-.05a10.66,10.66,0,0,1,3-.09,7.3,7.3,0,0,1,3.88,1.83c.51,0,1.09,0,1.72.07.15,0,.31,0,.46,0a12.68,12.68,0,0,1,2.24-.08l.21,0a10.13,10.13,0,0,1,3.16-.25A7.74,7.74,0,0,1,957.89,16l.59.05A7.49,7.49,0,0,1,962.74,15a7.14,7.14,0,0,1,3.7,1.41,8.62,8.62,0,0,1,2.11-.15,9.07,9.07,0,0,1,2.18.39,7.21,7.21,0,0,1,3.71-.93,13.75,13.75,0,0,1,2.32.3l.63.11h0c.1,0,.46-.05.72-.08a18.31,18.31,0,0,1,2.17-.15,8.4,8.4,0,0,1,3.33.78,10.67,10.67,0,0,1,2.51-.36,8.93,8.93,0,0,1,3.14.62,8.82,8.82,0,0,1,2.71-.56,17.53,17.53,0,0,1,2,.05l.73,0,.27-.09a11.46,11.46,0,0,1,2.68-.6l.42-.12a11.88,11.88,0,0,1,2.57-.52,18.37,18.37,0,0,1,1.91-.05c.39,0,.75,0,1,0a12.44,12.44,0,0,1,2.5,0c.17,0,.33,0,.5,0a5.5,5.5,0,0,1,1.13,10.94,11.77,11.77,0,0,1-2.63,0l-.54,0c-.71.07-1.43.07-2,.07h-.88l-.41.12a12.37,12.37,0,0,1-2.48.53l-.32.1a11.15,11.15,0,0,1-2.93.62,20.9,20.9,0,0,1-2.16,0l-.54,0-.06,0a9.67,9.67,0,0,1-3.35.77,8.31,8.31,0,0,1-3.45-.71,11.57,11.57,0,0,1-2.67.38A8.57,8.57,0,0,1,979.6,27l-.17,0a16.54,16.54,0,0,1-2.31.15,13.86,13.86,0,0,1-2.08-.23A7.51,7.51,0,0,1,971,28a10.36,10.36,0,0,1-3-.64,9.89,9.89,0,0,1-3.09.35,6.75,6.75,0,0,1-3.08-1,7,7,0,0,1-3,.44l-3-.25a7.32,7.32,0,0,1-3.53-1.33,8.77,8.77,0,0,1-2.36.11c-.15,0-.31,0-.46,0a11.61,11.61,0,0,1-2.69,0c-.14,0-.5,0-.79,0a15.42,15.42,0,0,1-2.26-.09A7,7,0,0,1,940,24a9.46,9.46,0,0,1-1.34.05A7.8,7.8,0,0,1,931,23a15.14,15.14,0,0,1-1.83-.6l-.39-.16c-.56-.09-1.1-.2-1.64-.3l-.39-.08a8.19,8.19,0,0,1-4,.4,7.52,7.52,0,0,1-2.56-1,7,7,0,0,1-3.47.26,15.24,15.24,0,0,1-2.2-.61c-.25-.08-.6-.2-.72-.22a8.09,8.09,0,0,1-3.32-1.54A11.3,11.3,0,0,1,908.3,19L908,19a10.67,10.67,0,0,1-3.1-.13l-1.82-.39L902,18.25c-.58-.12-1.15-.27-1.72-.41-.41-.11-.81-.21-1.22-.3a4.78,4.78,0,0,0-.57,0,13.64,13.64,0,0,1-2.46-.3,11.32,11.32,0,0,1-2.7-1.07L893,16a10.21,10.21,0,0,1-2.77-1.27l-.14-.08-.67-.11c-.59-.09-1.25-.2-2-.38s-1.3-.38-1.85-.55c-.26-.09-.51-.18-.77-.25h-.22a10.36,10.36,0,0,1-3.12-.28,8.88,8.88,0,0,1-3-1.48l-.29.37c-.15.2-.35.47-.41.57a17.74,17.74,0,0,1-1.2,1.81c-.18.26-.37.5-.53.77,0,.07-.14.36-.23.56a13.11,13.11,0,0,1-1.08,2.26c-.09.17-.16.37-.24.56a14.53,14.53,0,0,1-1.12,2.25,9.65,9.65,0,0,1-2.3,2.42l-.16.13A13.62,13.62,0,0,1,869.38,25a3.64,3.64,0,0,0-.34.34c-.17.24-.31.5-.46.76a19.75,19.75,0,0,1-1.12,1.81c-.51.71-1,1.42-1.55,2.12l-.1.14c0,.07,0,.15-.08.23a10.31,10.31,0,0,1-1.45,2.81,8,8,0,0,1-3.42,2.5l-.64.73-.17.18a8.11,8.11,0,0,1-1.63,3.72c-.26.31-.49.62-.73.93-.39.5-.77,1-1.18,1.48-.24.29-.47.59-.69.89-.4.51-.8,1-1.22,1.52a8.21,8.21,0,0,1-3.48,2.25l-.7.7-.28.28a8.26,8.26,0,0,1-1.87,3.46c-.42.45-.87.88-1.32,1.32-.29.27-.57.55-.85.84-.44.45-.9.88-1.36,1.31-.27.25-.54.5-.8.76-.09.12-.18.26-.27.4A12,12,0,0,1,842,58.6a13.3,13.3,0,0,1-2,1.58,5.22,5.22,0,0,0-.48.34,10.8,10.8,0,0,1-2,1.5,7.86,7.86,0,0,1-2,3.07c-.44.41-.91.81-1.38,1.21-.31.26-.62.52-.92.79a13.26,13.26,0,0,1-2,1.46l-.54.36a8.19,8.19,0,0,1-2.79,1.59A8.67,8.67,0,0,1,826,72.82a8.3,8.3,0,0,1-2.74,1.52,8.3,8.3,0,0,1-1.95,2.39,13,13,0,0,1-2.19,1.4c-.16.09-.33.17-.49.27l-.47.49a15.86,15.86,0,0,1-1.53,1.45l-.21.28a11.29,11.29,0,0,1-2,2.13,8.41,8.41,0,0,1-3.62,1.52l-.37.29c-.47.38-1,.76-1.44,1.12s-1.18.8-1.68,1.11c-.3.18-.59.36-.87.56a5.28,5.28,0,0,0-.41.41c-.31.31-.7.7-1.18,1.11a8.51,8.51,0,0,1-2.6,3.11,14.6,14.6,0,0,1-2.09,1.17c-.22.11-.52.25-.61.31-.27.19-.53.41-.79.62a20,20,0,0,1-1.64,1.23,8.79,8.79,0,0,1-3.62,1.31h0c-.54.31-1,.54-1.47.74h0a8,8,0,0,1-2.64,2.84l-.85.53-1.74,1.09a13.33,13.33,0,0,1-2.39,1.09,3.86,3.86,0,0,0-.51.2,9.76,9.76,0,0,1-3,1.09l-.17,0c-.42.24-.84.46-1.26.69s-.68.36-1,.55a4,4,0,0,0-.38.32,12.27,12.27,0,0,1-2.14,1.56c-.31.17-.61.37-.91.57-.49.32-1,.68-1.69,1a11.53,11.53,0,0,1-2.61,1l-.4.11c-.62.33-1.2.57-1.72.79l-.45.19a8.85,8.85,0,0,1-2.82,2.37,11.6,11.6,0,0,1-2.75.91l-.29.07-.35.25a13.55,13.55,0,0,1-1.76,1.14l-.12.12a9.58,9.58,0,0,1-2.74,2,8.63,8.63,0,0,1-3.18.74,9.09,9.09,0,0,1-2.47,1.65,12.23,12.23,0,0,1-2.53.76,4,4,0,0,0-.5.11,8.18,8.18,0,0,1-3.58.56,13.38,13.38,0,0,1-2.23,1.2l-2.42.94-.43.16a17.86,17.86,0,0,1-2.07.64l-.17,0a8.07,8.07,0,0,1-3.21,2.22,12.83,12.83,0,0,1-2.5.59,5.21,5.21,0,0,0-.57.1A5.54,5.54,0,0,1,729.63,127.92Zm19-6.78h0ZM759.74,116h0Zm10.78-18.22h0Zm8.36-4.39Zm4.67-2.49h0Zm33-10.41h0Zm6.87-19.77Zm8.53-8.1h0Zm19.83-5.85h0ZM993,27.28ZM937.82,24h0Zm-6-.86h0ZM871.15,23h0Zm57.74-.74h0ZM908,19h0ZM893.16,16h0Zm104.6-.24h0Zm8.68-.62ZM951,14.72h0Zm-.53,0Zm-11.14-1.64h0ZM895.73,5.32Z"/></g></g></svg>