<svg xmlns="http://www.w3.org/2000/svg" viewBox="0 0 2001.31 315.14"><defs><style>.cls-1,.cls-2{fill:#fcfbfb;}.cls-1{stroke:#fcfbfb;stroke-miterlimit:10;}</style></defs><g id="レイヤー_2" data-name="レイヤー 2"><g id="レイヤー_1-2" data-name="レイヤー 1"><g id="グループ_221" data-name="グループ 221"><g id="グループ_270" data-name="グループ 270"><g id="グループ_62" data-name="グループ 62"><g id="グループ_60" data-name="グループ 60"><path class="cls-1" d="M1508.48,239.15h0ZM1499,227.3h0Zm0,0h0Zm38.07-20.16-.06,0Zm41.63-8.94h0Zm18-31.62v0Zm36.84-31.75h0Zm24.47-3.29h0Zm16.73-41.6h0Zm270.61-31.51h0Zm-234,6.39v0Zm213.51-21s0,0,0,0S1924.81,43.84,1924.81,43.83Zm-144.24-5.19h0ZM1774.05,37h0Zm-43.92-2.6h0Z"/></g></g><path class="cls-1" d="M2000.5,314.64H.5V271.42c.78-.54,2.67.25,8,.5,1.68.08,3.65.29,4.49.43a29.21,29.21,0,0,0,3.09.31,13.39,13.39,0,0,1,6.08,2.26l.67.42c.45,0,1,0,1.56-.06a36.06,36.06,0,0,1,4.46,0,15,15,0,0,0,1.79-.11,28.59,28.59,0,0,1,4.71-.17c1.12.08,2.24.2,3.4.32,1,.11,2,.23,3.07.29a27.2,27.2,0,0,1,4.21.69,16.92,16.92,0,0,0,2.17.4,17.94,17.94,0,0,0,2-.09,30.23,30.23,0,0,1,4.5-.13c.22,0,.92-.12,1.44-.21a23.62,23.62,0,0,1,5.08-.38,23.19,23.19,0,0,1,4.63.87,14.6,14.6,0,0,0,1.77.41l3.28.19c1,0,2.1.1,3.18.17.26,0,1-.11,1.57-.2a24.64,24.64,0,0,1,5-.37,15.79,15.79,0,0,1,5.87,1.74c.28.13.62.28.85.37l6.09.38a28.5,28.5,0,0,1,4.21.63c.67.12,1.32.26,1.84.32a8.48,8.48,0,0,0,.82-.26,15.75,15.75,0,0,1,6.13-1c1,.06,2.13.16,3.21.23s2.13.17,3.22.23a25.08,25.08,0,0,1,4.42.71,14.48,14.48,0,0,0,2,.36,21.33,21.33,0,0,1,4.79.92,11.93,11.93,0,0,0,1.61.38l6.47.36a12.44,12.44,0,0,0,1.81-.17,25.48,25.48,0,0,1,4.1-.31c.22-.07.51-.18.72-.27a15.15,15.15,0,0,1,6.49-1.29,15.4,15.4,0,0,1,6.08,1.84l.49.23c.25-.05.54-.12.78-.19a19.18,19.18,0,0,1,5.54-.7,16.94,16.94,0,0,1,5.59,1.44l1,.37c.76,0,1.59,0,2.48,0,1.15,0,2.43-.06,3.78,0,.21,0,.92-.14,1.44-.25a20,20,0,0,1,5.1-.47,25.07,25.07,0,0,1,4.54.73,11.54,11.54,0,0,0,1.89.37,14.7,14.7,0,0,0,1.85-.17,25.59,25.59,0,0,1,4.65-.3,14,14,0,0,1,6.1,2,12.91,12.91,0,0,1,6.87-1.81,34.23,34.23,0,0,1,4.15.54c.86.15,1.67.3,2.27.34,1,0,1.95,0,2.93.06,1.18,0,2.38,0,3.56.07a14.91,14.91,0,0,1,6.33,2l.62.32,2.43.06c1.15,0,2.3.06,3.45.11.73,0,1.62,0,2.57,0,1.18-.05,2.51-.11,3.92-.05a11.09,11.09,0,0,0,1.28-.24,19.75,19.75,0,0,1,5.24-.58,24.65,24.65,0,0,1,4.53.69,17.09,17.09,0,0,0,1.9.35,19.6,19.6,0,0,1,5.17,1.07c.2.08.43.14.63.2l.19-.08a14.08,14.08,0,0,1,7-1.84,20.55,20.55,0,0,1,5,1,12.73,12.73,0,0,0,1.41.36,16.66,16.66,0,0,0,2.12-.13,27.91,27.91,0,0,1,4.36-.21,22.06,22.06,0,0,0,2.26-.11,34.69,34.69,0,0,1,4.23-.17,19.57,19.57,0,0,1,5.11,1c.48.14,1.14.34,1.37.37a17.72,17.72,0,0,1,5.4,1.24l1,.32c.28,0,.72-.15,1.06-.25a18.45,18.45,0,0,1,5.45-.73c1.41.06,2.71.21,3.87.37.94.12,1.83.23,2.58.26l1.22-.28a19,19,0,0,1,5.31-.66c1.18,0,2.35.14,3.51.23,1,.08,2,.16,2.95.19a15.37,15.37,0,0,1,6.14,1.74l.63.29c.37,0,.87-.14,1.27-.2a21.32,21.32,0,0,1,4.66-.46c.24-.06.72-.18,1.07-.29a17.72,17.72,0,0,1,5.68-.88,13.66,13.66,0,0,1,6.9,2.45l.37.22c.72,0,1.42,0,2.14,0,.94,0,1.87,0,2.81,0l.65-.28a15.24,15.24,0,0,1,6.53-1.48c1.07,0,2.12.06,3.16.07l3.33.09,3.12.08,3.35.09a23,23,0,0,1,4.79.77,11.5,11.5,0,0,0,1.64.37,27.13,27.13,0,0,1,4.55.63,11.94,11.94,0,0,0,1.29.27,3.38,3.38,0,0,0,.47-.22,15,15,0,0,1,6.68-1.63,19.47,19.47,0,0,1,5.28,1,12.29,12.29,0,0,0,1.28.37h2.85c1.16,0,2.33,0,3.51,0,.93.05,1.86,0,2.78,0,1.18,0,2.39-.07,3.71,0,.78,0,1.68,0,2.65-.06,1.15,0,2.46-.1,3.84-.06.7,0,1.58,0,2.5-.11,1.19-.07,2.52-.16,4-.12a40.17,40.17,0,0,1,4.11.41,18.86,18.86,0,0,0,2.35.28c1.33.05,2.55.15,3.72.26,1,.09,1.91.18,2.75.22s1.87,0,2.82,0c1.22,0,2.43-.07,3.66,0a24.26,24.26,0,0,1,4.77.75,14.06,14.06,0,0,0,1.67.34c1.11,0,2.21.08,3.3.12s2.12.08,3.18.11a15,15,0,0,0,2.19-.17,30.64,30.64,0,0,1,4.3-.26c.81,0,1.73,0,2.7-.06,1.14-.05,2.43-.12,3.79-.08a15.52,15.52,0,0,1,6.2,1.7l.72.32,2.82.11,3.17.11a10.51,10.51,0,0,0,1.51-.28,21.73,21.73,0,0,1,5-.56,22.06,22.06,0,0,1,4.79.72,15.43,15.43,0,0,0,1.67.33c.72,0,1.61,0,2.53-.12,1.18-.08,2.52-.17,3.95-.14a24.93,24.93,0,0,1,4.42.54,19,19,0,0,0,2.05.29l3.19.05,2.58,0,.56-.28a14.79,14.79,0,0,1,6.69-1.71,15.49,15.49,0,0,1,6,1.53c.25.1.55.24.78.32.63,0,1.35-.06,2.12-.12,1.18-.08,2.52-.19,4-.16l6.48.14c.21,0,.92-.17,1.44-.29a21.83,21.83,0,0,1,5.06-.63,22.32,22.32,0,0,0,2.41-.15,35.66,35.66,0,0,1,4.09-.22c1.33,0,2.61.14,3.75.23,1,.1,1.89.17,2.71.19a15.61,15.61,0,0,1,6.2,1.62l.72.32,2.4,0c1.19-.05,2.4-.08,3.6-.06a16,16,0,0,0,2-.22,27,27,0,0,1,4.49-.38c1.19,0,2.36.07,3.54.15,1,.06,2,.12,2.93.14h6.47a10.2,10.2,0,0,0,2.06-.21,28.37,28.37,0,0,1,4.47-.35,26.63,26.63,0,0,1,4.47.53,14.06,14.06,0,0,0,2,.29c1.17,0,2.33.07,3.49.13.88,0,1.75.08,2.64.1.23-.07.58-.21.85-.3a16.79,16.79,0,0,1,6-1.27,27.74,27.74,0,0,1,4.19.4,18.68,18.68,0,0,0,2.27.23c.93,0,1.86,0,2.81-.08,1.23,0,2.47-.08,3.69-.08,1.37,0,2.67.14,3.81.25,1,.08,1.87.17,2.65.18a16.72,16.72,0,0,0,2.15-.21,31.8,31.8,0,0,1,4.34-.36c1.41,0,2.75.16,3.91.26a25.57,25.57,0,0,0,2.56.19,15.12,15.12,0,0,1,6.26,1.64l.26.1a1.61,1.61,0,0,0,.33-.12,15.35,15.35,0,0,1,6.07-1.36,21.27,21.27,0,0,1,5,.76,12.35,12.35,0,0,0,1.47.33,11.39,11.39,0,0,0,1.76-.26,20.47,20.47,0,0,1,4.7-.54,26.15,26.15,0,0,1,4.52.5,14,14,0,0,0,2,.27c.52-.05,1.35-.1,2.19-.22a36.63,36.63,0,0,1,4.27-.34,38.35,38.35,0,0,1,4,.26c.92.11,1.79.19,2.5.2l3.23,0c1.07,0,2.16,0,3.23,0a15.24,15.24,0,0,0,2.25-.21,29,29,0,0,1,4.22-.34c.57-.05,1.32-.11,2.15-.23a31.12,31.12,0,0,1,4.31-.38,23.31,23.31,0,0,1,4.74.58,15,15,0,0,0,1.76.29c1.19,0,2.4.06,3.59.12,1,0,1.92.09,2.87.11a28.47,28.47,0,0,1,4.36.4,16.14,16.14,0,0,0,2.11.24c.66,0,1.5-.09,2.41-.18a34.57,34.57,0,0,1,4.07-.29l3.09,0c1.13,0,2.25-.05,3.38-.05a20,20,0,0,1,5.13.78c.49.12,1.17.29,1.41.32h5.45l.38-.23a13.66,13.66,0,0,1,7.05-2.28h0a14.61,14.61,0,0,1,6.5,1.76c.19.09.42.2.6.27.77,0,1.53,0,2.28-.06,1.2,0,2.39-.08,3.59-.08a34.32,34.32,0,0,1,4,.28c.58.06,1.15.12,1.67.15.12-.07.26-.15.39-.21a14,14,0,0,1,6.83-2.05,18.6,18.6,0,0,1,5.39.93c.4.12,1,.28,1.19.32a29.36,29.36,0,0,1,4.18.36c.85.12,1.63.19,2.18.21s1.56-.09,2.46-.18a36.07,36.07,0,0,1,4-.29c1.35,0,2.64.07,3.77.15,1,.05,1.88.11,2.7.11a29.44,29.44,0,0,1,4.24.32,19.59,19.59,0,0,0,2.23.2c.17,0,.83-.2,1.3-.33a20.34,20.34,0,0,1,5.18-.87,30.08,30.08,0,0,1,4.59.46,13.82,13.82,0,0,0,1.9.25,16.26,16.26,0,0,0,2-.26,26.41,26.41,0,0,1,4.41-.48,15.54,15.54,0,0,0,1.94-.29,19.71,19.71,0,0,1,9.37.05c.49.09,1.15.23,1.5.26s.69-.22,1-.33a17.63,17.63,0,0,1,5.57-1.13c1.2,0,2.39,0,3.58.06,1,0,1.92.06,2.88.06a25.87,25.87,0,0,1,4.49.39,17.47,17.47,0,0,0,2,.23l3.4-.08,3.06-.07c1.33,0,2.54.05,3.72.1,1,.06,1.93.09,2.77.09a16.9,16.9,0,0,1,5.54.94l.25.06a13.3,13.3,0,0,1,7.15-2.54,14.5,14.5,0,0,1,6.52,1.62l.26.12.44-.17a16.89,16.89,0,0,1,5.73-1.28,17.52,17.52,0,0,1,5.73,1c.32.11.73.25,1,.31s1.06-.18,1.64-.29a25.68,25.68,0,0,1,4.61-.63,23.67,23.67,0,0,1,4.94.58,12.78,12.78,0,0,0,1.56.26,13.76,13.76,0,0,0,1.34-.33,19.63,19.63,0,0,1,5.09-.91c1.35,0,2.64,0,3.77.08,1,.05,1.91.09,2.73.08a20.18,20.18,0,0,1,5.11.64c.34.09.76.18,1.07.23l.61-.26a15.88,15.88,0,0,1,6.13-1.64,20.1,20.1,0,0,0,2.25-.28,32.18,32.18,0,0,1,4.21-.45c1.11,0,2.25,0,3.37,0s2.06,0,3.1,0a14.31,14.31,0,0,1,6.48,1.55,14.15,14.15,0,0,1,6.46-2,15.17,15.17,0,0,1,6.51,1.52l.24.11.35-.16a16.7,16.7,0,0,1,5.87-1.45,17.62,17.62,0,0,1,5.77,1l.92.28,1.18-.33a20.18,20.18,0,0,1,5.08-.95c1,0,1.94-.1,2.91-.19,1.18-.1,2.37-.19,3.55-.22a15.73,15.73,0,0,0,2.08-.32,28.44,28.44,0,0,1,4.37-.57c1,0,2-.09,3.07-.15l3.4-.17a29.71,29.71,0,0,1,4.29.22,18,18,0,0,0,2.2.15,34,34,0,0,1,4,.11c.92.06,1.79.1,2.48.09l3.1-.17c1.11-.08,2.25-.14,3.36-.18.65,0,1.49-.17,2.38-.29a34.4,34.4,0,0,1,4.09-.46c.94,0,1.88-.13,2.83-.22,1.21-.11,2.4-.23,3.61-.27.93,0,1.87-.14,2.79-.23,1.16-.13,2.37-.25,3.67-.29a20.79,20.79,0,0,1,5,.52c.52.09,1.24.24,1.49.24A11.44,11.44,0,0,0,1079,291a23.14,23.14,0,0,1,4.74-.8,14.2,14.2,0,0,1,6.49,1.48,14.07,14.07,0,0,1,6.43-2.15c1.31-.06,2.52,0,3.69,0,.94,0,1.87,0,2.81,0a23.75,23.75,0,0,1,4.62.3,11.49,11.49,0,0,0,1.88.16,29.89,29.89,0,0,1,4.43.23,16.77,16.77,0,0,0,2.09.15,35.61,35.61,0,0,1,4.09.09c.75.05,1.46.11,2,.09l.82-.35a16.36,16.36,0,0,1,5.89-1.64l3.4-.12c1,0,2-.05,3.08-.11s2.08-.12,3.12-.2,2.22-.16,3.34-.22a15.67,15.67,0,0,1,6.07,1l.86.26c.63,0,1.35-.16,2.1-.28a35.44,35.44,0,0,1,4-.47c1.42-.08,2.76,0,3.93,0,.94,0,1.83.06,2.56,0a21.81,21.81,0,0,0,2.39-.32,35.51,35.51,0,0,1,4-.51c.63-.05,1.44-.18,2.31-.34a30.42,30.42,0,0,1,4.14-.55,19.37,19.37,0,0,1,5.39.61,11.77,11.77,0,0,0,1.25.26c1-.06,1.91-.15,2.88-.24,1.15-.11,2.31-.21,3.46-.29.2,0,.87-.23,1.38-.38a20,20,0,0,1,5-1.08c1-.06,2-.16,3-.26,1.15-.1,2.31-.23,3.46-.3s2.51-.08,3.67-.08c1,0,2,0,2.8-.08,1.41-.09,2.74-.06,3.92,0,1,0,1.84,0,2.58,0,.18,0,.84-.25,1.31-.4a20.27,20.27,0,0,1,5.07-1.12,20.77,20.77,0,0,1,5,.39l1.53.19a24,24,0,0,1,4.78.27c.55.07,1.27.18,1.64.18s.75-.26,1.11-.41a18.39,18.39,0,0,1,5.33-1.32,15.39,15.39,0,0,0,1.87-.41,26.08,26.08,0,0,1,4.53-.82c1-.07,2-.18,2.94-.29,1.16-.12,2.34-.24,3.51-.33a32,32,0,0,1,4.19,0,20.83,20.83,0,0,0,2.3.05l3.18-.22c1.09-.06,2.18-.13,3.26-.21s2.07-.18,3.1-.29,2.23-.23,3.35-.32,2.13-.19,3.2-.28,2.16-.2,3.24-.29a33.24,33.24,0,0,1,4.26,0,19.76,19.76,0,0,0,2.25,0c1.17-.09,2.33-.14,3.48-.2s2-.09,3-.17c.19,0,.83-.26,1.29-.41a19.76,19.76,0,0,1,5-1.22,14.4,14.4,0,0,1,6.68,1.28,14.26,14.26,0,0,1,6.21-2.26,20.77,20.77,0,0,0,2.18-.42,29,29,0,0,1,4.21-.73c1.11-.11,2.25-.18,3.36-.25s2-.13,3.08-.24a23.07,23.07,0,0,1,4.88.21,11.39,11.39,0,0,0,1.67.16c1.18-.12,2.38-.17,3.59-.22.94,0,1.91-.09,2.87-.17,1.41-.13,2.74-.13,3.92-.13.85,0,1.64,0,2.32-.07l.93-.41a17.06,17.06,0,0,1,5.59-1.7c1.19-.11,2.4-.17,3.61-.21,1-.05,1.9-.08,2.85-.17.7-.08,1.56-.25,2.46-.41,1.17-.23,2.48-.49,3.91-.65a24.6,24.6,0,0,1,4.71.09,13.71,13.71,0,0,0,1.82.11,15.75,15.75,0,0,1,6.31.84c.23.08.54.17.77.23.44-.09,1-.25,1.57-.39a26.37,26.37,0,0,1,4.37-.89c.13,0,.75-.28,1.21-.45a19.54,19.54,0,0,1,5.06-1.36c.65-.06,1.46-.26,2.35-.44a37.26,37.26,0,0,1,4-.74,17.53,17.53,0,0,1,5.88.57c.29.07.67.17.91.2s.77-.26,1.14-.4a20.21,20.21,0,0,1,5-1.33c1.37-.16,2.67-.2,3.82-.23,1,0,1.88-.06,2.66-.16a21.91,21.91,0,0,1,5,.12c.46.05,1.06.13,1.41.13s.6-.28.87-.4a17.36,17.36,0,0,1,5.51-1.79c1.37-.15,2.67-.21,3.81-.24,1-.05,1.89-.08,2.65-.17a13.91,13.91,0,0,0,1.35-.48,20.43,20.43,0,0,1,4.91-1.33,13.79,13.79,0,0,1,7.43,1.5l.24-.12a18.08,18.08,0,0,1,5.32-1.7c1.47-.18,2.85-.22,4-.25a23.93,23.93,0,0,0,2.44-.12l1.09-.46a19.21,19.21,0,0,1,5.12-1.57,19.66,19.66,0,0,1,5.36.19l1.37.16c1.28-.17,2.61-.23,3.79-.28,1,0,1.84-.07,2.57-.17l3.83-.53,2.54-.35c1.43-.19,2.76-.25,3.94-.3.93,0,1.82-.07,2.52-.16s1.5-.31,2.39-.52a36.49,36.49,0,0,1,3.94-.83c.64-.09,1.47-.31,2.34-.52a35,35,0,0,1,4-.86l3.25-.43c1-.12,2.1-.26,3.15-.41a23.7,23.7,0,0,1,4.67-.14,14.19,14.19,0,0,0,1.86,0,14.85,14.85,0,0,0,1.94-.53,25.66,25.66,0,0,1,4.32-1.11,31.82,31.82,0,0,1,4.25-.29,19.42,19.42,0,0,0,2-.07l.86-.45a16.73,16.73,0,0,1,5.51-2,16.78,16.78,0,0,0,1.62-.54,23.28,23.28,0,0,1,4.56-1.33c1.1-.16,2.22-.31,3.34-.45s2-.26,3-.42,2.24-.33,3.37-.48,2-.26,3-.43c1.42-.23,2.77-.3,4-.38a24.44,24.44,0,0,0,2.45-.22,17,17,0,0,1,5.94.23c.33.05.78.14,1,.15,1.77-.28,3.56-.59,5.34-.9l.43-.32a14.21,14.21,0,0,1,6.2-3,17.81,17.81,0,0,1,5.48,0c.43,0,1,.1,1.26.1a20.93,20.93,0,0,1,5-.12,14.83,14.83,0,0,0,1.49.06c.87-.17,1.79-.38,2.71-.61,1.17-.27,2.35-.55,3.55-.77l3.12-.52c1.07-.16,2.14-.33,3.2-.53l1-.52a18.83,18.83,0,0,1,5-1.87c1.29-.27,2.5-.41,3.66-.57.92-.12,1.84-.24,2.74-.41A20.35,20.35,0,0,1,1622,236h.67s0,0,0,0a13.78,13.78,0,0,1,6.5-3.68A21.37,21.37,0,0,1,1634,232a11.47,11.47,0,0,0,1.67,0,27.51,27.51,0,0,1,4.54-.42c.75,0,1.55,0,2-.13a34.3,34.3,0,0,1,3.95-.56c.87-.1,1.68-.17,2.33-.29.23-.11.68-.37,1-.56a18.28,18.28,0,0,1,5-2,19.5,19.5,0,0,1,5.22-.3c.51,0,1.2.05,1.44,0,.52-.13,1.32-.4,2.16-.69a39.19,39.19,0,0,1,3.89-1.17,26,26,0,0,1,4.49-.52,15.72,15.72,0,0,0,2-.18c.4-.09,1.1-.41,1.78-.67a24.82,24.82,0,0,1,4.28-1.49,20.57,20.57,0,0,1,4.9-.46c.39,0,.88,0,1.23,0l.47-.34a15.33,15.33,0,0,1,5.65-2.89,15.17,15.17,0,0,1,6.45,0,.42.42,0,0,1,.12,0,14.48,14.48,0,0,1,5.8-3.26,19,19,0,0,1,5.27-.46c.49,0,1.16,0,1.41,0l2.6-.67,3.08-.78.64-.48a15.75,15.75,0,0,1,5.44-2.88,19.21,19.21,0,0,1,5.41-.48c.43,0,1,0,1.28,0a23.52,23.52,0,0,1,4.54-.66,16,16,0,0,0,1.76-.19c1.33-.38,2.61-.63,3.74-.84a24.37,24.37,0,0,0,2.54-.55c.9-.25,1.79-.57,2.68-.87s2-.71,3-1c.2-.14.47-.36.7-.52a16,16,0,0,1,5.23-2.88L1756,202l3.81-1.13c1-.29,1.93-.63,2.89-1s2.08-.72,3.14-1a16.83,16.83,0,0,1,6-.55c.32,0,.73,0,1,0,.54-.2,1.17-.49,1.84-.8a36,36,0,0,1,3.75-1.51c.63-.22,1.39-.57,2.2-.94,1.08-.47,2.29-1,3.66-1.48a25.82,25.82,0,0,1,4.47-1,14.35,14.35,0,0,0,1.87-.33c.78-.28,1.65-.63,2.57-1s2.13-.91,3.34-1.32c.6-.21,1.35-.58,2.16-1a37.27,37.27,0,0,1,3.61-1.58,17.5,17.5,0,0,0,1.79-.9,26.62,26.62,0,0,1,3.91-1.88,32.91,32.91,0,0,1,4-1.11,15.48,15.48,0,0,0,2.14-.55,17.41,17.41,0,0,1,5.68-.93,12.58,12.58,0,0,1,5.56-4.74,28,28,0,0,1,4.07-1.2,15.44,15.44,0,0,0,2.07-.59,21.43,21.43,0,0,1,4.88-1.19l1.21-.2c.17-.14.37-.34.54-.5a16.56,16.56,0,0,1,4.78-3.34,18.81,18.81,0,0,1,5.25-1.24,11.65,11.65,0,0,0,1.25-.19,19.88,19.88,0,0,1,5.07-1.24l.67-.1a.75.75,0,0,0,.11-.13,14.06,14.06,0,0,1,5.1-4.3c.69-.32,1.47-.76,2.29-1.24s2-1.15,3.16-1.71a15.08,15.08,0,0,1,6.55-1.25h.35l.32-.3a17.7,17.7,0,0,1,4.34-3.34c.24-.12.85-.63,1.31-1a23.56,23.56,0,0,1,3.76-2.59,24.93,24.93,0,0,1,4.11-1.65,14.68,14.68,0,0,0,1.78-.65,17.31,17.31,0,0,1,5.45-1.71c.18,0,.43-.08.63-.12a3,3,0,0,1,.21-.26,15.43,15.43,0,0,1,4.38-4.11c1-.59,2-1.22,3-1.85.73-.46,1.48-.93,2.23-1.38a35.35,35.35,0,0,1,3.42-1.77,18.65,18.65,0,0,0,2.09-1.09c.94-.58,1.92-1.12,2.88-1.67s1.64-.92,2.33-1.34c.15-.18.46-.53.67-.8a18.07,18.07,0,0,1,3.77-3.63,14.21,14.21,0,0,1,6.9-2.11l.52,0,1.09-.76,2-1.41a12.64,12.64,0,0,1,4.1-6.42c.8-.62,1.58-1.3,2.36-2s1.46-1.28,2.22-1.89a14.34,14.34,0,0,1,6-2.64,13.46,13.46,0,0,1,3.27-4.83c.77-.7,1.57-1.36,2.35-2s1.56-1.28,2.19-1.88l.53-.52c1.24-1.18,2.5-2.37,3.71-3.58a19.4,19.4,0,0,1,4.18-3c.26-.15.58-.32.81-.47s.21-.43.29-.63a17.12,17.12,0,0,1,2.69-4.44,25.14,25.14,0,0,1,3-2.83c.51-.42,1.12-.94,1.34-1.18a21.33,21.33,0,0,1,3.29-3.14c.15-.11.3-.25.46-.37.18-1.54,3.3-1.75,4.92-4a26.58,26.58,0,0,1,2.69-3.11,13.85,13.85,0,0,0,1.15-1.24c1.11-1.71,1.67-3.84,2.68-4.71.26-.23.62-.52.78-.69.6-1,2.63-5,3.18-5.77a15.94,15.94,0,0,0,1.3-1.93c2-3.72,4.57-4.5,5.71-5.6,2.09-2,3.12-7.58,5.31-7.56C2000.44,49,2000.5,314.64,2000.5,314.64Z"/></g></g><path class="cls-2" d="M1415.77,246.31a9.5,9.5,0,0,1-3.08-18.49,14.38,14.38,0,0,1,1.69-.46,11,11,0,0,1,4.54-3.13,19.58,19.58,0,0,1,3.28-.82l.4-.07,1.08-.4,1.27-.46a14.69,14.69,0,0,1,3.8-2.22,11.46,11.46,0,0,1,6.77-.39,11.55,11.55,0,0,1,3.57-2.32,10.92,10.92,0,0,1,3.92-.83,11.22,11.22,0,0,1,1.92-1.27h0a15.64,15.64,0,0,1,3.78-2.42,12.31,12.31,0,0,1,2.5-.79,11.35,11.35,0,0,1,3.69-2.7,22.1,22.1,0,0,1,2.82-1l.6-.19a13.59,13.59,0,0,1,4.24-1.1c.41-.26.9-.56,1.47-.87a14.66,14.66,0,0,1,3.76-2.71c.68-.33,1.37-.62,2.07-.92.39-.16.78-.32,1.17-.51a12.46,12.46,0,0,1,5.74-1.21,16.2,16.2,0,0,1,2.21-.51,11.18,11.18,0,0,1,4.67-4.74,16.74,16.74,0,0,1,3.7-1.37l.19,0a11.24,11.24,0,0,1,5-1.06q.63-.44,1.41-.87a15.08,15.08,0,0,1,1.54-.73,11.31,11.31,0,0,1,3.32-3.51l0,0a15.66,15.66,0,0,1,3.4-2.72,21.52,21.52,0,0,1,2.71-1.29l.57-.25c.39-.22.76-.47,1.13-.71.6-.39,1.2-.78,1.82-1.15a11.07,11.07,0,0,1,4.73-1.48,12.22,12.22,0,0,1,1.43-1.11l.16-.17a17.51,17.51,0,0,1,3-2.4,12.68,12.68,0,0,1,2-1,11.14,11.14,0,0,1,7.07-5,11.26,11.26,0,0,1,2.48-2.2,11.74,11.74,0,0,1,6.5-1.82c.49-.2.93-.35,1.28-.47h0l.36-.23a11.13,11.13,0,0,1,3.94-4.89,13.79,13.79,0,0,1,4.66-2,14.53,14.53,0,0,1,1.86-.85,13.5,13.5,0,0,1,2.7-2.58c.79-.57,1.54-1,2.13-1.37.33-.2.71-.43.88-.55l.93-.64a11.22,11.22,0,0,1,3.75-5c.82-.61,1.59-1.08,2.2-1.45.28-.17.66-.4.78-.5a11.08,11.08,0,0,1,6-2.15l.79-.64.34-.29a11.18,11.18,0,0,1,3.83-5.92c.84-.66,1.62-1.16,2.24-1.56l.7-.46a10.76,10.76,0,0,1,4.7-2.15,12.23,12.23,0,0,1,1.49-1.47l1.19-1,1.46-1.19c.12-.12.24-.25.35-.38a20.51,20.51,0,0,1,2.25-2.25,14.25,14.25,0,0,1,4.13-2.37A12.22,12.22,0,0,1,1594,123a14.89,14.89,0,0,1,1.3-1.46l0-.06a16.52,16.52,0,0,1,2.75-3.28,20.14,20.14,0,0,1,2.69-2l.38-.24c.35-.3.7-.57,1-.81a11,11,0,0,1,3.06-5c.09-.08.35-.38.54-.6a24.81,24.81,0,0,1,1.89-2,11.38,11.38,0,0,1,3.48-2.22A12.08,12.08,0,0,1,1613,103a26.31,26.31,0,0,1,2.15-1.82c.18-.13.37-.27.54-.41l.33-.42a20.14,20.14,0,0,1,2-2.34,12.56,12.56,0,0,1,5-2.94,13.84,13.84,0,0,1,1.71-1,14.68,14.68,0,0,1,1.91-2.48c.51-.52,1-1,1.57-1.52.33-.31.67-.62,1-.94l1.1-1.14.33-.34a13.34,13.34,0,0,1,1.8-3.44A14,14,0,0,1,1635,80a11,11,0,0,1,4.41-2.9,10.45,10.45,0,0,1,5.25-7.45,10.74,10.74,0,0,1,1.81-3.05c.56-.66,1.09-1.21,1.56-1.7.28-.3.56-.59.83-.9a13.84,13.84,0,0,1,3.81-3.12,10.68,10.68,0,0,1,1.81-1.39,10.87,10.87,0,0,1,.72-1.62,12.92,12.92,0,0,1,2.32-5,10.48,10.48,0,0,1,5.69-3.71,16.1,16.1,0,0,1,.86-2,12.51,12.51,0,0,1,2.14-5.28,10.32,10.32,0,0,1,4.06-3.38,10.42,10.42,0,0,1,6.49-9.17,11.93,11.93,0,0,1,.62-1.08,13.36,13.36,0,0,1,.89-1.2,10.46,10.46,0,0,1,1.57-5.54,15.28,15.28,0,0,1,2.32-2.85,16.25,16.25,0,0,1,1.36-3.07,11.2,11.2,0,0,1,3.24-3.48,12,12,0,0,1,.94-2.17A11.35,11.35,0,0,1,1691.39,6a10.46,10.46,0,0,1,6.35-5.43,13,13,0,0,1,7.18-.1,13.51,13.51,0,0,1,3.84.06,14.26,14.26,0,0,1,4.85.37,21.45,21.45,0,0,1,3,1.1c.16.07.32.15.49.21a14.81,14.81,0,0,1,4,1.85l1.14.34,1.43.41a12.85,12.85,0,0,1,3.52,1.5,13.86,13.86,0,0,1,1.39.06,12.71,12.71,0,0,1,5.76,0,10.51,10.51,0,0,1,3.13,1.33,10.43,10.43,0,0,1,3.85.19,16.78,16.78,0,0,1,3.79,1.47l.13.07a19.21,19.21,0,0,1,2.84,1.06l.21.1.69.09c.71.1,1.6.22,2.6.44a11.12,11.12,0,0,1,3.38,1.38,11.23,11.23,0,0,1,3.6.18,10.87,10.87,0,0,1,5,2.62,11.91,11.91,0,0,1,1.68.24,19.73,19.73,0,0,1,3.14,1l.46.17a20.1,20.1,0,0,1,2.54.75,13.27,13.27,0,0,1,4.42.08,18.71,18.71,0,0,1,3.38,1l.28.11.75.08c.6.06,1.31.14,2.11.27h.19a16.71,16.71,0,0,1,3.91.21l1,.11a11.75,11.75,0,0,1,6.38-.75,19.41,19.41,0,0,1,3.28.92l.4.14a11.51,11.51,0,0,1,2.62.85,10.87,10.87,0,0,1,4.27-.16,10.14,10.14,0,0,1,3.44,1.22,10,10,0,0,1,3.6-.09,17.62,17.62,0,0,1,3.72,1.06l.16.06q.6.09,1.2.15l1.91.25a11.06,11.06,0,0,1,6.43,3.39,14,14,0,0,1,4-.07h.63a24.28,24.28,0,0,1,3,.15,12.49,12.49,0,0,1,4,1.26,17.7,17.7,0,0,1,2-.06,19.6,19.6,0,0,1,2.3-.33,11.73,11.73,0,0,1,11.62,1.14,7.54,7.54,0,0,1,.76.24,12.28,12.28,0,0,1,3.64-.43l.17,0a16.68,16.68,0,0,1,4-.19,10.62,10.62,0,0,1,2.65.57,10.44,10.44,0,0,1,4.5-.67,20.58,20.58,0,0,1,3.35.59l.41.1a10.67,10.67,0,0,1,3.68,1,10.64,10.64,0,0,1,3.16-.28,16,16,0,0,1,4,.8l.12,0a20.39,20.39,0,0,1,2.88.52l.24,0,.49,0c.56,0,1.27-.09,2.09-.09a15.5,15.5,0,0,1,4.37-.55,11.39,11.39,0,0,1,4.64,1.19,12.21,12.21,0,0,1,2.44-.19c.76,0,1.53.07,2.29.12l.27,0a13.47,13.47,0,0,1,4.54-.8,11.24,11.24,0,0,1,6.19,2h0a15.08,15.08,0,0,1,2.94-.71,13.55,13.55,0,0,1,5-1.17,11.3,11.3,0,0,1,3.42.48,10.54,10.54,0,0,1,3.65-.79l.79-.11a25.49,25.49,0,0,1,2.73-.3,10.67,10.67,0,0,1,3.4.39,10.65,10.65,0,0,1,3.45-.87l.47-.11a20.1,20.1,0,0,1,3.2-.52l1.67-.11c.61,0,1.23-.07,1.84-.12a11.09,11.09,0,0,1,5.67,1.08,12.52,12.52,0,0,1,4.85-1.65,9.5,9.5,0,0,1,4.18,18.41,12.74,12.74,0,0,1-5.47,2.06l-.48.12a20,20,0,0,1-3.34.63,11.21,11.21,0,0,1-6.66-1.53l-.74,0-.46.1-.3.07a11.46,11.46,0,0,1-6.62,2.68,11.19,11.19,0,0,1-5.13-1,10.76,10.76,0,0,1-11.16.84,11.36,11.36,0,0,1-1.23.18,14.45,14.45,0,0,1-4.66.86l-1.49,0c-.74,0-1.47,0-2.2,0a11,11,0,0,1-5.21-1.33,12.1,12.1,0,0,1-2.16.16c-.92,0-1.73-.08-2.45-.13l-.33,0a13.53,13.53,0,0,1-4.6.71,11.31,11.31,0,0,1-5-1.32,13.26,13.26,0,0,1-2.34.11c-.21,0-.46,0-.7,0a22.35,22.35,0,0,1-3,.08,18.31,18.31,0,0,1-3.58-.56l-.36-.09a13.6,13.6,0,0,1-1.55-.2,11.06,11.06,0,0,1-5.59,1.14,10.66,10.66,0,0,1-5.33-1.83,10.34,10.34,0,0,1-5.68,1.18,10.8,10.8,0,0,1-5.51-2.06,12.43,12.43,0,0,1-5.44.76,14.59,14.59,0,0,1-4.66-1.34,11.57,11.57,0,0,1-2.39-.76,11.34,11.34,0,0,1-2.8.3,15.34,15.34,0,0,1-4.08.34l-.12,0a16.33,16.33,0,0,1-4.26.11,12.81,12.81,0,0,1-4.56-1.49c-.48,0-1,0-1.67-.07a14.48,14.48,0,0,1-4.69.19,19.88,19.88,0,0,1-3.21-.74l-.51-.15a11,11,0,0,1-6.08-3.11l-.71-.1-.51-.09a10.49,10.49,0,0,1-7.11,1.43,10.15,10.15,0,0,1-4.84-2.14,11.22,11.22,0,0,1-2.2-.14,11.81,11.81,0,0,1-5.35-2.41,11.39,11.39,0,0,1-5.44.39c-.21,0-.62-.08-1-.12-.61-.06-1.34-.13-2.15-.26h-.2a16.69,16.69,0,0,1-4-.22l-1-.11c-.73-.07-1.65-.17-2.67-.36a17.78,17.78,0,0,1-2.9-.85,13.37,13.37,0,0,1-4.37-.11,20,20,0,0,1-3.1-.91l-.52-.18a20.47,20.47,0,0,1-3-.9,14.31,14.31,0,0,1-4.17-.23,10.69,10.69,0,0,1-4-1.75,10.72,10.72,0,0,1-3.07-.24,11.35,11.35,0,0,1-5.23-2.75c-.48-.07-1-.17-1.57-.29a18.88,18.88,0,0,1-3.48-1.23l-.3-.14c-.36-.09-.71-.2-1-.31a10.71,10.71,0,0,1-10.53-1.9,11.76,11.76,0,0,1-1.62-.15h0a15.13,15.13,0,0,1-4.55-.38,14.07,14.07,0,0,1-4.36-2l-1.11-.33c-.46-.14-.91-.28-1.37-.4a14.42,14.42,0,0,1-4.24-1.93,18.85,18.85,0,0,1-1.91-.74,14.85,14.85,0,0,1-2.82-.1l-1,.1a13.78,13.78,0,0,1-1.09.89,12,12,0,0,1-1.06,2.45,11.13,11.13,0,0,1-3.95,4,14.72,14.72,0,0,1-.9,1.76c-.2.33-.4.64-.61.93a10.59,10.59,0,0,1-1.59,6.46,12,12,0,0,1-2.44,2.78,12.18,12.18,0,0,1-1.57,3.51,10.31,10.31,0,0,1-2.86,2.88,10.51,10.51,0,0,1-1.48,3.17l-.1.14-2,2.91A10.5,10.5,0,0,1,1681.5,55c-.13.26-.27.53-.43.79a14.61,14.61,0,0,1-1.93,4.07l-.12.25a17.27,17.27,0,0,1-2,3.36,10.32,10.32,0,0,1-4.46,3.35,11.26,11.26,0,0,1-2.34,5.45,11.59,11.59,0,0,1-6.09,3.84c-.54.4-1,.7-1.43.94a11.11,11.11,0,0,1-2.59,6,10.83,10.83,0,0,1-2.09,1.86,10.24,10.24,0,0,1-2.25,4.16,16.92,16.92,0,0,1-3,2.58l-.21.15a11,11,0,0,1-4.13,2.62l-.22.32a12.58,12.58,0,0,1-2.81,4.87l-1.56,1.63-1,1c-.54.57-1.12,1.12-1.7,1.66l-.49.46a15.55,15.55,0,0,1-2.55,3.55,13.57,13.57,0,0,1-4.42,2.9,12.76,12.76,0,0,1-3.14,1.74,19.9,19.9,0,0,1-1.61,1.79,20.52,20.52,0,0,1-1.85,1.59,12.32,12.32,0,0,1-2.84,4.14,11.41,11.41,0,0,1-4.27,2.54,11,11,0,0,1-3.28,5.58,16.17,16.17,0,0,1-3.43,2.33l-.13.07a20.8,20.8,0,0,1-2.27,1.62,16.2,16.2,0,0,1-2.1,2.58l0,.06a15.68,15.68,0,0,1-2.84,3.34,12.5,12.5,0,0,1-5.31,2.63,14.83,14.83,0,0,1-2,1,20.47,20.47,0,0,1-2.19,2.16c-.55.46-1.12.92-1.68,1.37a12.52,12.52,0,0,1-3.29,4.16,10.76,10.76,0,0,1-5.55,2.32,10.74,10.74,0,0,1-3.28,4.29c-.3.23-.57.49-.85.74-.53.47-1.19,1.06-2,1.65-.12.09-.44.39-.67.6A27,27,0,0,1,1577,161a10.86,10.86,0,0,1-5.68,2.16,10.81,10.81,0,0,1-3.39,4.11c-.79.58-1.53,1-2.13,1.42-.32.19-.64.39-1,.61-.82.59-1.6,1.06-2.23,1.44l-.2.12a14,14,0,0,1-3.2,3.19,15.45,15.45,0,0,1-4.12,2h0a12.91,12.91,0,0,1-1.27.66,10.9,10.9,0,0,1-3.49,3.89c-.78.53-1.53,1-2.14,1.32-.33.19-.67.38-1,.6a15.9,15.9,0,0,1-3.91,1.84l-.11,0a11,11,0,0,1-3.14,1.2,11.52,11.52,0,0,1-2.54,2.24,11.05,11.05,0,0,1-3.46,1.45,11.18,11.18,0,0,1-2.76,2.46,14.27,14.27,0,0,1-3.69,1.59,17.71,17.71,0,0,1-1.47,1.25,13.18,13.18,0,0,1-3.83,3.58,11.21,11.21,0,0,1-6.23,1.55c-.33.22-.68.43-1,.63a22.4,22.4,0,0,1-2.8,1.34l-.1,0c-.2.19-.43.42-.7.66a11.49,11.49,0,0,1-4.82,5.42,16.06,16.06,0,0,1-3.78,1.47l-.13.1a21.53,21.53,0,0,1-2.66,1.75,11.38,11.38,0,0,1-5.8,1.34,10.82,10.82,0,0,1-4,3.66l-1.32.7-1.94,1a14.63,14.63,0,0,1-4.57,1.38,12.53,12.53,0,0,1-4.64.83l-.52.22-.39.16a14,14,0,0,1-3.7,2.63c-.19.1-.39.24-.6.37a23.08,23.08,0,0,1-2.6,1.46,13.72,13.72,0,0,1-4.82,1.21l-.6.22a11.51,11.51,0,0,1-4.44,3.54,12.81,12.81,0,0,1-4,1c-.28.21-.59.43-.93.65a12.21,12.21,0,0,1-4.8,3.72,11.1,11.1,0,0,1-4.08.87,11.78,11.78,0,0,1-2.86,1.67,14.67,14.67,0,0,1-4.71,1,11.19,11.19,0,0,1-4.39.34,12.48,12.48,0,0,1-1.9.9l-2.24.83-1.21.44a14.46,14.46,0,0,1-1.43.45,11.11,11.11,0,0,1-5,3.56,15.36,15.36,0,0,1-4.52.79h0A9.51,9.51,0,0,1,1415.77,246.31Zm3.09-.52h0Zm20.83-7.39h0Zm-17.26-15,0,0Zm60.87-4.62h0Zm-8.51-17h0Zm50.14-6.42h0Zm-37.88-.8h0Zm12.43-6.83h0Zm44.31-3.75h0ZM1515,179.15h0Zm40.78-3.59h0Zm-22.49-7.43h0Zm39.47-6.63h0ZM1545,160h0Zm42.19-9.83h0Zm15.14-10.48h0Zm6-4.35,0,0Zm5.32-5h0Zm-29.38-.83h0Zm33.82-5.24h0Zm16.79-14.32,0,0Zm12.31-13.72,0,0Zm5.32-4.23Zm.46-.44h0Zm-1.14-29.66,0,.05Zm27.09-1.66h0Zm-22.69-3.79h0ZM1918,50.56h0Zm-36.81-1.46h0Zm73.74-.75h0Zm-289.79-2.93h0ZM1819,44.5h0Zm98.71-12.94h0Zm35.3-2.11h0Zm-14.15-.16h0Zm-67.27-.72h0ZM1850.17,28h0Zm-109.85-.24h0Zm99.09-.07h0Zm3.63-.37h0Zm0,0h0ZM1726,25.13h0Zm-7-1.93h0Zm78.34-3.65h0Zm-28.58-2.94h0Zm-38.14-9.92ZM1717,2.17h0ZM1709.89.76h0Z"/></g></g></svg>