<svg xmlns="http://www.w3.org/2000/svg" viewBox="0 0 401.31 66.4"><defs><style>.cls-1,.cls-2{fill:#fcfbfb;}.cls-1{stroke:#fcfbfb;stroke-miterlimit:10;}</style></defs><g id="レイヤー_2" data-name="レイヤー 2"><g id="レイヤー_1-2" data-name="レイヤー 1"><g id="グループ_221" data-name="グループ 221"><g id="グループ_270" data-name="グループ 270"><g id="グループ_62" data-name="グループ 62"><g id="グループ_60" data-name="グループ 60"><path class="cls-1" d="M300.19,48.44Zm0,0h0Zm7.61-4h0Zm34.85-28.46Zm42.7-4.2h0Zm-28.85-1h0Z"/></g></g><path class="cls-1" d="M400.5,65.9H.5V57.26c.16-.11.53.05,1.6.1.33,0,.73.06.89.09l.62.06A2.73,2.73,0,0,1,4.83,58L5,58h.31a6.72,6.72,0,0,1,.9,0l.35,0a7,7,0,0,1,1,0l.68.06a6,6,0,0,0,.61.06,5.87,5.87,0,0,1,.84.14l.44.08a3.19,3.19,0,0,0,.4,0,6.41,6.41,0,0,1,.9,0l.29-.05a5,5,0,0,1,1-.07,4.19,4.19,0,0,1,.93.17,1.65,1.65,0,0,0,.35.08l.66,0,.64,0,.31,0a4.77,4.77,0,0,1,1-.08,3.45,3.45,0,0,1,1.18.35.61.61,0,0,0,.17.07l1.21.08a4.91,4.91,0,0,1,.85.13l.36.06.17,0a3,3,0,0,1,1.22-.2l.65,0,.64,0a4.77,4.77,0,0,1,.88.14,1.94,1.94,0,0,0,.41.07,3.7,3.7,0,0,1,.95.19,2.2,2.2,0,0,0,.33.07l1.29.07a1.77,1.77,0,0,0,.36,0,4.91,4.91,0,0,1,.82-.06l.15-.06A3,3,0,0,1,29.45,59a3,3,0,0,1,1.22.36l.1,0,.15,0A4.18,4.18,0,0,1,32,59.26a3.55,3.55,0,0,1,1.12.29l.2.07a4.16,4.16,0,0,0,.5,0c.23,0,.48,0,.75,0l.29-.05a3.86,3.86,0,0,1,1-.09,4.36,4.36,0,0,1,.91.14l.38.08.37,0a6.12,6.12,0,0,1,.93-.06,2.82,2.82,0,0,1,1.22.4,2.51,2.51,0,0,1,1.37-.37c.31,0,.58.07.83.11l.45.07H43c.24,0,.48,0,.71,0a2.92,2.92,0,0,1,1.27.4l.12.06h.49l.69,0h.51c.24,0,.5,0,.79,0l.25,0a3.93,3.93,0,0,1,1.05-.11,5.22,5.22,0,0,1,.91.13,1.63,1.63,0,0,0,.38.07,4.09,4.09,0,0,1,1,.22l.13,0,0,0a3,3,0,0,1,1.41-.37,4.1,4.1,0,0,1,1,.2l.28.07a3.64,3.64,0,0,0,.43,0,5.67,5.67,0,0,1,.87-.05,3.78,3.78,0,0,0,.45,0,7.5,7.5,0,0,1,.85,0,4.08,4.08,0,0,1,1,.2l.27.08a3.51,3.51,0,0,1,1.08.25l.2.06.21,0a3.91,3.91,0,0,1,1.09-.15l.77.08.52,0,.24-.06a3.87,3.87,0,0,1,1.06-.13l.71.05.59,0a3.07,3.07,0,0,1,1.22.34l.13.06.25,0a4.91,4.91,0,0,1,.94-.09l.21-.06a3.51,3.51,0,0,1,1.14-.17,2.76,2.76,0,0,1,1.38.49l.07,0h1l.13,0a3.09,3.09,0,0,1,1.31-.3l.63,0h.66l.63,0,.67,0a4.61,4.61,0,0,1,1,.15,2.44,2.44,0,0,0,.32.08,5.17,5.17,0,0,1,.91.12l.26.06.1-.05a3,3,0,0,1,1.33-.32,3.54,3.54,0,0,1,1.06.21l.25.07h1.83c.24,0,.48,0,.74,0a4.82,4.82,0,0,0,.53,0c.23,0,.5,0,.77,0l.5,0c.24,0,.51,0,.8,0s.58,0,.82.08a3.18,3.18,0,0,0,.47.06l.74,0c.2,0,.39,0,.55,0s.38,0,.57,0,.48,0,.73,0a4.51,4.51,0,0,1,1,.15,2.28,2.28,0,0,0,.34.07l.66,0,.63,0a2.49,2.49,0,0,0,.44,0,5.61,5.61,0,0,1,.86,0h.54c.23,0,.49,0,.76,0a3,3,0,0,1,1.24.34l.14.06.57,0,.63,0,.3-.06A4.62,4.62,0,0,1,98,62a4.67,4.67,0,0,1,1,.14,2,2,0,0,0,.33.07l.51,0a6.44,6.44,0,0,1,.79,0,4.3,4.3,0,0,1,.88.11c.16,0,.31,0,.41,0h1.16l.11-.06a2.64,2.64,0,0,1,2.54,0l.16.06.42,0a6.7,6.7,0,0,1,.8,0l1.29,0,.29-.05a4,4,0,0,1,1-.13l.48,0a6.93,6.93,0,0,1,.82,0c.27,0,.52,0,.75,0s.38,0,.54,0a3.22,3.22,0,0,1,1.24.32l.15.07h.48c.24,0,.48,0,.72,0a2.53,2.53,0,0,0,.4,0,5.67,5.67,0,0,1,.9-.07c.23,0,.47,0,.7,0l.59,0h1.29a2.43,2.43,0,0,0,.42,0,4.59,4.59,0,0,1,.89-.07,5.23,5.23,0,0,1,.89.1,2.59,2.59,0,0,0,.4.06q.34,0,.69,0l.53,0,.17-.06a3.35,3.35,0,0,1,1.2-.26,5,5,0,0,1,.84.08,3,3,0,0,0,.46,0l.56,0h.74a5.94,5.94,0,0,1,.76.05l.53,0a2.53,2.53,0,0,0,.43,0,7,7,0,0,1,.87-.07c.28,0,.55,0,.78,0a5,5,0,0,0,.51,0,2.93,2.93,0,0,1,1.25.33l.05,0,.07,0a3.23,3.23,0,0,1,1.21-.27,4.41,4.41,0,0,1,1,.15l.29.07.35-.05a4.11,4.11,0,0,1,.94-.11,4.59,4.59,0,0,1,.91.1,2.3,2.3,0,0,0,.39,0l.44,0a7,7,0,0,1,.85-.07c.3,0,.56,0,.8.05a5,5,0,0,0,.5,0h1.29l.45,0a4.36,4.36,0,0,1,.85-.07c.11,0,.26,0,.43,0a6.8,6.8,0,0,1,.86-.07,4.87,4.87,0,0,1,.95.11,2,2,0,0,0,.35.06l.72,0,.57,0a5.38,5.38,0,0,1,.87.08l.42,0,.49,0a6.39,6.39,0,0,1,.81-.06h1.29a4,4,0,0,1,1,.16c.1,0,.23.06.28.06h1.09l.08,0a2.63,2.63,0,0,1,1.41-.46h0a2.94,2.94,0,0,1,1.3.35l.12.06.46,0h.72c.29,0,.57,0,.81.05l.33,0,.08,0a2.84,2.84,0,0,1,1.36-.41,3.68,3.68,0,0,1,1.08.19l.24.06a6.78,6.78,0,0,1,.84.07c.17,0,.32,0,.43,0a4.81,4.81,0,0,0,.49,0,6.39,6.39,0,0,1,.81-.06c.27,0,.52,0,.75,0l.54,0a7,7,0,0,1,.85.07l.44,0,.26-.07a4,4,0,0,1,1-.17,5.84,5.84,0,0,1,.92.09c.14,0,.3,0,.38,0s.25,0,.41,0a5.22,5.22,0,0,1,.88-.1,2.49,2.49,0,0,0,.39-.06,5.48,5.48,0,0,1,.9-.1,5,5,0,0,1,1,.11l.3.06.21-.07a3.78,3.78,0,0,1,1.11-.23l.72,0h.57a4.62,4.62,0,0,1,.9.08l.41,0h.68l.61,0,.74,0,.56,0a3.2,3.2,0,0,1,1.1.19h0a2.7,2.7,0,0,1,1.43-.51,2.87,2.87,0,0,1,1.31.33l.05,0,.09,0a3.25,3.25,0,0,1,1.14-.26,3.78,3.78,0,0,1,1.15.2l.2.07.33-.06a5.21,5.21,0,0,1,.92-.13,4.46,4.46,0,0,1,1,.12l.31,0a1.8,1.8,0,0,0,.27-.07,4.27,4.27,0,0,1,1-.18l.76,0a5,5,0,0,0,.54,0,4.18,4.18,0,0,1,1,.13l.21,0,.12,0a3,3,0,0,1,1.23-.33l.45-.06a6.37,6.37,0,0,1,.84-.09h1.29a2.79,2.79,0,0,1,1.3.31,2.77,2.77,0,0,1,1.29-.4,2.89,2.89,0,0,1,1.3.3l.05,0,.07,0a3.39,3.39,0,0,1,1.18-.29,3.5,3.5,0,0,1,1.15.2l.18,0,.24-.06a3.79,3.79,0,0,1,1-.19l.58,0,.71,0a2.69,2.69,0,0,0,.41-.06,5.27,5.27,0,0,1,.88-.11l.61,0,.68,0a5.61,5.61,0,0,1,.86.05l.44,0a5.17,5.17,0,0,1,.8,0l.5,0,.62,0,.67,0,.48-.06a6.07,6.07,0,0,1,.81-.09l.57,0,.72,0,.56-.05c.23,0,.47,0,.73-.06a4.1,4.1,0,0,1,1,.11l.3,0,.34-.08a5.06,5.06,0,0,1,.94-.16,2.93,2.93,0,0,1,1.3.3,2.76,2.76,0,0,1,1.29-.43h.74a5.23,5.23,0,0,0,.56,0,4.3,4.3,0,0,1,.92.06,2,2,0,0,0,.38,0,5.81,5.81,0,0,1,.88,0l.42,0a5.4,5.4,0,0,1,.82,0,2.91,2.91,0,0,0,.41,0L225,61a3.28,3.28,0,0,1,1.18-.32l.68,0,.62,0,.62,0,.67,0a3.11,3.11,0,0,1,1.21.2l.18.06.42-.06a5.75,5.75,0,0,1,.79-.09,6.92,6.92,0,0,1,.79,0c.19,0,.36,0,.51,0a3.29,3.29,0,0,0,.48-.06,6,6,0,0,1,.81-.1l.46-.07a4.78,4.78,0,0,1,.83-.11,3.63,3.63,0,0,1,1.07.12l.25.05.58-.05.69,0,.28-.08a3.93,3.93,0,0,1,1-.22l.6-.05.69-.06h.73l.56,0c.28,0,.55,0,.79,0a4.32,4.32,0,0,0,.51,0,1.73,1.73,0,0,0,.26-.08,4.1,4.1,0,0,1,1-.22,3.75,3.75,0,0,1,1,.08l.31,0a4.55,4.55,0,0,1,.95.06l.33,0,.22-.08a3.72,3.72,0,0,1,1.07-.26l.37-.08a4.94,4.94,0,0,1,.91-.17,5.9,5.9,0,0,0,.59-.06l.7-.06a5.77,5.77,0,0,1,.84,0h.46l.63,0,.66,0L254,59l.67-.06.64-.06.64-.06a8,8,0,0,1,.86,0,3.55,3.55,0,0,0,.45,0l.69,0,.6,0a2.16,2.16,0,0,0,.26-.08,3.75,3.75,0,0,1,1-.24,2.89,2.89,0,0,1,1.33.25,2.88,2.88,0,0,1,1.24-.45c.12,0,.27-.05.44-.08a5.79,5.79,0,0,1,.84-.15l.67,0,.62-.05a5,5,0,0,1,1,0l.33,0c.24,0,.48,0,.72-.05l.57,0a7.31,7.31,0,0,1,.79,0h.46l.19-.08a3.1,3.1,0,0,1,1.11-.34c.24,0,.48,0,.73-.05s.38,0,.57,0l.49-.08a7,7,0,0,1,.78-.13,4.07,4.07,0,0,1,.94,0l.37,0a3.1,3.1,0,0,1,1.26.17l.15,0,.32-.08a5.59,5.59,0,0,1,.87-.17l.24-.09a4.13,4.13,0,0,1,1-.28c.13,0,.3,0,.47-.08a5.59,5.59,0,0,1,.81-.15,3.39,3.39,0,0,1,1.17.11l.18,0a1.27,1.27,0,0,0,.23-.08,3.7,3.7,0,0,1,1-.26,7.07,7.07,0,0,1,.76,0c.19,0,.38,0,.53,0a4.51,4.51,0,0,1,1,0l.29,0,.17-.08a3.54,3.54,0,0,1,1.1-.36c.28,0,.54,0,.76,0s.38,0,.53,0l.27-.1a3.83,3.83,0,0,1,1-.26,2.7,2.7,0,0,1,1.48.3l0,0a3.67,3.67,0,0,1,1.06-.34c.3,0,.57,0,.81,0l.49,0,.22-.09a3.84,3.84,0,0,1,1-.32,4.07,4.07,0,0,1,1.08,0l.27,0c.26,0,.52,0,.76,0l.51,0,.77-.1.51-.07a7.81,7.81,0,0,1,.78-.06l.51,0,.48-.1c.23-.06.49-.12.78-.17a3.65,3.65,0,0,0,.47-.1,6.75,6.75,0,0,1,.79-.17l.65-.09.63-.08a5.17,5.17,0,0,1,.94,0h.37c.09,0,.23-.06.39-.1a4.8,4.8,0,0,1,.86-.23,6.62,6.62,0,0,1,.85,0l.4,0,.17-.09a3.39,3.39,0,0,1,1.1-.4l.33-.11a4.54,4.54,0,0,1,.91-.27l.67-.09.6-.08.68-.1.6-.08c.29,0,.56-.06.8-.08l.49,0a3.41,3.41,0,0,1,1.18,0l.21,0c.36-.05.71-.12,1.07-.18l.09-.06a2.81,2.81,0,0,1,1.24-.6,3.59,3.59,0,0,1,1.09,0l.25,0a4.28,4.28,0,0,1,1,0c.11,0,.25,0,.3,0l.54-.12.71-.16.63-.1.64-.11.2-.1a4.05,4.05,0,0,1,1-.37,7.09,7.09,0,0,1,.74-.12l.54-.08a4.1,4.1,0,0,1,1,0h.14a2.68,2.68,0,0,1,1.3-.73,4.29,4.29,0,0,1,1-.07,1.61,1.61,0,0,0,.33,0,6.6,6.6,0,0,1,.91-.08,3.27,3.27,0,0,0,.39,0,6.21,6.21,0,0,1,.79-.11c.17,0,.34,0,.47-.06l.2-.11a3.26,3.26,0,0,1,2-.47h.29l.43-.14a8.15,8.15,0,0,1,.78-.24,5.47,5.47,0,0,1,.9-.1,3,3,0,0,0,.39,0,2.78,2.78,0,0,0,.36-.13,5,5,0,0,1,.86-.3,4,4,0,0,1,1-.09h.24l.1-.07a3,3,0,0,1,1.13-.57,3.08,3.08,0,0,1,1.29,0h0a2.79,2.79,0,0,1,1.16-.65,3.73,3.73,0,0,1,1.05-.1,2.76,2.76,0,0,0,.29,0l.52-.13.61-.16.13-.1a3.31,3.31,0,0,1,1.09-.57A4,4,0,0,1,346,45h.26a4.75,4.75,0,0,1,.9-.13,2.43,2.43,0,0,0,.36,0c.26-.07.52-.12.74-.17a3,3,0,0,0,.51-.11l.54-.17.6-.2.14-.11a3.38,3.38,0,0,1,1.05-.57l.46-.14.76-.23a5.62,5.62,0,0,0,.58-.19l.63-.21a3.5,3.5,0,0,1,1.19-.11h.2l.37-.16a6.15,6.15,0,0,1,.75-.3l.44-.19a6.47,6.47,0,0,1,.73-.3,5.31,5.31,0,0,1,.89-.19,2,2,0,0,0,.38-.07l.51-.2c.21-.09.43-.18.67-.26l.43-.2c.21-.1.45-.21.72-.31a4,4,0,0,0,.36-.18,5.7,5.7,0,0,1,.78-.38c.29-.1.57-.16.81-.22a3.74,3.74,0,0,0,.43-.11,3.8,3.8,0,0,1,1.14-.19,2.43,2.43,0,0,1,1.11-.94,4.49,4.49,0,0,1,.81-.24,3.27,3.27,0,0,0,.42-.12,3.9,3.9,0,0,1,1-.24l.24,0,.11-.1a3.39,3.39,0,0,1,1-.67,4.24,4.24,0,0,1,1.05-.25l.25,0a4,4,0,0,1,1-.25l.14,0s0,0,0,0a2.85,2.85,0,0,1,1-.86,4.37,4.37,0,0,0,.46-.25c.18-.11.4-.23.63-.34a3.13,3.13,0,0,1,1.31-.25H375l.06-.06a3.45,3.45,0,0,1,.87-.67,2,2,0,0,0,.26-.19,4.42,4.42,0,0,1,.75-.52,4.31,4.31,0,0,1,.83-.33l.35-.13a3.34,3.34,0,0,1,1.09-.34l.13,0,0-.05a3.08,3.08,0,0,1,.88-.82l.6-.37.45-.28c.24-.14.47-.25.68-.35s.31-.15.42-.22l.57-.33.47-.27.13-.16a3.83,3.83,0,0,1,.76-.73,2.91,2.91,0,0,1,1.38-.42h.1l.22-.15.4-.28a2.54,2.54,0,0,1,.82-1.29c.16-.12.31-.26.47-.39l.44-.38a3,3,0,0,1,1.21-.53,2.76,2.76,0,0,1,.65-1l.47-.41c.16-.13.31-.25.44-.37l.11-.11.74-.71a4.12,4.12,0,0,1,.83-.61l.17-.09s0-.09.05-.13a3.45,3.45,0,0,1,.54-.89,5,5,0,0,1,.61-.56l.27-.24a4.68,4.68,0,0,1,.65-.63l.1-.07c0-.31.66-.35,1-.81a4.43,4.43,0,0,1,.54-.62l.23-.25c.22-.34.33-.77.53-.94l.16-.14c.12-.2.53-1,.64-1.15s.2-.28.26-.39a3.26,3.26,0,0,1,1.14-1.12c.42-.41.62-1.52,1.06-1.51C400.49,12.77,400.5,65.9,400.5,65.9Z"/></g></g><path class="cls-2" d="M284.33,50.72a2.5,2.5,0,0,1-.81-4.87c.38-.12.77-.22,1.16-.32a6.73,6.73,0,0,0,.77-.21l.25-.2a5.85,5.85,0,0,1,1.47-.89l1-.35c.29-.1.59-.19.88-.31l1.83-.78c.24-.11.46-.24.69-.37a11.06,11.06,0,0,1,1.07-.58,6.39,6.39,0,0,1,1.61-.46,2.36,2.36,0,0,0,.4-.08,11.64,11.64,0,0,1,1.11-.45,7.49,7.49,0,0,0,.71-.28,4.5,4.5,0,0,0,.44-.33,7.64,7.64,0,0,1,1.21-.83,6.29,6.29,0,0,1,1.49-.55l.45-.13.41-.33a7.49,7.49,0,0,1,1.19-.89,6.74,6.74,0,0,0,.64-.45c.33-.24.66-.48,1-.69a9.17,9.17,0,0,1,1.19-.58,6.12,6.12,0,0,0,.62-.3c.05,0,.2-.2.31-.32a6.83,6.83,0,0,1,1.2-1l.87-.54c.28-.16.56-.33.83-.51a11.75,11.75,0,0,1,1.13-.65,4.66,4.66,0,0,0,.62-.34c.28-.2.54-.4.81-.61l.79-.6a6.93,6.93,0,0,0,.58-.5,10.41,10.41,0,0,1,.94-.82l.68-.5c.31-.23.62-.45.93-.69a7.55,7.55,0,0,1,1.24-.77,4.66,4.66,0,0,0,.49-.27,9,9,0,0,1,1-.72,6.5,6.5,0,0,0,.63-.44l1.52-1.3a2.11,2.11,0,0,1,.15-.27,6.13,6.13,0,0,1,1.07-1.37c.29-.26.59-.5.89-.73s.45-.35.66-.54a6.79,6.79,0,0,1,1.32-.92c.14-.08.33-.18.39-.23.21-.21.43-.45.65-.69s.46-.51.7-.75.57-.53.86-.79A6.66,6.66,0,0,0,327,18c0-.07.09-.19.16-.32a5.88,5.88,0,0,1,.91-1.41,6.34,6.34,0,0,0,.51-.65c.23-.32.46-.63.72-.93s.44-.49.67-.73.45-.48.67-.74.56-.7.83-1.05l.4-.5a5.86,5.86,0,0,1,1.24-1.13c.11-.09.22-.16.32-.25s.18-.31.3-.55a9.42,9.42,0,0,1,.67-1.12c.17-.25.32-.51.47-.76s.36-.63.56-.93.48-.65.73-1a4.81,4.81,0,0,0,.47-.61,4,4,0,0,0,.14-.42,7.38,7.38,0,0,1,.59-1.43,6.36,6.36,0,0,1,1-1.23c.1-.12.25-.27.29-.33a3.63,3.63,0,0,1,4-1.86,6.55,6.55,0,0,1,1.49.66,4.13,4.13,0,0,0,.39.21c.36.1.75.23,1.13.37a6.91,6.91,0,0,0,.77.25l.93.25,1,.28.34,0a6,6,0,0,1,1.72.11,9.22,9.22,0,0,1,1.28.41c.25.09.49.18.66.22.4.09.8.21,1.19.34a6.61,6.61,0,0,0,.76.22,6.49,6.49,0,0,0,.74.09,9.12,9.12,0,0,1,1.28.16l1,.2q.51.12,1,.21l.94.19,1.06.21.34,0a6,6,0,0,1,1.71,0l1,.18,1,.18a6,6,0,0,1,1.68.56,2.21,2.21,0,0,0,.35.16l.94.09,1,.1,1.09.11.93.09a1.31,1.31,0,0,1,.27-.08,5.84,5.84,0,0,1,1.78-.15l1,.11,1,.11a5.36,5.36,0,0,1,1.75.47c.1,0,.19.09.29.12l.57,0a8.2,8.2,0,0,1,1.39-.08l2,.08c.33,0,.65,0,1,0l1,0c.46,0,.89.06,1.26.1s.56.06.74.06a9.37,9.37,0,0,1,1.45.14,1.87,1.87,0,0,0,.56.07,7.52,7.52,0,0,0,.83-.09c.39-.05.78-.11,1.16-.13a7.53,7.53,0,0,0,.83-.11c.39-.06.77-.13,1.15-.16s.69,0,1,0,.64,0,.95-.06a2.5,2.5,0,0,1,.56,5c-.44.05-.88.07-1.32.08-.27,0-.54,0-.8.05s-.5.06-.75.1a12,12,0,0,1-1.36.17l-.75.09a12.43,12.43,0,0,1-1.36.14,9.43,9.43,0,0,1-1.54-.13,2,2,0,0,0-.58-.08,11.28,11.28,0,0,1-1.38-.09c-.24,0-.48-.06-.72-.07l-.82,0c-.43,0-.86,0-1.29,0l-2.09-.08a3.8,3.8,0,0,0-.61.05,8.66,8.66,0,0,1-1.5.06,5.38,5.38,0,0,1-1.8-.47c-.12,0-.23-.1-.35-.13-.32,0-.73-.07-1.13-.12s-.57-.07-.86-.09l-.28.07a5.88,5.88,0,0,1-1.84.15l-.83-.08-1.25-.13-.85-.08c-.41,0-.82-.08-1.23-.14A5.46,5.46,0,0,1,364,9.85a2.63,2.63,0,0,0-.35-.15l-1.13-.2-.85-.15-.35,0a6.11,6.11,0,0,1-1.77,0l-1.21-.23L357.46,9c-.39-.07-.79-.16-1.19-.25l-.84-.18a6,6,0,0,0-.73-.08,10.58,10.58,0,0,1-1.35-.17,10.44,10.44,0,0,1-1.28-.37c-.24-.07-.48-.16-.73-.21A10.17,10.17,0,0,1,350,7.31a4.83,4.83,0,0,0-.64-.22,2.37,2.37,0,0,0-.35,0A6,6,0,0,1,347.24,7c-.39-.09-.79-.2-1.18-.31l-.83-.22c-.42-.11-.83-.25-1.24-.4-.25-.09-.49-.18-.74-.25a4.66,4.66,0,0,1-1-.37l-.27.29c-.11.12-.26.28-.3.34a4.1,4.1,0,0,0-.14.4,6.53,6.53,0,0,1-.67,1.58,11.25,11.25,0,0,1-.84,1.12,6.31,6.31,0,0,0-.44.58c-.14.21-.27.43-.4.65a12.17,12.17,0,0,1-.72,1.14,5.24,5.24,0,0,0-.32.57,8.39,8.39,0,0,1-.77,1.26,5.64,5.64,0,0,1-1.3,1.21,4,4,0,0,0-.32.26l-.35.45c-.3.39-.61.78-.93,1.16s-.57.64-.86,1-.37.39-.55.6-.31.39-.46.59a9.92,9.92,0,0,1-.84,1.06c0,.07-.09.2-.16.32a5.8,5.8,0,0,1-1,1.49c-.31.32-.64.61-1,.9s-.39.34-.57.53-.38.39-.57.6-.57.63-.88.92a6.51,6.51,0,0,1-1.38,1,3.07,3.07,0,0,0-.38.23c-.31.29-.65.56-1,.83l-.61.49-.16.28A5.67,5.67,0,0,1,323,28.65L321.4,30a11.81,11.81,0,0,1-1.12.79,5.9,5.9,0,0,0-.6.42,7.1,7.1,0,0,1-1.31.81,4.43,4.43,0,0,0-.49.28c-.34.27-.69.53-1.05.79l-.62.46c-.19.14-.36.31-.54.47a11.28,11.28,0,0,1-1.05.9l-.66.5c-.33.26-.66.51-1,.75a9,9,0,0,1-1.22.71,5,5,0,0,0-.6.33c-.35.23-.71.45-1.07.67l-.71.43c-.05,0-.21.2-.32.32a6.8,6.8,0,0,1-1.26,1.08,10.87,10.87,0,0,1-1.28.64,4.85,4.85,0,0,0-.61.29c-.21.13-.41.28-.61.43a13.25,13.25,0,0,1-1.11.75,3.86,3.86,0,0,0-.43.34,7,7,0,0,1-1.26.93,6.53,6.53,0,0,1-1.57.58l-.44.13c-.08,0-.27.2-.43.33a7.35,7.35,0,0,1-1.29.88,11.82,11.82,0,0,1-1.27.52c-.23.09-.46.16-.68.27a6.42,6.42,0,0,1-1.68.49,2.36,2.36,0,0,0-.4.08c-.19.09-.41.22-.62.34s-.74.43-1.2.64l-1.93.82c-.39.16-.8.3-1.21.43-.25.09-.51.17-.76.27l-.26.21a6,6,0,0,1-1.55.91,10.19,10.19,0,0,1-1.32.38c-.24.06-.48.11-.71.19A2.36,2.36,0,0,1,284.33,50.72Z"/></g></g></svg>