<svg xmlns="http://www.w3.org/2000/svg" viewBox="0 0 401.31 70.55"><defs><style>.cls-1,.cls-2{fill:#fcfbfb;}.cls-1{stroke:#fcfbfb;stroke-miterlimit:10;}</style></defs><g id="レイヤー_2" data-name="レイヤー 2"><g id="レイヤー_1-2" data-name="レイヤー 1"><g id="グループ_221" data-name="グループ 221"><g id="グループ_270" data-name="グループ 270"><g id="グループ_62" data-name="グループ 62"><g id="グループ_60" data-name="グループ 60"><path class="cls-1" d="M300.19,52.58Zm0,0h0Zm7.61-4h0Zm34.85-28.47h0Zm42.7-4.19h0Zm-28.85-1h0Z"/></g></g><path class="cls-1" d="M400.5,70.05H.5V61.4c.16-.1.53.05,1.6.1.33,0,.73.06.89.09a4.46,4.46,0,0,0,.62.06,2.73,2.73,0,0,1,1.22.45l.13.09h.31a6.56,6.56,0,0,1,.9,0,2.44,2.44,0,0,0,.35,0,5.54,5.54,0,0,1,1,0l.68.07.61.06a6,6,0,0,1,.84.13,2.31,2.31,0,0,0,.44.08,2.88,2.88,0,0,0,.4,0,5.09,5.09,0,0,1,.9,0l.29,0a4.92,4.92,0,0,1,1-.08,4.79,4.79,0,0,1,.93.18l.35.08.66,0,.64,0,.31,0a4.84,4.84,0,0,1,1-.07,3.25,3.25,0,0,1,1.18.34l.17.08,1.21.07a6.11,6.11,0,0,1,.85.13l.36.06.17,0a3.17,3.17,0,0,1,1.22-.2l.65.05L23,63a5.81,5.81,0,0,1,.88.14l.41.08a4.23,4.23,0,0,1,.95.18l.33.08,1.29.07.36,0a4.91,4.91,0,0,1,.82-.06l.15,0a3,3,0,0,1,1.29-.26,3,3,0,0,1,1.22.37l.1,0,.15,0A3.49,3.49,0,0,1,32,63.41a3.32,3.32,0,0,1,1.12.28l.2.08h.5q.34,0,.75,0a1.45,1.45,0,0,0,.29-.05,4.34,4.34,0,0,1,1-.09,5.07,5.07,0,0,1,.91.15,2.63,2.63,0,0,0,.38.07l.37,0a4.3,4.3,0,0,1,.93-.06,2.83,2.83,0,0,1,1.22.39,2.6,2.6,0,0,1,1.37-.36,4.91,4.91,0,0,1,.83.11,3,3,0,0,0,.45.06L43,64h.71a3.06,3.06,0,0,1,1.27.4l.12.07h.49l.69,0a4.54,4.54,0,0,0,.51,0c.24,0,.5,0,.79,0l.25,0a3.89,3.89,0,0,1,1.05-.12,4.36,4.36,0,0,1,.91.14l.38.07a4.13,4.13,0,0,1,1,.21l.13,0h0a2.76,2.76,0,0,1,1.41-.37,4.68,4.68,0,0,1,1,.19l.28.08.43,0a4.7,4.7,0,0,1,.87,0l.45,0a7.35,7.35,0,0,1,.85,0,4,4,0,0,1,1,.21,1.8,1.8,0,0,0,.27.07,3.51,3.51,0,0,1,1.08.25l.2.06.21-.05a3.61,3.61,0,0,1,1.09-.14c.28,0,.54,0,.77.07a3.49,3.49,0,0,0,.52,0L62,65a3.52,3.52,0,0,1,1.06-.13l.71,0,.59,0a3.06,3.06,0,0,1,1.22.35l.13.06.25,0a4.16,4.16,0,0,1,.94-.1l.21,0A3.24,3.24,0,0,1,68.26,65a2.76,2.76,0,0,1,1.38.49l.07,0h1l.13-.06a3.1,3.1,0,0,1,1.31-.29h.63l.66,0h.63l.67,0a4,4,0,0,1,1,.16,2.12,2.12,0,0,0,.32.07,5.08,5.08,0,0,1,.91.13l.26,0,.1,0a3,3,0,0,1,1.33-.33,3.88,3.88,0,0,1,1.06.21,1.42,1.42,0,0,0,.25.07,5.42,5.42,0,0,0,.57,0h.71a5,5,0,0,0,.55,0h.74a4.82,4.82,0,0,0,.53,0c.23,0,.5,0,.77,0l.5,0c.24,0,.51,0,.8,0a6.23,6.23,0,0,1,.82.09c.18,0,.34,0,.47,0l.74.05.55,0H89a5.27,5.27,0,0,1,1,.15,2.28,2.28,0,0,0,.34.07l.66,0,.63,0a2.64,2.64,0,0,0,.44,0,7.25,7.25,0,0,1,.86,0,5,5,0,0,0,.54,0l.76,0a3.18,3.18,0,0,1,1.24.34l.14.07.57,0,.63,0,.3,0a4,4,0,0,1,1-.12,4.61,4.61,0,0,1,1,.15c.11,0,.27.06.33.06a3.05,3.05,0,0,0,.51,0c.23,0,.5,0,.79,0a5.14,5.14,0,0,1,.88.11l.41.06h1.16l.11,0a2.84,2.84,0,0,1,1.34-.34,3,3,0,0,1,1.2.3l.16.07.42,0c.24,0,.51,0,.8,0l1.29,0,.29-.06a4.52,4.52,0,0,1,1-.13,2.75,2.75,0,0,0,.48,0,6.93,6.93,0,0,1,.82,0l.75,0,.54,0a3,3,0,0,1,1.24.33l.15.06h1.2l.4,0a5.56,5.56,0,0,1,.9-.08l.7,0,.59,0h1.29a2.43,2.43,0,0,0,.42,0,5.54,5.54,0,0,1,.89-.07,5.14,5.14,0,0,1,.89.11c.15,0,.31,0,.4,0l.69,0,.53,0,.17-.06a3.36,3.36,0,0,1,1.2-.25,5,5,0,0,1,.84.08c.18,0,.34,0,.46,0h.56l.74,0,.76,0,.53,0c.11,0,.26,0,.43,0a7,7,0,0,1,.87-.07l.78,0a5,5,0,0,0,.51,0,3.09,3.09,0,0,1,1.25.33l.05,0,.07,0a3,3,0,0,1,1.21-.28,4.36,4.36,0,0,1,1,.16c.1,0,.24.06.29.06a2.06,2.06,0,0,0,.35,0,4.11,4.11,0,0,1,.94-.11,5.49,5.49,0,0,1,.91.1,2.49,2.49,0,0,0,.39.06c.11,0,.27,0,.44,0s.54-.06.85-.07a6.22,6.22,0,0,1,.8.06l.5,0h1.29a2.74,2.74,0,0,0,.45,0,6.79,6.79,0,0,1,.85-.07l.43,0a5.25,5.25,0,0,1,.86-.08,4.16,4.16,0,0,1,.95.12,3.24,3.24,0,0,0,.35,0c.24,0,.48,0,.72,0l.57,0a5.38,5.38,0,0,1,.87.08,2.73,2.73,0,0,0,.42,0c.14,0,.3,0,.49,0a6.39,6.39,0,0,1,.81-.06h1.29a4,4,0,0,1,1,.15l.28.07h1.09l.08,0a2.82,2.82,0,0,1,1.41-.46h0a2.8,2.8,0,0,1,1.3.36l.12,0h.46l.72,0a6.54,6.54,0,0,1,.81.06l.33,0a.2.2,0,0,1,.08,0,2.74,2.74,0,0,1,1.36-.41,3.72,3.72,0,0,1,1.08.18l.24.07a5.28,5.28,0,0,1,.84.07,4.28,4.28,0,0,0,.43,0,4.81,4.81,0,0,0,.49,0c.24,0,.51,0,.81,0s.52,0,.75,0l.54,0a5.48,5.48,0,0,1,.85.06c.17,0,.33,0,.44,0l.26-.06a4,4,0,0,1,1-.18,7.35,7.35,0,0,1,.92.09,1.52,1.52,0,0,0,.38,0,2.63,2.63,0,0,0,.41,0,5.31,5.31,0,0,1,.88-.09l.39-.06a5.4,5.4,0,0,1,.9-.11,5.82,5.82,0,0,1,1,.12l.3.05.21-.07a3.51,3.51,0,0,1,1.11-.22h1.29a5.56,5.56,0,0,1,.9.08c.16,0,.32.05.41.05l.68,0H177c.26,0,.51,0,.74,0h.56a3.46,3.46,0,0,1,1.1.19h0a2.62,2.62,0,0,1,1.43-.5,2.88,2.88,0,0,1,1.31.32l.05,0,.09,0a2.91,2.91,0,0,1,2.29,0l.2.06.33-.06a5.3,5.3,0,0,1,.92-.12,4.52,4.52,0,0,1,1,.11l.31.05.27-.06a3.81,3.81,0,0,1,1-.18c.27,0,.53,0,.76,0l.54,0a3.75,3.75,0,0,1,1,.13l.21,0,.12,0a3.2,3.2,0,0,1,1.23-.33c.11,0,.28,0,.45-.05a5,5,0,0,1,.84-.09h1.29a2.92,2.92,0,0,1,1.3.31,2.89,2.89,0,0,1,1.29-.4,3.19,3.19,0,0,1,1.3.3l.05,0,.07,0a3.63,3.63,0,0,1,1.18-.29,3.5,3.5,0,0,1,1.15.2l.18.06.24-.07a3.79,3.79,0,0,1,1-.19l.58,0c.23,0,.47,0,.71,0a2.93,2.93,0,0,0,.41-.07,6.59,6.59,0,0,1,.88-.11l.61,0,.68,0a4.64,4.64,0,0,1,.86,0,2.49,2.49,0,0,0,.44,0c.29,0,.56,0,.8,0l.5,0,.62,0,.67,0,.48-.06a6.07,6.07,0,0,1,.81-.09l.57,0q.36,0,.72-.06c.19,0,.38,0,.56,0s.47,0,.73-.06a4.15,4.15,0,0,1,1,.1l.3,0a2.28,2.28,0,0,0,.34-.07,3.81,3.81,0,0,1,.94-.16,2.81,2.81,0,0,1,1.3.29,2.87,2.87,0,0,1,1.29-.43H221a6.17,6.17,0,0,1,.92.06l.38,0a4.82,4.82,0,0,1,.88,0,2.34,2.34,0,0,0,.42,0c.3,0,.58,0,.82,0l.41,0,.16-.07a3.27,3.27,0,0,1,1.18-.33l.68,0,.62,0c.21,0,.41,0,.62,0l.67,0a3.09,3.09,0,0,1,1.21.21l.18,0,.42-.06a7.89,7.89,0,0,1,.79-.09,6.92,6.92,0,0,1,.79,0h.51l.48-.07a8.15,8.15,0,0,1,.81-.1l.46-.07a8,8,0,0,1,.83-.11,4,4,0,0,1,1.07.12l.25.06.58,0,.69-.06a2.22,2.22,0,0,0,.28-.08,4,4,0,0,1,1-.21l.6,0,.69-.06c.26,0,.5,0,.73,0a5,5,0,0,0,.56,0c.28,0,.55,0,.79,0H243l.26-.08a4.06,4.06,0,0,1,1-.23,4.21,4.21,0,0,1,1,.08l.31,0a4.61,4.61,0,0,1,.95.05l.33,0,.22-.08a3.69,3.69,0,0,1,1.07-.27,1.78,1.78,0,0,0,.37-.08,5,5,0,0,1,.91-.16l.59-.06.7-.07a7.64,7.64,0,0,1,.84,0,3.71,3.71,0,0,0,.46,0l.63,0,.66,0,.62-.05.67-.07.64,0c.21,0,.43,0,.64-.06a6.15,6.15,0,0,1,.86,0,3.55,3.55,0,0,0,.45,0l.69,0,.6,0,.26-.09a4.17,4.17,0,0,1,1-.24,2.76,2.76,0,0,1,1.33.26,2.87,2.87,0,0,1,1.24-.46,3.22,3.22,0,0,0,.44-.08,5.79,5.79,0,0,1,.84-.15l.67,0,.62,0a4.29,4.29,0,0,1,1,0,2.35,2.35,0,0,0,.33,0l.72,0,.57,0c.28,0,.55,0,.79,0l.46,0,.19-.08a3.56,3.56,0,0,1,1.11-.34l.73,0,.57,0c.14,0,.31,0,.49-.08s.49-.1.78-.13a5.63,5.63,0,0,1,.94,0,2.77,2.77,0,0,0,.37,0,3.28,3.28,0,0,1,1.26.17l.15.05.32-.08a4.57,4.57,0,0,1,.87-.18l.24-.09a3.75,3.75,0,0,1,1-.27,3.47,3.47,0,0,0,.47-.09c.24-.05.51-.11.81-.15a3.37,3.37,0,0,1,1.17.12l.18,0,.23-.08a4.07,4.07,0,0,1,1-.27c.27,0,.53,0,.76,0a4.22,4.22,0,0,0,.53,0,4.45,4.45,0,0,1,1,0l.29,0,.17-.08a3.54,3.54,0,0,1,1.1-.36,7.18,7.18,0,0,1,.76,0l.53,0,.27-.09a4.24,4.24,0,0,1,1-.27,2.7,2.7,0,0,1,1.48.3l0,0a3.38,3.38,0,0,1,1.06-.34,6,6,0,0,1,.81,0c.19,0,.36,0,.49,0l.22-.09a3.53,3.53,0,0,1,1-.31,4.13,4.13,0,0,1,1.08,0l.27,0a6.84,6.84,0,0,1,.76-.06c.19,0,.37,0,.51,0l.77-.11.51-.07a7.81,7.81,0,0,1,.78-.06c.19,0,.37,0,.51,0l.48-.11a6.67,6.67,0,0,1,.78-.16,3.85,3.85,0,0,0,.47-.11c.23-.06.5-.12.79-.17l.65-.08.63-.09a4.33,4.33,0,0,1,.94,0h.37l.39-.11a4.86,4.86,0,0,1,.86-.22,6.77,6.77,0,0,1,.85-.06h.4l.17-.09a3.38,3.38,0,0,1,1.1-.41l.33-.11a4.6,4.6,0,0,1,.91-.26c.22,0,.44-.07.67-.09l.6-.09.68-.09.6-.09c.29,0,.56-.06.8-.08l.49,0a3.16,3.16,0,0,1,1.18,0l.21,0,1.07-.18.09-.07a2.7,2.7,0,0,1,1.24-.59,3.29,3.29,0,0,1,1.09,0l.25,0a3.85,3.85,0,0,1,1,0,1.63,1.63,0,0,0,.3,0,5.23,5.23,0,0,0,.54-.12c.24,0,.47-.11.71-.15l.63-.11.64-.1.2-.11a4.05,4.05,0,0,1,1-.37c.26-.05.5-.08.74-.11l.54-.09a4,4,0,0,1,1,0h.14a2.76,2.76,0,0,1,1.3-.74,4.23,4.23,0,0,1,1-.06h.33a5.46,5.46,0,0,1,.91-.09l.39,0c.28-.06.55-.09.79-.12l.47-.05.2-.12a3.92,3.92,0,0,1,1-.4,3.51,3.51,0,0,1,1-.06h.29l.43-.14c.23-.07.49-.17.78-.23a5.61,5.61,0,0,1,.9-.11,2,2,0,0,0,.39,0,3.14,3.14,0,0,0,.36-.14,5.05,5.05,0,0,1,.86-.29,4,4,0,0,1,1-.1h.24l.1-.07a2.68,2.68,0,0,1,2.42-.57h0a2.79,2.79,0,0,1,1.16-.65,3.69,3.69,0,0,1,1.05-.09h.29l.52-.13.61-.16.13-.09a3.13,3.13,0,0,1,1.09-.58,3.59,3.59,0,0,1,1.08-.09h.26a4.85,4.85,0,0,1,.9-.14l.36,0a6.39,6.39,0,0,1,.74-.17l.51-.11c.18,0,.36-.12.54-.18l.6-.2.14-.1a3.19,3.19,0,0,1,1.05-.58l.46-.14.76-.22.58-.2.63-.2a3.06,3.06,0,0,1,1.19-.11h.2l.37-.16a6.15,6.15,0,0,1,.75-.3,3.65,3.65,0,0,0,.44-.19c.21-.09.46-.2.73-.29a5.44,5.44,0,0,1,.89-.2l.38-.06.51-.21c.21-.09.43-.18.67-.26s.27-.12.43-.19.45-.22.72-.32a2.38,2.38,0,0,0,.36-.18,4.77,4.77,0,0,1,.78-.37,6.85,6.85,0,0,1,.81-.23,2.4,2.4,0,0,0,.43-.11,3.46,3.46,0,0,1,1.14-.18,2.44,2.44,0,0,1,1.11-.95,5.48,5.48,0,0,1,.81-.24,3.27,3.27,0,0,0,.42-.12,5,5,0,0,1,1-.24l.24,0a.35.35,0,0,0,.11-.1,3.39,3.39,0,0,1,1-.66,3.5,3.5,0,0,1,1.05-.25l.25,0a4,4,0,0,1,1-.25l.14,0,0,0a2.76,2.76,0,0,1,1-.86l.46-.25c.18-.11.4-.23.63-.34a2.84,2.84,0,0,1,1.31-.25H375l.06-.06a3.7,3.7,0,0,1,.87-.66l.26-.2a5.08,5.08,0,0,1,.75-.52,6.18,6.18,0,0,1,.83-.33,1.88,1.88,0,0,0,.35-.13,3.61,3.61,0,0,1,1.09-.34l.13,0,0-.06a3.08,3.08,0,0,1,.88-.82l.6-.37.45-.27a6.53,6.53,0,0,1,.68-.36,3.22,3.22,0,0,0,.42-.22l.57-.33.47-.27a1.26,1.26,0,0,0,.13-.16,3.82,3.82,0,0,1,.76-.72,2.82,2.82,0,0,1,1.38-.43h.1l.22-.15.4-.28a2.52,2.52,0,0,1,.82-1.28l.47-.4.44-.38a2.8,2.8,0,0,1,1.21-.52,2.7,2.7,0,0,1,.65-1l.47-.4.44-.38.11-.1.74-.72a3.68,3.68,0,0,1,.83-.6l.17-.1s0-.08.05-.12a3.3,3.3,0,0,1,.54-.89,5.11,5.11,0,0,1,.61-.57l.27-.23a4.68,4.68,0,0,1,.65-.63l.1-.08c0-.3.66-.35,1-.81a6,6,0,0,1,.54-.62l.23-.25a6.29,6.29,0,0,1,.53-.94.76.76,0,0,0,.16-.14c.12-.19.53-1,.64-1.15s.2-.28.26-.38a3.17,3.17,0,0,1,1.14-1.12c.42-.41.62-1.52,1.06-1.52C400.49,16.92,400.5,70.05,400.5,70.05Z"/></g></g><path class="cls-2" d="M280.16,50.72a2.5,2.5,0,0,1-.81-4.87c.37-.12.76-.22,1.16-.32a6.06,6.06,0,0,0,.76-.21l.25-.2a5.85,5.85,0,0,1,1.47-.89l1-.35c.3-.1.59-.19.88-.31l1.84-.78c.23-.11.46-.24.68-.37a11.21,11.21,0,0,1,1.08-.58,6.33,6.33,0,0,1,1.6-.46,2.7,2.7,0,0,0,.41-.08,9.83,9.83,0,0,1,1.11-.45c.24-.09.48-.17.71-.28a4.6,4.6,0,0,0,.43-.33,7.78,7.78,0,0,1,1.22-.83,6.29,6.29,0,0,1,1.49-.55l.44-.13.41-.33a7.49,7.49,0,0,1,1.19-.89c.22-.13.43-.29.65-.45a11.8,11.8,0,0,1,1-.69,9.84,9.84,0,0,1,1.19-.58,5.22,5.22,0,0,0,.62-.3c.05,0,.2-.2.32-.32a6.39,6.39,0,0,1,1.19-1l.87-.54c.28-.16.56-.33.83-.51s.79-.47,1.13-.65a5.66,5.66,0,0,0,.63-.34c.27-.2.54-.4.8-.61s.53-.41.8-.6.38-.33.57-.5a10.41,10.41,0,0,1,.94-.82l.68-.5c.31-.23.63-.45.93-.69a8,8,0,0,1,1.24-.77,3.81,3.81,0,0,0,.49-.27,9.93,9.93,0,0,1,1-.72,5.47,5.47,0,0,0,.63-.44l1.52-1.3.16-.27a5.59,5.59,0,0,1,1.07-1.37,10.47,10.47,0,0,1,.89-.73c.22-.17.45-.35.65-.54a6.83,6.83,0,0,1,1.33-.92c.13-.08.32-.18.38-.23.21-.21.43-.45.65-.69s.47-.51.71-.75.56-.53.86-.79.42-.36.62-.56l.15-.32a6.29,6.29,0,0,1,.92-1.41,8,8,0,0,0,.5-.65q.34-.48.72-.93c.22-.25.45-.49.67-.73s.46-.48.67-.74.56-.7.84-1.05l.39-.5A6.12,6.12,0,0,1,329,10.57c.11-.09.23-.16.32-.25s.18-.31.31-.55a9.25,9.25,0,0,1,.66-1.12c.17-.25.32-.51.47-.76s.37-.63.57-.93A11,11,0,0,1,332,6c.18-.22.36-.44.47-.61l.14-.42a6.3,6.3,0,0,1,.59-1.43,6.35,6.35,0,0,1,1-1.23c.1-.12.25-.27.29-.33a3.63,3.63,0,0,1,4-1.86A6.35,6.35,0,0,1,340,.78a4.09,4.09,0,0,0,.4.21c.36.1.74.23,1.12.37a7.08,7.08,0,0,0,.78.25l.92.25,1,.28.34,0a6,6,0,0,1,1.72.11,9.51,9.51,0,0,1,1.27.41c.25.09.49.18.66.22a11.62,11.62,0,0,1,1.19.34c.26.08.51.17.76.22a6.39,6.39,0,0,0,.75.09,9.49,9.49,0,0,1,1.28.16l1,.2q.49.12,1,.21l.93.19,1.06.21.34,0a6.07,6.07,0,0,1,1.72,0l1,.18,1,.18a5.87,5.87,0,0,1,1.68.56,2.72,2.72,0,0,0,.35.16l.94.09,1,.1,1.09.11.93.09a1.48,1.48,0,0,1,.28-.08,5.77,5.77,0,0,1,1.77-.15l1,.11,1,.11a5.37,5.37,0,0,1,1.74.47c.1,0,.2.09.3.12l.56,0a8.39,8.39,0,0,1,1.4-.08l2,.08c.33,0,.65,0,1,0l1,0c.47,0,.89.06,1.26.1s.56.06.75.06a9.36,9.36,0,0,1,1.44.14,1.9,1.9,0,0,0,.56.07,7.52,7.52,0,0,0,.83-.09c.39-.05.78-.11,1.17-.13a7.86,7.86,0,0,0,.83-.11c.38-.06.76-.13,1.15-.16s.68,0,1,0,.64,0,1-.06a2.5,2.5,0,1,1,.55,5c-.43.05-.88.07-1.32.08-.27,0-.53,0-.8.05s-.5.06-.74.1a12.19,12.19,0,0,1-1.37.17l-.74.09a12.9,12.9,0,0,1-1.37.14,9.43,9.43,0,0,1-1.54-.13,2,2,0,0,0-.57-.08,11.46,11.46,0,0,1-1.39-.09c-.24,0-.48-.06-.72-.07l-.82,0c-.43,0-.86,0-1.29,0L374,11.33a3.8,3.8,0,0,0-.61.05,8.62,8.62,0,0,1-1.5.06,5.44,5.44,0,0,1-1.8-.47c-.12,0-.23-.1-.35-.13-.32,0-.72-.07-1.13-.12l-.85-.09-.29.07a5.88,5.88,0,0,1-1.84.15l-.83-.08-1.25-.13-.85-.08c-.41,0-.82-.08-1.23-.14a5.65,5.65,0,0,1-1.73-.57,2.17,2.17,0,0,0-.35-.15l-1.13-.2c-.28-.05-.56-.11-.85-.15l-.35,0a6,6,0,0,1-1.76,0l-1.21-.23L353.29,9c-.4-.07-.8-.16-1.2-.25l-.84-.18a5.82,5.82,0,0,0-.73-.08,10.81,10.81,0,0,1-1.35-.17,11,11,0,0,1-1.28-.37c-.24-.07-.48-.16-.72-.21a9.88,9.88,0,0,1-1.35-.42,4.83,4.83,0,0,0-.64-.22,2.37,2.37,0,0,0-.35,0A6,6,0,0,1,343.06,7c-.39-.09-.78-.2-1.17-.31l-.84-.22c-.42-.11-.83-.25-1.24-.4-.24-.09-.49-.18-.74-.25a4.88,4.88,0,0,1-1-.37l-.27.29c-.11.12-.26.28-.3.34s-.09.25-.13.4a7.06,7.06,0,0,1-.68,1.58,11.26,11.26,0,0,1-.83,1.12,6.41,6.41,0,0,0-.45.58c-.14.21-.27.43-.4.65a12.08,12.08,0,0,1-.71,1.14,4,4,0,0,0-.32.57,10.46,10.46,0,0,1-.77,1.26,5.85,5.85,0,0,1-1.3,1.21,4.19,4.19,0,0,0-.33.26l-.35.45c-.3.39-.61.78-.93,1.16s-.56.64-.86,1-.37.39-.55.6a6.55,6.55,0,0,0-.45.59,11.59,11.59,0,0,1-.85,1.06c0,.07-.09.2-.15.32a6.16,6.16,0,0,1-1,1.49c-.3.32-.64.61-1,.9a7.29,7.29,0,0,0-.58.53c-.19.19-.38.39-.56.6s-.58.63-.89.92a6,6,0,0,1-1.38,1c-.13.08-.32.18-.38.23-.31.29-.65.56-1,.83l-.61.49-.15.28a6,6,0,0,1-1.14,1.42c-.52.46-1.05.92-1.59,1.37a10.66,10.66,0,0,1-1.12.79,5.9,5.9,0,0,0-.6.42,7.1,7.1,0,0,1-1.31.81,4.43,4.43,0,0,0-.49.28c-.34.27-.69.53-1.05.79l-.62.46c-.19.14-.36.31-.54.47a10.11,10.11,0,0,1-1.05.9l-.66.5c-.33.26-.66.51-1,.75a9,9,0,0,1-1.22.71,5,5,0,0,0-.6.33l-1.06.67c-.24.14-.48.28-.71.43a4.38,4.38,0,0,0-.33.32,6.49,6.49,0,0,1-1.26,1.08,10.15,10.15,0,0,1-1.28.64,4.73,4.73,0,0,0-.6.29c-.21.13-.41.28-.61.43s-.69.5-1.12.75a3.92,3.92,0,0,0-.42.34,7.48,7.48,0,0,1-1.27.93,6.47,6.47,0,0,1-1.56.58l-.45.13c-.07,0-.27.2-.42.33a7.88,7.88,0,0,1-1.3.88,11,11,0,0,1-1.27.52c-.23.09-.46.16-.68.27a6.21,6.21,0,0,1-1.68.49,2.83,2.83,0,0,0-.4.08c-.19.09-.4.22-.61.34s-.75.43-1.21.64l-1.92.82c-.4.16-.81.3-1.22.43-.25.09-.51.17-.75.27l-.27.21A5.86,5.86,0,0,1,283,50a9.75,9.75,0,0,1-1.32.38c-.24.06-.48.11-.71.19A2.3,2.3,0,0,1,280.16,50.72Z"/></g></g></svg>