<svg xmlns="http://www.w3.org/2000/svg" viewBox="0 0 650 159.91"><defs><style>.cls-1{fill:#f7f3ed;}</style></defs><g id="レイヤー_2" data-name="レイヤー 2"><g id="レイヤー_22" data-name="レイヤー 22"><path class="cls-1" d="M5.59,159.91A5.58,5.58,0,0,1,3,149.4c1.37-.73,2.77-1.36,4.12-2l1.39-.64a16.38,16.38,0,0,1,4.34-1.19,10.66,10.66,0,0,0,1.57-.33c.56-.23,1.19-.55,1.86-.89a29.88,29.88,0,0,1,3.59-1.61,14.25,14.25,0,0,0,1.64-.81,20.46,20.46,0,0,1,3.81-1.73,16.73,16.73,0,0,1,4.32-.63,9.76,9.76,0,0,0,1.63-.16c.61-.17,1.31-.42,2.05-.7a33.38,33.38,0,0,1,3.57-1.16A33.86,33.86,0,0,1,40.4,137c.81-.12,1.58-.23,2.26-.38,1.2-.27,2.35-.43,3.46-.59.82-.11,1.6-.23,2.33-.37A10.89,10.89,0,0,0,50,135,17.76,17.76,0,0,1,54,133.66a16.83,16.83,0,0,1,4.33-.09,10.35,10.35,0,0,0,1.6.05c.78-.13,1.56-.28,2.34-.43,1.09-.21,2.21-.42,3.39-.59.61-.09,1.34-.28,2.11-.48a29.06,29.06,0,0,1,3.59-.77c.81-.11,1.62-.25,2.43-.39,1.06-.18,2.16-.37,3.32-.51a23.56,23.56,0,0,1,3.8-.08,15.3,15.3,0,0,0,2,0c.74-.08,1.55-.22,2.4-.37,1.06-.18,2.15-.37,3.34-.49.7-.07,1.5-.22,2.33-.37,1-.18,2.18-.39,3.4-.51a19,19,0,0,1,4,.12,11.69,11.69,0,0,0,1.82.1,11.58,11.58,0,0,0,1.25-.44,15.18,15.18,0,0,1,4.41-1.18c1.13-.1,2.2-.13,3.24-.16s1.74,0,2.53-.11a24.12,24.12,0,0,1,3.76.07,15,15,0,0,0,2,.07c.86-.07,1.72-.17,2.58-.27,1-.11,2.06-.23,3.16-.31a10.94,10.94,0,0,0,1.74-.41,19.84,19.84,0,0,1,3.95-.78,33.3,33.3,0,0,1,3.44,0c.85,0,1.65,0,2.33,0,1-.07,2-.12,3-.17l2.74-.15c.79-.06,1.63-.16,2.53-.28s2.07-.26,3.19-.34,2.12-.1,3.12-.12,1.8,0,2.63-.1,1.47-.18,2.3-.32a30.67,30.67,0,0,1,3.41-.46c1.09-.08,2.14-.1,3.15-.11s1.78,0,2.59-.09L166,123l3.11-.22c.76,0,1.59-.17,2.47-.3,1-.15,2.09-.31,3.24-.4s2.11-.1,3.11-.13,1.8,0,2.62-.11c1.19-.09,2.33-.08,3.34-.07s1.69,0,2.41,0c.94-.08,1.88-.18,2.82-.28s1.92-.2,2.89-.28,1.85-.19,2.78-.29,1.94-.22,2.92-.31c.72-.06,1.53-.21,2.4-.36s2.1-.37,3.28-.48,2.23-.12,3.27-.13,1.72,0,2.46-.09l3.21-.33,2.48-.26c.88-.09,1.78-.22,2.73-.35s2-.27,2.95-.38a30.11,30.11,0,0,1,3.47-.11,19.89,19.89,0,0,0,2.27-.07,23,23,0,0,0,2.34-.42c1-.21,2.11-.45,3.3-.59a30.7,30.7,0,0,1,3.47-.15,22,22,0,0,0,2.27-.09c.75-.09,1.58-.26,2.46-.44s2-.42,3.18-.56,2.13-.21,3.14-.28,1.77-.12,2.56-.22a14.41,14.41,0,0,0,1.89-.52,22.19,22.19,0,0,1,3.68-.92,17.67,17.67,0,0,1,4.11,0,10.06,10.06,0,0,0,1.67,0,16.33,16.33,0,0,0,2.08-.53,27.42,27.42,0,0,1,3.49-.86c1.11-.17,2.16-.26,3.17-.35s1.75-.15,2.51-.28c1.12-.18,2.17-.28,3.19-.37s1.74-.16,2.49-.3c1.71-.29,3.43-.61,5.14-.92l.48-.09c1-.18,2-.32,3-.45s1.84-.25,2.68-.41c.66-.13,1.43-.37,2.25-.62,1-.3,2.08-.64,3.27-.88a11.16,11.16,0,0,0,1.78-.63,20.77,20.77,0,0,1,3.67-1.21,25.28,25.28,0,0,1,3.58-.43,17.2,17.2,0,0,0,2.11-.23,25,25,0,0,1,3.65-.45,14.29,14.29,0,0,0,2-.22c.81-.18,1.66-.44,2.57-.7s1.9-.57,2.94-.81c.84-.21,1.72-.47,2.65-.74s1.85-.54,2.84-.79a23.9,23.9,0,0,0,2.27-.75c.94-.34,2-.73,3.16-1s2.2-.6,3.3-.91l2.19-.6c1-.27,1.92-.49,2.83-.7s1.85-.43,2.7-.67a24.13,24.13,0,0,1,3.61-.67,14.31,14.31,0,0,0,2-.35,17.66,17.66,0,0,0,2-.83,27,27,0,0,1,3.3-1.32,14.07,14.07,0,0,0,1.85-.83,22.78,22.78,0,0,1,3.39-1.47,17.2,17.2,0,0,1,4.15-.69,9.46,9.46,0,0,0,1.55-.18c1-.33,1.94-.6,2.86-.86s1.79-.51,2.59-.79a10.54,10.54,0,0,0,1.28-.79,16.55,16.55,0,0,1,3.74-2.06,20.82,20.82,0,0,1,3.73-.9,12,12,0,0,0,1.85-.41c.82-.3,1.66-.68,2.55-1.07s1.75-.77,2.69-1.14,2.06-.73,3-1,1.67-.52,2.36-.8,1.61-.71,2.48-1.13,1.74-.84,2.69-1.24,2.1-.79,3-1.1,1.66-.55,2.33-.85a11.16,11.16,0,0,0,1.57-1,20,20,0,0,1,3.32-2c1-.44,1.91-.91,2.87-1.38l2.24-1.09A20.2,20.2,0,0,1,411,69.69a10.89,10.89,0,0,0,1.79-.57l1.85-.89c1.09-.53,2.18-1,3.25-1.6a2.52,2.52,0,0,0,.29-.23,14.62,14.62,0,0,1-2.93-5.59c-.15-.46-.29-.9-.41-1.16A20.5,20.5,0,0,1,412.93,52l0-.92a18.28,18.28,0,0,1,.66-7,17.55,17.55,0,0,1,3.4-5.53c.27-.32.54-.65.8-1a22.79,22.79,0,0,1,5.44-5.43c.33-.21.65-.45,1-.68a16.45,16.45,0,0,1,6.14-3.11,17.81,17.81,0,0,1,8.67.1,14.84,14.84,0,0,1,7.55,5.72A17.41,17.41,0,0,1,449.38,42a23.12,23.12,0,0,1-.26,7.42c-.07.41-.12.83-.17,1.27a18.34,18.34,0,0,1-1.39,5.72,12.64,12.64,0,0,1-3.63,4.35,10.29,10.29,0,0,0-1,.92c-.19.25-.45.69-.73,1.14A22.55,22.55,0,0,1,440.77,65c.37,0,.8,0,1.23,0,1,0,2.05,0,3.23.07,2.1.18,3.85.27,5.52.28,1.08,0,2.1.08,3.08.15s1.85.13,2.65.12a17.56,17.56,0,0,0,2.28-.23,30.75,30.75,0,0,1,3.46-.32c.78,0,1.65-.11,2.58-.21s2-.21,3.14-.25a29.23,29.23,0,0,1,3.48.13,17.1,17.1,0,0,0,2.27.1,30,30,0,0,1,3.49.08,18.37,18.37,0,0,0,2.27.07,23.2,23.2,0,0,0,2.4-.35c1-.17,2.11-.37,3.3-.47a16.47,16.47,0,0,0,2.1-.42,27,27,0,0,1,3.56-.67,18.76,18.76,0,0,1,4.07.14,9.92,9.92,0,0,0,1.72.12l1.63-.18c1.36-.15,2.72-.3,4.08-.48a11,11,0,0,0,1.63-.53A18.39,18.39,0,0,1,507.87,61c1-.15,2-.25,2.95-.34s1.89-.18,2.74-.32c1.1-.18,2.19-.4,3.29-.61l2.34-.45c1.11-.2,2.16-.31,3.17-.41s1.77-.18,2.51-.33c.91-.18,1.84-.42,2.84-.67s1.82-.46,2.73-.66a18,18,0,0,0,2.13-.7,29.79,29.79,0,0,1,3.33-1.07,20.06,20.06,0,0,1,3.93-.44,11.26,11.26,0,0,0,1.81-.15l2.5-.61c1.07-.25,2.08-.49,3.06-.76s2-.59,3-.93l2.44-.77a11.61,11.61,0,0,0,1.67-.81,20.55,20.55,0,0,1,3.55-1.62c1.89-.61,3.66-1.2,5.39-1.8a24.07,24.07,0,0,1,3.53-.87,14.1,14.1,0,0,0,2-.48,19.86,19.86,0,0,0,2.13-1c.89-.46,1.9-1,3-1.44s2.09-.74,3-1,1.7-.52,2.38-.81c1.09-.46,2.15-.8,3.09-1.1a21.14,21.14,0,0,0,2.29-.82c.87-.4,1.77-.87,2.72-1.37.78-.41,1.56-.81,2.35-1.2,1.14-.55,2.27-1.15,3.47-1.78l1.58-.83a11,11,0,0,0,1.56-1.15,22.78,22.78,0,0,1,3.08-2.17A18.29,18.29,0,0,1,603.38,30a9.45,9.45,0,0,0,1.52-.51,9.75,9.75,0,0,0,1.37-1.18,19.93,19.93,0,0,1,3-2.48,27.54,27.54,0,0,1,3.1-1.62,15.21,15.21,0,0,0,1.93-1c.62-.42,1.28-1,2-1.59s1.52-1.3,2.42-1.95a29,29,0,0,1,2.88-1.79,16.58,16.58,0,0,0,1.93-1.2,10.77,10.77,0,0,0,1.35-1.43,22,22,0,0,1,2.59-2.65,24.28,24.28,0,0,1,2.94-2,12.27,12.27,0,0,0,1.72-1.17c.67-.6,1.35-1.31,2.07-2.07S635.43,6,636.1,5.38a32,32,0,0,1,2.46-2.09,20,20,0,0,0,1.83-1.58,5.59,5.59,0,1,1,8.05,7.75A29.47,29.47,0,0,1,645.5,12c-.61.49-1.19,1-1.64,1.38s-1.05,1.06-1.56,1.6c-.84.88-1.7,1.79-2.7,2.68a21.42,21.42,0,0,1-3.33,2.37c-.63.4-1.23.77-1.63,1.09a15.64,15.64,0,0,0-1.28,1.38,20,20,0,0,1-3,2.95,26.26,26.26,0,0,1-3.32,2.12,17.44,17.44,0,0,0-1.79,1.09c-.54.39-1.12.88-1.73,1.41a35.07,35.07,0,0,1-3,2.34,23.47,23.47,0,0,1-3.49,1.89,16,16,0,0,0-1.82.93A10.53,10.53,0,0,0,614,36.42a18.93,18.93,0,0,1-3.35,2.67,17,17,0,0,1-4.14,1.65,9.11,9.11,0,0,0-1.52.51,12.49,12.49,0,0,0-1.51,1.11A20.93,20.93,0,0,1,600,44.71l-1.52.79c-1.22.65-2.48,1.32-3.79,2-.69.34-1.37.7-2.05,1-1,.55-2.12,1.12-3.29,1.65a30.89,30.89,0,0,1-3.52,1.29c-.77.25-1.5.48-2.1.73a35.83,35.83,0,0,1-3.48,1.22c-.79.24-1.53.47-2.16.72s-1.26.59-2,1a29.87,29.87,0,0,1-3.42,1.59,23.14,23.14,0,0,1-3.82,1,13.81,13.81,0,0,0-2,.46c-1.81.62-3.65,1.24-5.63,1.87a13.09,13.09,0,0,0-1.64.8,19.18,19.18,0,0,1-3.8,1.7c-.74.22-1.47.46-2.21.7-1.11.36-2.26.73-3.46,1.07s-2.37.6-3.5.87c-.76.17-1.52.35-2.27.54a18.64,18.64,0,0,1-4.16.5,11.16,11.16,0,0,0-1.78.15,18.33,18.33,0,0,0-2,.67,26,26,0,0,1-3.63,1.14c-.79.17-1.57.37-2.35.57-1.09.28-2.22.57-3.41.8a34.83,34.83,0,0,1-3.57.49c-.83.09-1.62.17-2.31.29l-2.2.42c-1.17.23-2.38.47-3.61.67s-2.36.31-3.47.42c-.85.08-1.65.16-2.4.27a10,10,0,0,0-1.64.53,18.44,18.44,0,0,1-4.1,1.14c-1.43.19-2.86.35-4.29.51l-1.59.18a17.91,17.91,0,0,1-4.29-.12,10.38,10.38,0,0,0-1.68-.12,16.9,16.9,0,0,0-2.06.41,24,24,0,0,1-3.77.69,22.59,22.59,0,0,0-2.28.34,33.72,33.72,0,0,1-3.58.49,27.32,27.32,0,0,1-3.78-.06,18.7,18.7,0,0,0-2.15-.08,26.67,26.67,0,0,1-3.78-.12,18.91,18.91,0,0,0-2.14-.1c-.75,0-1.56.11-2.41.2-1.11.12-2.25.23-3.48.26-.64,0-1.41.12-2.22.23a28.26,28.26,0,0,1-3.68.33c-1.27,0-2.42-.07-3.54-.15-.84-.06-1.64-.12-2.37-.12-2,0-4-.12-6.37-.32-.63,0-1.36,0-2.13,0a22.26,22.26,0,0,1-4.43-.25,22.92,22.92,0,0,1-4.89-1.62c-.56-.24-1.09-.46-1.51-.6a16.19,16.19,0,0,1-2.51-1.09,8.59,8.59,0,0,0-1.17.34,10.76,10.76,0,0,0-1,.91A15.44,15.44,0,0,1,423,76.59c-1.14.58-2.3,1.14-3.45,1.69l-1.8.87a19.69,19.69,0,0,1-3.82,1.33,11.91,11.91,0,0,0-1.75.55c-.71.33-1.4.67-2.1,1-1.05.52-2.1,1-3.16,1.52a12.65,12.65,0,0,0-1.54,1,19.84,19.84,0,0,1-3.48,2.08,34.4,34.4,0,0,1-3.31,1.22c-.79.26-1.54.51-2.18.78s-1.44.66-2.22,1c-1,.47-2,1-3.09,1.4s-2.31.83-3.32,1.14c-.8.24-1.56.47-2.21.73s-1.48.62-2.27,1c-1,.44-2,.9-3.11,1.31a20,20,0,0,1-3.9,1,13.42,13.42,0,0,0-1.81.4,9.59,9.59,0,0,0-1.29.79,16,16,0,0,1-3.86,2.1c-1.12.39-2.19.7-3.23,1-.84.24-1.62.46-2.35.71a17.1,17.1,0,0,1-4.29.73,9.6,9.6,0,0,0-1.54.18,15.32,15.32,0,0,0-1.82.82,23.35,23.35,0,0,1-3.54,1.52,17.13,17.13,0,0,0-1.95.81,26.39,26.39,0,0,1-3.47,1.38,23.31,23.31,0,0,1-3.78.71,16,16,0,0,0-2,.34c-1.12.32-2.19.57-3.24.81-.8.18-1.61.37-2.41.59l-2.11.59c-1.16.32-2.32.65-3.49,1-.66.17-1.4.44-2.18.72a35.15,35.15,0,0,1-3.36,1.08c-.77.19-1.56.43-2.4.67-1,.31-2.08.62-3.2.89-.76.18-1.55.41-2.39.66-1,.3-2.09.61-3.23.88a24.69,24.69,0,0,1-3.79.48,15.78,15.78,0,0,0-2,.21,24.88,24.88,0,0,1-3.73.46,15.14,15.14,0,0,0-2.06.22,11.74,11.74,0,0,0-1.76.63,20.22,20.22,0,0,1-3.78,1.23,22,22,0,0,0-2.19.61,32.55,32.55,0,0,1-3.43.9c-1.13.22-2.21.37-3.26.51-.88.12-1.7.24-2.48.38l-.48.09-5.23.94c-1.2.21-2.31.31-3.39.41-.85.08-1.66.15-2.38.27-1.19.2-2.3.29-3.38.39-.86.07-1.66.14-2.39.26a18.71,18.71,0,0,0-2.05.52,24.34,24.34,0,0,1-3.6.88,18,18,0,0,1-4.21,0,10,10,0,0,0-1.65-.06,13.92,13.92,0,0,0-1.88.52,22,22,0,0,1-3.76.93c-1.17.16-2.27.23-3.34.31-.87.05-1.69.11-2.44.2s-1.54.26-2.39.44c-1.05.21-2.13.43-3.32.57a30.82,30.82,0,0,1-3.58.18,18.89,18.89,0,0,0-2.22.08c-.68.08-1.46.24-2.29.42-1,.21-2.18.46-3.41.59a28.13,28.13,0,0,1-3.58.13,21.81,21.81,0,0,0-2.22.06c-.87.09-1.73.21-2.59.33-1,.14-2.06.29-3.14.4l-2.43.25-3.32.35c-1.21.11-2.37.13-3.39.14-.86,0-1.67,0-2.39.08s-1.52.21-2.37.36c-1,.18-2.15.38-3.35.48-.88.08-1.76.18-2.64.28-1,.12-2.07.24-3.1.32s-1.78.17-2.66.27l-3.09.3c-1.22.1-2.38.09-3.41.08-.86,0-1.66,0-2.36,0-1.12.08-2.19.11-3.22.14s-1.75,0-2.55.1-1.59.18-2.46.31c-1,.15-2.11.31-3.26.39l-3.17.22-2.58.19c-1.12.08-2.19.1-3.22.11s-1.75,0-2.54.09-1.48.18-2.32.33a33.54,33.54,0,0,1-3.4.45c-1.09.08-2.14.1-3.15.13s-1.78,0-2.6.09-1.67.17-2.57.28-2.05.26-3.15.34-2,.12-3,.17-1.84.08-2.76.15a33.14,33.14,0,0,1-3.44,0c-.84,0-1.64,0-2.31,0a11,11,0,0,0-1.78.41,20.25,20.25,0,0,1-3.89.77c-.87.07-1.76.17-2.71.28s-2,.23-3,.31a25.17,25.17,0,0,1-3.74-.07,13.35,13.35,0,0,0-2-.07c-1.09.08-2.13.11-3.13.14s-1.79,0-2.59.12a10.23,10.23,0,0,0-1.29.45,15.36,15.36,0,0,1-4.32,1.17,20.07,20.07,0,0,1-4-.13,11.17,11.17,0,0,0-1.78-.1c-.76.07-1.59.22-2.48.38s-2,.37-3.17.49c-.82.08-1.68.23-2.6.39s-2,.34-3,.46a24.68,24.68,0,0,1-3.71.06,15,15,0,0,0-2,0c-.89.11-1.8.27-2.77.44s-1.87.32-2.85.45a22,22,0,0,0-2.25.5,30.48,30.48,0,0,1-3.31.73c-.94.13-1.89.32-2.9.51s-1.79.34-2.68.49a18.12,18.12,0,0,1-4.2.06,9.67,9.67,0,0,0-1.54-.05,10.5,10.5,0,0,0-1.57.6,18.32,18.32,0,0,1-3.81,1.31c-1,.2-2,.34-2.93.47s-1.83.26-2.62.43c-1.1.24-2.15.4-3.09.53s-1.75.25-2.46.43a23.09,23.09,0,0,0-2.36.78c-.88.33-1.88.7-2.95,1a18.54,18.54,0,0,1-4,.54,10.1,10.1,0,0,0-1.56.15,11.88,11.88,0,0,0-1.81.87,22.9,22.9,0,0,1-3.24,1.53,20.56,20.56,0,0,0-2.26,1c-.82.41-1.74.88-2.74,1.28a18.21,18.21,0,0,1-3.9,1,10.09,10.09,0,0,0-1.5.31l-1.48.67c-1.24.56-2.41,1.09-3.46,1.66A5.65,5.65,0,0,1,5.59,159.91ZM426.44,58.78c.28.13.75.31,1.12.45.62.23,1.35.5,2.11.86.58-.43,1.16-.92,1.75-1.42l.21-.17a8.6,8.6,0,0,0,1-1.45,21.78,21.78,0,0,1,1.49-2.26,17.62,17.62,0,0,1,2.58-2.56c.27-.22.61-.52.8-.7a13.71,13.71,0,0,0,.37-2.19c.08-.64.15-1.26.26-1.86a12.72,12.72,0,0,0,.21-3.84,7.41,7.41,0,0,0-.85-3,4.35,4.35,0,0,0-1.64-1.53,7.11,7.11,0,0,0-3.1.08,10.5,10.5,0,0,0-2.05,1.28c-.44.32-.87.63-1.31.92a12.32,12.32,0,0,0-2.75,2.9c-.34.44-.69.87-1.05,1.31a10,10,0,0,0-1.44,2,10.56,10.56,0,0,0-.09,2.88c0,.36,0,.72.05,1.08a9,9,0,0,0,1,3.45c.36.81.61,1.59.84,2.28A12.3,12.3,0,0,0,426.44,58.78Z"/></g></g></svg>