<svg xmlns="http://www.w3.org/2000/svg" viewBox="0 0 32.93 32.93"><defs><style>.cls-1{fill:#fff;}</style></defs><g id="レイヤー_2" data-name="レイヤー 2"><g id="レイヤー_1-2" data-name="レイヤー 1"><g id="icon_data" data-name="icon data"><path class="cls-1" d="M32.48,32.48a1.59,1.59,0,0,1-1.1.45,1.57,1.57,0,0,1-1.1-.45L22.81,25l-.08-.07a1.54,1.54,0,0,1,0-2.19,11.33,11.33,0,0,0,3.38-8.12,11.51,11.51,0,0,0-23,0,11.38,11.38,0,0,0,3.37,8.14,11.59,11.59,0,0,0,11.14,3,1.55,1.55,0,0,1,.81,3A14.75,14.75,0,0,1,4.28,24.93,14.6,14.6,0,1,1,26,23.78l6.51,6.5A1.55,1.55,0,0,1,32.48,32.48Z"/><path class="cls-1" d="M20.26,14.61a1.55,1.55,0,0,1-1.55,1.55H16.12v2.58a1.55,1.55,0,1,1-3.1,0V16.16H10.43a1.56,1.56,0,0,1,0-3.11H13V10.47a1.55,1.55,0,1,1,3.1,0v2.58h2.59A1.55,1.55,0,0,1,20.26,14.61Z"/></g></g></g></svg>